%TF.GenerationSoftware,KiCad,Pcbnew,8.0.7*%
%TF.CreationDate,2025-02-08T20:50:40+05:30*%
%TF.ProjectId,AOS16 Double Buffer,414f5331-3620-4446-9f75-626c65204275,rev?*%
%TF.SameCoordinates,Original*%
%TF.FileFunction,Legend,Bot*%
%TF.FilePolarity,Positive*%
%FSLAX46Y46*%
G04 Gerber Fmt 4.6, Leading zero omitted, Abs format (unit mm)*
G04 Created by KiCad (PCBNEW 8.0.7) date 2025-02-08 20:50:40*
%MOMM*%
%LPD*%
G01*
G04 APERTURE LIST*
%ADD10C,0.200000*%
%ADD11C,0.120000*%
G04 APERTURE END LIST*
D10*
X58548504Y-34561667D02*
X58586600Y-34523571D01*
X58586600Y-34523571D02*
X58624695Y-34409286D01*
X58624695Y-34409286D02*
X58624695Y-34333095D01*
X58624695Y-34333095D02*
X58586600Y-34218809D01*
X58586600Y-34218809D02*
X58510409Y-34142619D01*
X58510409Y-34142619D02*
X58434219Y-34104524D01*
X58434219Y-34104524D02*
X58281838Y-34066428D01*
X58281838Y-34066428D02*
X58167552Y-34066428D01*
X58167552Y-34066428D02*
X58015171Y-34104524D01*
X58015171Y-34104524D02*
X57938980Y-34142619D01*
X57938980Y-34142619D02*
X57862790Y-34218809D01*
X57862790Y-34218809D02*
X57824695Y-34333095D01*
X57824695Y-34333095D02*
X57824695Y-34409286D01*
X57824695Y-34409286D02*
X57862790Y-34523571D01*
X57862790Y-34523571D02*
X57900885Y-34561667D01*
X57824695Y-35285476D02*
X57824695Y-34904524D01*
X57824695Y-34904524D02*
X58205647Y-34866428D01*
X58205647Y-34866428D02*
X58167552Y-34904524D01*
X58167552Y-34904524D02*
X58129457Y-34980714D01*
X58129457Y-34980714D02*
X58129457Y-35171190D01*
X58129457Y-35171190D02*
X58167552Y-35247381D01*
X58167552Y-35247381D02*
X58205647Y-35285476D01*
X58205647Y-35285476D02*
X58281838Y-35323571D01*
X58281838Y-35323571D02*
X58472314Y-35323571D01*
X58472314Y-35323571D02*
X58548504Y-35285476D01*
X58548504Y-35285476D02*
X58586600Y-35247381D01*
X58586600Y-35247381D02*
X58624695Y-35171190D01*
X58624695Y-35171190D02*
X58624695Y-34980714D01*
X58624695Y-34980714D02*
X58586600Y-34904524D01*
X58586600Y-34904524D02*
X58548504Y-34866428D01*
X67608504Y-31121667D02*
X67646600Y-31083571D01*
X67646600Y-31083571D02*
X67684695Y-30969286D01*
X67684695Y-30969286D02*
X67684695Y-30893095D01*
X67684695Y-30893095D02*
X67646600Y-30778809D01*
X67646600Y-30778809D02*
X67570409Y-30702619D01*
X67570409Y-30702619D02*
X67494219Y-30664524D01*
X67494219Y-30664524D02*
X67341838Y-30626428D01*
X67341838Y-30626428D02*
X67227552Y-30626428D01*
X67227552Y-30626428D02*
X67075171Y-30664524D01*
X67075171Y-30664524D02*
X66998980Y-30702619D01*
X66998980Y-30702619D02*
X66922790Y-30778809D01*
X66922790Y-30778809D02*
X66884695Y-30893095D01*
X66884695Y-30893095D02*
X66884695Y-30969286D01*
X66884695Y-30969286D02*
X66922790Y-31083571D01*
X66922790Y-31083571D02*
X66960885Y-31121667D01*
X66884695Y-31807381D02*
X66884695Y-31655000D01*
X66884695Y-31655000D02*
X66922790Y-31578809D01*
X66922790Y-31578809D02*
X66960885Y-31540714D01*
X66960885Y-31540714D02*
X67075171Y-31464524D01*
X67075171Y-31464524D02*
X67227552Y-31426428D01*
X67227552Y-31426428D02*
X67532314Y-31426428D01*
X67532314Y-31426428D02*
X67608504Y-31464524D01*
X67608504Y-31464524D02*
X67646600Y-31502619D01*
X67646600Y-31502619D02*
X67684695Y-31578809D01*
X67684695Y-31578809D02*
X67684695Y-31731190D01*
X67684695Y-31731190D02*
X67646600Y-31807381D01*
X67646600Y-31807381D02*
X67608504Y-31845476D01*
X67608504Y-31845476D02*
X67532314Y-31883571D01*
X67532314Y-31883571D02*
X67341838Y-31883571D01*
X67341838Y-31883571D02*
X67265647Y-31845476D01*
X67265647Y-31845476D02*
X67227552Y-31807381D01*
X67227552Y-31807381D02*
X67189457Y-31731190D01*
X67189457Y-31731190D02*
X67189457Y-31578809D01*
X67189457Y-31578809D02*
X67227552Y-31502619D01*
X67227552Y-31502619D02*
X67265647Y-31464524D01*
X67265647Y-31464524D02*
X67341838Y-31426428D01*
X56928332Y-33398504D02*
X56966428Y-33436600D01*
X56966428Y-33436600D02*
X57080713Y-33474695D01*
X57080713Y-33474695D02*
X57156904Y-33474695D01*
X57156904Y-33474695D02*
X57271190Y-33436600D01*
X57271190Y-33436600D02*
X57347380Y-33360409D01*
X57347380Y-33360409D02*
X57385475Y-33284219D01*
X57385475Y-33284219D02*
X57423571Y-33131838D01*
X57423571Y-33131838D02*
X57423571Y-33017552D01*
X57423571Y-33017552D02*
X57385475Y-32865171D01*
X57385475Y-32865171D02*
X57347380Y-32788980D01*
X57347380Y-32788980D02*
X57271190Y-32712790D01*
X57271190Y-32712790D02*
X57156904Y-32674695D01*
X57156904Y-32674695D02*
X57080713Y-32674695D01*
X57080713Y-32674695D02*
X56966428Y-32712790D01*
X56966428Y-32712790D02*
X56928332Y-32750885D01*
X56166428Y-33474695D02*
X56623571Y-33474695D01*
X56394999Y-33474695D02*
X56394999Y-32674695D01*
X56394999Y-32674695D02*
X56471190Y-32788980D01*
X56471190Y-32788980D02*
X56547380Y-32865171D01*
X56547380Y-32865171D02*
X56623571Y-32903266D01*
X48953504Y-30151667D02*
X48991600Y-30113571D01*
X48991600Y-30113571D02*
X49029695Y-29999286D01*
X49029695Y-29999286D02*
X49029695Y-29923095D01*
X49029695Y-29923095D02*
X48991600Y-29808809D01*
X48991600Y-29808809D02*
X48915409Y-29732619D01*
X48915409Y-29732619D02*
X48839219Y-29694524D01*
X48839219Y-29694524D02*
X48686838Y-29656428D01*
X48686838Y-29656428D02*
X48572552Y-29656428D01*
X48572552Y-29656428D02*
X48420171Y-29694524D01*
X48420171Y-29694524D02*
X48343980Y-29732619D01*
X48343980Y-29732619D02*
X48267790Y-29808809D01*
X48267790Y-29808809D02*
X48229695Y-29923095D01*
X48229695Y-29923095D02*
X48229695Y-29999286D01*
X48229695Y-29999286D02*
X48267790Y-30113571D01*
X48267790Y-30113571D02*
X48305885Y-30151667D01*
X48496361Y-30837381D02*
X49029695Y-30837381D01*
X48191600Y-30646905D02*
X48763028Y-30456428D01*
X48763028Y-30456428D02*
X48763028Y-30951667D01*
X45893332Y-56683504D02*
X45931428Y-56721600D01*
X45931428Y-56721600D02*
X46045713Y-56759695D01*
X46045713Y-56759695D02*
X46121904Y-56759695D01*
X46121904Y-56759695D02*
X46236190Y-56721600D01*
X46236190Y-56721600D02*
X46312380Y-56645409D01*
X46312380Y-56645409D02*
X46350475Y-56569219D01*
X46350475Y-56569219D02*
X46388571Y-56416838D01*
X46388571Y-56416838D02*
X46388571Y-56302552D01*
X46388571Y-56302552D02*
X46350475Y-56150171D01*
X46350475Y-56150171D02*
X46312380Y-56073980D01*
X46312380Y-56073980D02*
X46236190Y-55997790D01*
X46236190Y-55997790D02*
X46121904Y-55959695D01*
X46121904Y-55959695D02*
X46045713Y-55959695D01*
X46045713Y-55959695D02*
X45931428Y-55997790D01*
X45931428Y-55997790D02*
X45893332Y-56035885D01*
X45588571Y-56035885D02*
X45550475Y-55997790D01*
X45550475Y-55997790D02*
X45474285Y-55959695D01*
X45474285Y-55959695D02*
X45283809Y-55959695D01*
X45283809Y-55959695D02*
X45207618Y-55997790D01*
X45207618Y-55997790D02*
X45169523Y-56035885D01*
X45169523Y-56035885D02*
X45131428Y-56112076D01*
X45131428Y-56112076D02*
X45131428Y-56188266D01*
X45131428Y-56188266D02*
X45169523Y-56302552D01*
X45169523Y-56302552D02*
X45626666Y-56759695D01*
X45626666Y-56759695D02*
X45131428Y-56759695D01*
X44083504Y-76530714D02*
X44121600Y-76492618D01*
X44121600Y-76492618D02*
X44159695Y-76378333D01*
X44159695Y-76378333D02*
X44159695Y-76302142D01*
X44159695Y-76302142D02*
X44121600Y-76187856D01*
X44121600Y-76187856D02*
X44045409Y-76111666D01*
X44045409Y-76111666D02*
X43969219Y-76073571D01*
X43969219Y-76073571D02*
X43816838Y-76035475D01*
X43816838Y-76035475D02*
X43702552Y-76035475D01*
X43702552Y-76035475D02*
X43550171Y-76073571D01*
X43550171Y-76073571D02*
X43473980Y-76111666D01*
X43473980Y-76111666D02*
X43397790Y-76187856D01*
X43397790Y-76187856D02*
X43359695Y-76302142D01*
X43359695Y-76302142D02*
X43359695Y-76378333D01*
X43359695Y-76378333D02*
X43397790Y-76492618D01*
X43397790Y-76492618D02*
X43435885Y-76530714D01*
X43435885Y-76835475D02*
X43397790Y-76873571D01*
X43397790Y-76873571D02*
X43359695Y-76949761D01*
X43359695Y-76949761D02*
X43359695Y-77140237D01*
X43359695Y-77140237D02*
X43397790Y-77216428D01*
X43397790Y-77216428D02*
X43435885Y-77254523D01*
X43435885Y-77254523D02*
X43512076Y-77292618D01*
X43512076Y-77292618D02*
X43588266Y-77292618D01*
X43588266Y-77292618D02*
X43702552Y-77254523D01*
X43702552Y-77254523D02*
X44159695Y-76797380D01*
X44159695Y-76797380D02*
X44159695Y-77292618D01*
X43359695Y-77559285D02*
X43359695Y-78054523D01*
X43359695Y-78054523D02*
X43664457Y-77787857D01*
X43664457Y-77787857D02*
X43664457Y-77902142D01*
X43664457Y-77902142D02*
X43702552Y-77978333D01*
X43702552Y-77978333D02*
X43740647Y-78016428D01*
X43740647Y-78016428D02*
X43816838Y-78054523D01*
X43816838Y-78054523D02*
X44007314Y-78054523D01*
X44007314Y-78054523D02*
X44083504Y-78016428D01*
X44083504Y-78016428D02*
X44121600Y-77978333D01*
X44121600Y-77978333D02*
X44159695Y-77902142D01*
X44159695Y-77902142D02*
X44159695Y-77673571D01*
X44159695Y-77673571D02*
X44121600Y-77597380D01*
X44121600Y-77597380D02*
X44083504Y-77559285D01*
X65383504Y-76475714D02*
X65421600Y-76437618D01*
X65421600Y-76437618D02*
X65459695Y-76323333D01*
X65459695Y-76323333D02*
X65459695Y-76247142D01*
X65459695Y-76247142D02*
X65421600Y-76132856D01*
X65421600Y-76132856D02*
X65345409Y-76056666D01*
X65345409Y-76056666D02*
X65269219Y-76018571D01*
X65269219Y-76018571D02*
X65116838Y-75980475D01*
X65116838Y-75980475D02*
X65002552Y-75980475D01*
X65002552Y-75980475D02*
X64850171Y-76018571D01*
X64850171Y-76018571D02*
X64773980Y-76056666D01*
X64773980Y-76056666D02*
X64697790Y-76132856D01*
X64697790Y-76132856D02*
X64659695Y-76247142D01*
X64659695Y-76247142D02*
X64659695Y-76323333D01*
X64659695Y-76323333D02*
X64697790Y-76437618D01*
X64697790Y-76437618D02*
X64735885Y-76475714D01*
X65459695Y-77237618D02*
X65459695Y-76780475D01*
X65459695Y-77009047D02*
X64659695Y-77009047D01*
X64659695Y-77009047D02*
X64773980Y-76932856D01*
X64773980Y-76932856D02*
X64850171Y-76856666D01*
X64850171Y-76856666D02*
X64888266Y-76780475D01*
X65459695Y-77999523D02*
X65459695Y-77542380D01*
X65459695Y-77770952D02*
X64659695Y-77770952D01*
X64659695Y-77770952D02*
X64773980Y-77694761D01*
X64773980Y-77694761D02*
X64850171Y-77618571D01*
X64850171Y-77618571D02*
X64888266Y-77542380D01*
X49383504Y-45875714D02*
X49421600Y-45837618D01*
X49421600Y-45837618D02*
X49459695Y-45723333D01*
X49459695Y-45723333D02*
X49459695Y-45647142D01*
X49459695Y-45647142D02*
X49421600Y-45532856D01*
X49421600Y-45532856D02*
X49345409Y-45456666D01*
X49345409Y-45456666D02*
X49269219Y-45418571D01*
X49269219Y-45418571D02*
X49116838Y-45380475D01*
X49116838Y-45380475D02*
X49002552Y-45380475D01*
X49002552Y-45380475D02*
X48850171Y-45418571D01*
X48850171Y-45418571D02*
X48773980Y-45456666D01*
X48773980Y-45456666D02*
X48697790Y-45532856D01*
X48697790Y-45532856D02*
X48659695Y-45647142D01*
X48659695Y-45647142D02*
X48659695Y-45723333D01*
X48659695Y-45723333D02*
X48697790Y-45837618D01*
X48697790Y-45837618D02*
X48735885Y-45875714D01*
X49459695Y-46637618D02*
X49459695Y-46180475D01*
X49459695Y-46409047D02*
X48659695Y-46409047D01*
X48659695Y-46409047D02*
X48773980Y-46332856D01*
X48773980Y-46332856D02*
X48850171Y-46256666D01*
X48850171Y-46256666D02*
X48888266Y-46180475D01*
X48659695Y-47323333D02*
X48659695Y-47170952D01*
X48659695Y-47170952D02*
X48697790Y-47094761D01*
X48697790Y-47094761D02*
X48735885Y-47056666D01*
X48735885Y-47056666D02*
X48850171Y-46980476D01*
X48850171Y-46980476D02*
X49002552Y-46942380D01*
X49002552Y-46942380D02*
X49307314Y-46942380D01*
X49307314Y-46942380D02*
X49383504Y-46980476D01*
X49383504Y-46980476D02*
X49421600Y-47018571D01*
X49421600Y-47018571D02*
X49459695Y-47094761D01*
X49459695Y-47094761D02*
X49459695Y-47247142D01*
X49459695Y-47247142D02*
X49421600Y-47323333D01*
X49421600Y-47323333D02*
X49383504Y-47361428D01*
X49383504Y-47361428D02*
X49307314Y-47399523D01*
X49307314Y-47399523D02*
X49116838Y-47399523D01*
X49116838Y-47399523D02*
X49040647Y-47361428D01*
X49040647Y-47361428D02*
X49002552Y-47323333D01*
X49002552Y-47323333D02*
X48964457Y-47247142D01*
X48964457Y-47247142D02*
X48964457Y-47094761D01*
X48964457Y-47094761D02*
X49002552Y-47018571D01*
X49002552Y-47018571D02*
X49040647Y-46980476D01*
X49040647Y-46980476D02*
X49116838Y-46942380D01*
X70683504Y-45885714D02*
X70721600Y-45847618D01*
X70721600Y-45847618D02*
X70759695Y-45733333D01*
X70759695Y-45733333D02*
X70759695Y-45657142D01*
X70759695Y-45657142D02*
X70721600Y-45542856D01*
X70721600Y-45542856D02*
X70645409Y-45466666D01*
X70645409Y-45466666D02*
X70569219Y-45428571D01*
X70569219Y-45428571D02*
X70416838Y-45390475D01*
X70416838Y-45390475D02*
X70302552Y-45390475D01*
X70302552Y-45390475D02*
X70150171Y-45428571D01*
X70150171Y-45428571D02*
X70073980Y-45466666D01*
X70073980Y-45466666D02*
X69997790Y-45542856D01*
X69997790Y-45542856D02*
X69959695Y-45657142D01*
X69959695Y-45657142D02*
X69959695Y-45733333D01*
X69959695Y-45733333D02*
X69997790Y-45847618D01*
X69997790Y-45847618D02*
X70035885Y-45885714D01*
X70035885Y-46190475D02*
X69997790Y-46228571D01*
X69997790Y-46228571D02*
X69959695Y-46304761D01*
X69959695Y-46304761D02*
X69959695Y-46495237D01*
X69959695Y-46495237D02*
X69997790Y-46571428D01*
X69997790Y-46571428D02*
X70035885Y-46609523D01*
X70035885Y-46609523D02*
X70112076Y-46647618D01*
X70112076Y-46647618D02*
X70188266Y-46647618D01*
X70188266Y-46647618D02*
X70302552Y-46609523D01*
X70302552Y-46609523D02*
X70759695Y-46152380D01*
X70759695Y-46152380D02*
X70759695Y-46647618D01*
X69959695Y-47142857D02*
X69959695Y-47219047D01*
X69959695Y-47219047D02*
X69997790Y-47295238D01*
X69997790Y-47295238D02*
X70035885Y-47333333D01*
X70035885Y-47333333D02*
X70112076Y-47371428D01*
X70112076Y-47371428D02*
X70264457Y-47409523D01*
X70264457Y-47409523D02*
X70454933Y-47409523D01*
X70454933Y-47409523D02*
X70607314Y-47371428D01*
X70607314Y-47371428D02*
X70683504Y-47333333D01*
X70683504Y-47333333D02*
X70721600Y-47295238D01*
X70721600Y-47295238D02*
X70759695Y-47219047D01*
X70759695Y-47219047D02*
X70759695Y-47142857D01*
X70759695Y-47142857D02*
X70721600Y-47066666D01*
X70721600Y-47066666D02*
X70683504Y-47028571D01*
X70683504Y-47028571D02*
X70607314Y-46990476D01*
X70607314Y-46990476D02*
X70454933Y-46952380D01*
X70454933Y-46952380D02*
X70264457Y-46952380D01*
X70264457Y-46952380D02*
X70112076Y-46990476D01*
X70112076Y-46990476D02*
X70035885Y-47028571D01*
X70035885Y-47028571D02*
X69997790Y-47066666D01*
X69997790Y-47066666D02*
X69959695Y-47142857D01*
X44083504Y-40285714D02*
X44121600Y-40247618D01*
X44121600Y-40247618D02*
X44159695Y-40133333D01*
X44159695Y-40133333D02*
X44159695Y-40057142D01*
X44159695Y-40057142D02*
X44121600Y-39942856D01*
X44121600Y-39942856D02*
X44045409Y-39866666D01*
X44045409Y-39866666D02*
X43969219Y-39828571D01*
X43969219Y-39828571D02*
X43816838Y-39790475D01*
X43816838Y-39790475D02*
X43702552Y-39790475D01*
X43702552Y-39790475D02*
X43550171Y-39828571D01*
X43550171Y-39828571D02*
X43473980Y-39866666D01*
X43473980Y-39866666D02*
X43397790Y-39942856D01*
X43397790Y-39942856D02*
X43359695Y-40057142D01*
X43359695Y-40057142D02*
X43359695Y-40133333D01*
X43359695Y-40133333D02*
X43397790Y-40247618D01*
X43397790Y-40247618D02*
X43435885Y-40285714D01*
X44159695Y-41047618D02*
X44159695Y-40590475D01*
X44159695Y-40819047D02*
X43359695Y-40819047D01*
X43359695Y-40819047D02*
X43473980Y-40742856D01*
X43473980Y-40742856D02*
X43550171Y-40666666D01*
X43550171Y-40666666D02*
X43588266Y-40590475D01*
X43626361Y-41733333D02*
X44159695Y-41733333D01*
X43321600Y-41542857D02*
X43893028Y-41352380D01*
X43893028Y-41352380D02*
X43893028Y-41847619D01*
X45893332Y-59193504D02*
X45931428Y-59231600D01*
X45931428Y-59231600D02*
X46045713Y-59269695D01*
X46045713Y-59269695D02*
X46121904Y-59269695D01*
X46121904Y-59269695D02*
X46236190Y-59231600D01*
X46236190Y-59231600D02*
X46312380Y-59155409D01*
X46312380Y-59155409D02*
X46350475Y-59079219D01*
X46350475Y-59079219D02*
X46388571Y-58926838D01*
X46388571Y-58926838D02*
X46388571Y-58812552D01*
X46388571Y-58812552D02*
X46350475Y-58660171D01*
X46350475Y-58660171D02*
X46312380Y-58583980D01*
X46312380Y-58583980D02*
X46236190Y-58507790D01*
X46236190Y-58507790D02*
X46121904Y-58469695D01*
X46121904Y-58469695D02*
X46045713Y-58469695D01*
X46045713Y-58469695D02*
X45931428Y-58507790D01*
X45931428Y-58507790D02*
X45893332Y-58545885D01*
X45626666Y-58469695D02*
X45131428Y-58469695D01*
X45131428Y-58469695D02*
X45398094Y-58774457D01*
X45398094Y-58774457D02*
X45283809Y-58774457D01*
X45283809Y-58774457D02*
X45207618Y-58812552D01*
X45207618Y-58812552D02*
X45169523Y-58850647D01*
X45169523Y-58850647D02*
X45131428Y-58926838D01*
X45131428Y-58926838D02*
X45131428Y-59117314D01*
X45131428Y-59117314D02*
X45169523Y-59193504D01*
X45169523Y-59193504D02*
X45207618Y-59231600D01*
X45207618Y-59231600D02*
X45283809Y-59269695D01*
X45283809Y-59269695D02*
X45512380Y-59269695D01*
X45512380Y-59269695D02*
X45588571Y-59231600D01*
X45588571Y-59231600D02*
X45626666Y-59193504D01*
X49383504Y-40285714D02*
X49421600Y-40247618D01*
X49421600Y-40247618D02*
X49459695Y-40133333D01*
X49459695Y-40133333D02*
X49459695Y-40057142D01*
X49459695Y-40057142D02*
X49421600Y-39942856D01*
X49421600Y-39942856D02*
X49345409Y-39866666D01*
X49345409Y-39866666D02*
X49269219Y-39828571D01*
X49269219Y-39828571D02*
X49116838Y-39790475D01*
X49116838Y-39790475D02*
X49002552Y-39790475D01*
X49002552Y-39790475D02*
X48850171Y-39828571D01*
X48850171Y-39828571D02*
X48773980Y-39866666D01*
X48773980Y-39866666D02*
X48697790Y-39942856D01*
X48697790Y-39942856D02*
X48659695Y-40057142D01*
X48659695Y-40057142D02*
X48659695Y-40133333D01*
X48659695Y-40133333D02*
X48697790Y-40247618D01*
X48697790Y-40247618D02*
X48735885Y-40285714D01*
X49459695Y-41047618D02*
X49459695Y-40590475D01*
X49459695Y-40819047D02*
X48659695Y-40819047D01*
X48659695Y-40819047D02*
X48773980Y-40742856D01*
X48773980Y-40742856D02*
X48850171Y-40666666D01*
X48850171Y-40666666D02*
X48888266Y-40590475D01*
X48659695Y-41771428D02*
X48659695Y-41390476D01*
X48659695Y-41390476D02*
X49040647Y-41352380D01*
X49040647Y-41352380D02*
X49002552Y-41390476D01*
X49002552Y-41390476D02*
X48964457Y-41466666D01*
X48964457Y-41466666D02*
X48964457Y-41657142D01*
X48964457Y-41657142D02*
X49002552Y-41733333D01*
X49002552Y-41733333D02*
X49040647Y-41771428D01*
X49040647Y-41771428D02*
X49116838Y-41809523D01*
X49116838Y-41809523D02*
X49307314Y-41809523D01*
X49307314Y-41809523D02*
X49383504Y-41771428D01*
X49383504Y-41771428D02*
X49421600Y-41733333D01*
X49421600Y-41733333D02*
X49459695Y-41657142D01*
X49459695Y-41657142D02*
X49459695Y-41466666D01*
X49459695Y-41466666D02*
X49421600Y-41390476D01*
X49421600Y-41390476D02*
X49383504Y-41352380D01*
X70683504Y-40345714D02*
X70721600Y-40307618D01*
X70721600Y-40307618D02*
X70759695Y-40193333D01*
X70759695Y-40193333D02*
X70759695Y-40117142D01*
X70759695Y-40117142D02*
X70721600Y-40002856D01*
X70721600Y-40002856D02*
X70645409Y-39926666D01*
X70645409Y-39926666D02*
X70569219Y-39888571D01*
X70569219Y-39888571D02*
X70416838Y-39850475D01*
X70416838Y-39850475D02*
X70302552Y-39850475D01*
X70302552Y-39850475D02*
X70150171Y-39888571D01*
X70150171Y-39888571D02*
X70073980Y-39926666D01*
X70073980Y-39926666D02*
X69997790Y-40002856D01*
X69997790Y-40002856D02*
X69959695Y-40117142D01*
X69959695Y-40117142D02*
X69959695Y-40193333D01*
X69959695Y-40193333D02*
X69997790Y-40307618D01*
X69997790Y-40307618D02*
X70035885Y-40345714D01*
X70759695Y-41107618D02*
X70759695Y-40650475D01*
X70759695Y-40879047D02*
X69959695Y-40879047D01*
X69959695Y-40879047D02*
X70073980Y-40802856D01*
X70073980Y-40802856D02*
X70150171Y-40726666D01*
X70150171Y-40726666D02*
X70188266Y-40650475D01*
X70302552Y-41564761D02*
X70264457Y-41488571D01*
X70264457Y-41488571D02*
X70226361Y-41450476D01*
X70226361Y-41450476D02*
X70150171Y-41412380D01*
X70150171Y-41412380D02*
X70112076Y-41412380D01*
X70112076Y-41412380D02*
X70035885Y-41450476D01*
X70035885Y-41450476D02*
X69997790Y-41488571D01*
X69997790Y-41488571D02*
X69959695Y-41564761D01*
X69959695Y-41564761D02*
X69959695Y-41717142D01*
X69959695Y-41717142D02*
X69997790Y-41793333D01*
X69997790Y-41793333D02*
X70035885Y-41831428D01*
X70035885Y-41831428D02*
X70112076Y-41869523D01*
X70112076Y-41869523D02*
X70150171Y-41869523D01*
X70150171Y-41869523D02*
X70226361Y-41831428D01*
X70226361Y-41831428D02*
X70264457Y-41793333D01*
X70264457Y-41793333D02*
X70302552Y-41717142D01*
X70302552Y-41717142D02*
X70302552Y-41564761D01*
X70302552Y-41564761D02*
X70340647Y-41488571D01*
X70340647Y-41488571D02*
X70378742Y-41450476D01*
X70378742Y-41450476D02*
X70454933Y-41412380D01*
X70454933Y-41412380D02*
X70607314Y-41412380D01*
X70607314Y-41412380D02*
X70683504Y-41450476D01*
X70683504Y-41450476D02*
X70721600Y-41488571D01*
X70721600Y-41488571D02*
X70759695Y-41564761D01*
X70759695Y-41564761D02*
X70759695Y-41717142D01*
X70759695Y-41717142D02*
X70721600Y-41793333D01*
X70721600Y-41793333D02*
X70683504Y-41831428D01*
X70683504Y-41831428D02*
X70607314Y-41869523D01*
X70607314Y-41869523D02*
X70454933Y-41869523D01*
X70454933Y-41869523D02*
X70378742Y-41831428D01*
X70378742Y-41831428D02*
X70340647Y-41793333D01*
X70340647Y-41793333D02*
X70302552Y-41717142D01*
X49483504Y-70868214D02*
X49521600Y-70830118D01*
X49521600Y-70830118D02*
X49559695Y-70715833D01*
X49559695Y-70715833D02*
X49559695Y-70639642D01*
X49559695Y-70639642D02*
X49521600Y-70525356D01*
X49521600Y-70525356D02*
X49445409Y-70449166D01*
X49445409Y-70449166D02*
X49369219Y-70411071D01*
X49369219Y-70411071D02*
X49216838Y-70372975D01*
X49216838Y-70372975D02*
X49102552Y-70372975D01*
X49102552Y-70372975D02*
X48950171Y-70411071D01*
X48950171Y-70411071D02*
X48873980Y-70449166D01*
X48873980Y-70449166D02*
X48797790Y-70525356D01*
X48797790Y-70525356D02*
X48759695Y-70639642D01*
X48759695Y-70639642D02*
X48759695Y-70715833D01*
X48759695Y-70715833D02*
X48797790Y-70830118D01*
X48797790Y-70830118D02*
X48835885Y-70868214D01*
X48835885Y-71172975D02*
X48797790Y-71211071D01*
X48797790Y-71211071D02*
X48759695Y-71287261D01*
X48759695Y-71287261D02*
X48759695Y-71477737D01*
X48759695Y-71477737D02*
X48797790Y-71553928D01*
X48797790Y-71553928D02*
X48835885Y-71592023D01*
X48835885Y-71592023D02*
X48912076Y-71630118D01*
X48912076Y-71630118D02*
X48988266Y-71630118D01*
X48988266Y-71630118D02*
X49102552Y-71592023D01*
X49102552Y-71592023D02*
X49559695Y-71134880D01*
X49559695Y-71134880D02*
X49559695Y-71630118D01*
X48835885Y-71934880D02*
X48797790Y-71972976D01*
X48797790Y-71972976D02*
X48759695Y-72049166D01*
X48759695Y-72049166D02*
X48759695Y-72239642D01*
X48759695Y-72239642D02*
X48797790Y-72315833D01*
X48797790Y-72315833D02*
X48835885Y-72353928D01*
X48835885Y-72353928D02*
X48912076Y-72392023D01*
X48912076Y-72392023D02*
X48988266Y-72392023D01*
X48988266Y-72392023D02*
X49102552Y-72353928D01*
X49102552Y-72353928D02*
X49559695Y-71896785D01*
X49559695Y-71896785D02*
X49559695Y-72392023D01*
X65383504Y-45890714D02*
X65421600Y-45852618D01*
X65421600Y-45852618D02*
X65459695Y-45738333D01*
X65459695Y-45738333D02*
X65459695Y-45662142D01*
X65459695Y-45662142D02*
X65421600Y-45547856D01*
X65421600Y-45547856D02*
X65345409Y-45471666D01*
X65345409Y-45471666D02*
X65269219Y-45433571D01*
X65269219Y-45433571D02*
X65116838Y-45395475D01*
X65116838Y-45395475D02*
X65002552Y-45395475D01*
X65002552Y-45395475D02*
X64850171Y-45433571D01*
X64850171Y-45433571D02*
X64773980Y-45471666D01*
X64773980Y-45471666D02*
X64697790Y-45547856D01*
X64697790Y-45547856D02*
X64659695Y-45662142D01*
X64659695Y-45662142D02*
X64659695Y-45738333D01*
X64659695Y-45738333D02*
X64697790Y-45852618D01*
X64697790Y-45852618D02*
X64735885Y-45890714D01*
X65459695Y-46652618D02*
X65459695Y-46195475D01*
X65459695Y-46424047D02*
X64659695Y-46424047D01*
X64659695Y-46424047D02*
X64773980Y-46347856D01*
X64773980Y-46347856D02*
X64850171Y-46271666D01*
X64850171Y-46271666D02*
X64888266Y-46195475D01*
X65459695Y-47033571D02*
X65459695Y-47185952D01*
X65459695Y-47185952D02*
X65421600Y-47262142D01*
X65421600Y-47262142D02*
X65383504Y-47300238D01*
X65383504Y-47300238D02*
X65269219Y-47376428D01*
X65269219Y-47376428D02*
X65116838Y-47414523D01*
X65116838Y-47414523D02*
X64812076Y-47414523D01*
X64812076Y-47414523D02*
X64735885Y-47376428D01*
X64735885Y-47376428D02*
X64697790Y-47338333D01*
X64697790Y-47338333D02*
X64659695Y-47262142D01*
X64659695Y-47262142D02*
X64659695Y-47109761D01*
X64659695Y-47109761D02*
X64697790Y-47033571D01*
X64697790Y-47033571D02*
X64735885Y-46995476D01*
X64735885Y-46995476D02*
X64812076Y-46957380D01*
X64812076Y-46957380D02*
X65002552Y-46957380D01*
X65002552Y-46957380D02*
X65078742Y-46995476D01*
X65078742Y-46995476D02*
X65116838Y-47033571D01*
X65116838Y-47033571D02*
X65154933Y-47109761D01*
X65154933Y-47109761D02*
X65154933Y-47262142D01*
X65154933Y-47262142D02*
X65116838Y-47338333D01*
X65116838Y-47338333D02*
X65078742Y-47376428D01*
X65078742Y-47376428D02*
X65002552Y-47414523D01*
X44083504Y-70865714D02*
X44121600Y-70827618D01*
X44121600Y-70827618D02*
X44159695Y-70713333D01*
X44159695Y-70713333D02*
X44159695Y-70637142D01*
X44159695Y-70637142D02*
X44121600Y-70522856D01*
X44121600Y-70522856D02*
X44045409Y-70446666D01*
X44045409Y-70446666D02*
X43969219Y-70408571D01*
X43969219Y-70408571D02*
X43816838Y-70370475D01*
X43816838Y-70370475D02*
X43702552Y-70370475D01*
X43702552Y-70370475D02*
X43550171Y-70408571D01*
X43550171Y-70408571D02*
X43473980Y-70446666D01*
X43473980Y-70446666D02*
X43397790Y-70522856D01*
X43397790Y-70522856D02*
X43359695Y-70637142D01*
X43359695Y-70637142D02*
X43359695Y-70713333D01*
X43359695Y-70713333D02*
X43397790Y-70827618D01*
X43397790Y-70827618D02*
X43435885Y-70865714D01*
X43435885Y-71170475D02*
X43397790Y-71208571D01*
X43397790Y-71208571D02*
X43359695Y-71284761D01*
X43359695Y-71284761D02*
X43359695Y-71475237D01*
X43359695Y-71475237D02*
X43397790Y-71551428D01*
X43397790Y-71551428D02*
X43435885Y-71589523D01*
X43435885Y-71589523D02*
X43512076Y-71627618D01*
X43512076Y-71627618D02*
X43588266Y-71627618D01*
X43588266Y-71627618D02*
X43702552Y-71589523D01*
X43702552Y-71589523D02*
X44159695Y-71132380D01*
X44159695Y-71132380D02*
X44159695Y-71627618D01*
X44159695Y-72389523D02*
X44159695Y-71932380D01*
X44159695Y-72160952D02*
X43359695Y-72160952D01*
X43359695Y-72160952D02*
X43473980Y-72084761D01*
X43473980Y-72084761D02*
X43550171Y-72008571D01*
X43550171Y-72008571D02*
X43588266Y-71932380D01*
X65383504Y-71256667D02*
X65421600Y-71218571D01*
X65421600Y-71218571D02*
X65459695Y-71104286D01*
X65459695Y-71104286D02*
X65459695Y-71028095D01*
X65459695Y-71028095D02*
X65421600Y-70913809D01*
X65421600Y-70913809D02*
X65345409Y-70837619D01*
X65345409Y-70837619D02*
X65269219Y-70799524D01*
X65269219Y-70799524D02*
X65116838Y-70761428D01*
X65116838Y-70761428D02*
X65002552Y-70761428D01*
X65002552Y-70761428D02*
X64850171Y-70799524D01*
X64850171Y-70799524D02*
X64773980Y-70837619D01*
X64773980Y-70837619D02*
X64697790Y-70913809D01*
X64697790Y-70913809D02*
X64659695Y-71028095D01*
X64659695Y-71028095D02*
X64659695Y-71104286D01*
X64659695Y-71104286D02*
X64697790Y-71218571D01*
X64697790Y-71218571D02*
X64735885Y-71256667D01*
X65459695Y-71637619D02*
X65459695Y-71790000D01*
X65459695Y-71790000D02*
X65421600Y-71866190D01*
X65421600Y-71866190D02*
X65383504Y-71904286D01*
X65383504Y-71904286D02*
X65269219Y-71980476D01*
X65269219Y-71980476D02*
X65116838Y-72018571D01*
X65116838Y-72018571D02*
X64812076Y-72018571D01*
X64812076Y-72018571D02*
X64735885Y-71980476D01*
X64735885Y-71980476D02*
X64697790Y-71942381D01*
X64697790Y-71942381D02*
X64659695Y-71866190D01*
X64659695Y-71866190D02*
X64659695Y-71713809D01*
X64659695Y-71713809D02*
X64697790Y-71637619D01*
X64697790Y-71637619D02*
X64735885Y-71599524D01*
X64735885Y-71599524D02*
X64812076Y-71561428D01*
X64812076Y-71561428D02*
X65002552Y-71561428D01*
X65002552Y-71561428D02*
X65078742Y-71599524D01*
X65078742Y-71599524D02*
X65116838Y-71637619D01*
X65116838Y-71637619D02*
X65154933Y-71713809D01*
X65154933Y-71713809D02*
X65154933Y-71866190D01*
X65154933Y-71866190D02*
X65116838Y-71942381D01*
X65116838Y-71942381D02*
X65078742Y-71980476D01*
X65078742Y-71980476D02*
X65002552Y-72018571D01*
X70683504Y-76435714D02*
X70721600Y-76397618D01*
X70721600Y-76397618D02*
X70759695Y-76283333D01*
X70759695Y-76283333D02*
X70759695Y-76207142D01*
X70759695Y-76207142D02*
X70721600Y-76092856D01*
X70721600Y-76092856D02*
X70645409Y-76016666D01*
X70645409Y-76016666D02*
X70569219Y-75978571D01*
X70569219Y-75978571D02*
X70416838Y-75940475D01*
X70416838Y-75940475D02*
X70302552Y-75940475D01*
X70302552Y-75940475D02*
X70150171Y-75978571D01*
X70150171Y-75978571D02*
X70073980Y-76016666D01*
X70073980Y-76016666D02*
X69997790Y-76092856D01*
X69997790Y-76092856D02*
X69959695Y-76207142D01*
X69959695Y-76207142D02*
X69959695Y-76283333D01*
X69959695Y-76283333D02*
X69997790Y-76397618D01*
X69997790Y-76397618D02*
X70035885Y-76435714D01*
X70759695Y-77197618D02*
X70759695Y-76740475D01*
X70759695Y-76969047D02*
X69959695Y-76969047D01*
X69959695Y-76969047D02*
X70073980Y-76892856D01*
X70073980Y-76892856D02*
X70150171Y-76816666D01*
X70150171Y-76816666D02*
X70188266Y-76740475D01*
X70035885Y-77502380D02*
X69997790Y-77540476D01*
X69997790Y-77540476D02*
X69959695Y-77616666D01*
X69959695Y-77616666D02*
X69959695Y-77807142D01*
X69959695Y-77807142D02*
X69997790Y-77883333D01*
X69997790Y-77883333D02*
X70035885Y-77921428D01*
X70035885Y-77921428D02*
X70112076Y-77959523D01*
X70112076Y-77959523D02*
X70188266Y-77959523D01*
X70188266Y-77959523D02*
X70302552Y-77921428D01*
X70302552Y-77921428D02*
X70759695Y-77464285D01*
X70759695Y-77464285D02*
X70759695Y-77959523D01*
X44083504Y-45885714D02*
X44121600Y-45847618D01*
X44121600Y-45847618D02*
X44159695Y-45733333D01*
X44159695Y-45733333D02*
X44159695Y-45657142D01*
X44159695Y-45657142D02*
X44121600Y-45542856D01*
X44121600Y-45542856D02*
X44045409Y-45466666D01*
X44045409Y-45466666D02*
X43969219Y-45428571D01*
X43969219Y-45428571D02*
X43816838Y-45390475D01*
X43816838Y-45390475D02*
X43702552Y-45390475D01*
X43702552Y-45390475D02*
X43550171Y-45428571D01*
X43550171Y-45428571D02*
X43473980Y-45466666D01*
X43473980Y-45466666D02*
X43397790Y-45542856D01*
X43397790Y-45542856D02*
X43359695Y-45657142D01*
X43359695Y-45657142D02*
X43359695Y-45733333D01*
X43359695Y-45733333D02*
X43397790Y-45847618D01*
X43397790Y-45847618D02*
X43435885Y-45885714D01*
X44159695Y-46647618D02*
X44159695Y-46190475D01*
X44159695Y-46419047D02*
X43359695Y-46419047D01*
X43359695Y-46419047D02*
X43473980Y-46342856D01*
X43473980Y-46342856D02*
X43550171Y-46266666D01*
X43550171Y-46266666D02*
X43588266Y-46190475D01*
X43359695Y-46914285D02*
X43359695Y-47409523D01*
X43359695Y-47409523D02*
X43664457Y-47142857D01*
X43664457Y-47142857D02*
X43664457Y-47257142D01*
X43664457Y-47257142D02*
X43702552Y-47333333D01*
X43702552Y-47333333D02*
X43740647Y-47371428D01*
X43740647Y-47371428D02*
X43816838Y-47409523D01*
X43816838Y-47409523D02*
X44007314Y-47409523D01*
X44007314Y-47409523D02*
X44083504Y-47371428D01*
X44083504Y-47371428D02*
X44121600Y-47333333D01*
X44121600Y-47333333D02*
X44159695Y-47257142D01*
X44159695Y-47257142D02*
X44159695Y-47028571D01*
X44159695Y-47028571D02*
X44121600Y-46952380D01*
X44121600Y-46952380D02*
X44083504Y-46914285D01*
X49483504Y-76510714D02*
X49521600Y-76472618D01*
X49521600Y-76472618D02*
X49559695Y-76358333D01*
X49559695Y-76358333D02*
X49559695Y-76282142D01*
X49559695Y-76282142D02*
X49521600Y-76167856D01*
X49521600Y-76167856D02*
X49445409Y-76091666D01*
X49445409Y-76091666D02*
X49369219Y-76053571D01*
X49369219Y-76053571D02*
X49216838Y-76015475D01*
X49216838Y-76015475D02*
X49102552Y-76015475D01*
X49102552Y-76015475D02*
X48950171Y-76053571D01*
X48950171Y-76053571D02*
X48873980Y-76091666D01*
X48873980Y-76091666D02*
X48797790Y-76167856D01*
X48797790Y-76167856D02*
X48759695Y-76282142D01*
X48759695Y-76282142D02*
X48759695Y-76358333D01*
X48759695Y-76358333D02*
X48797790Y-76472618D01*
X48797790Y-76472618D02*
X48835885Y-76510714D01*
X48835885Y-76815475D02*
X48797790Y-76853571D01*
X48797790Y-76853571D02*
X48759695Y-76929761D01*
X48759695Y-76929761D02*
X48759695Y-77120237D01*
X48759695Y-77120237D02*
X48797790Y-77196428D01*
X48797790Y-77196428D02*
X48835885Y-77234523D01*
X48835885Y-77234523D02*
X48912076Y-77272618D01*
X48912076Y-77272618D02*
X48988266Y-77272618D01*
X48988266Y-77272618D02*
X49102552Y-77234523D01*
X49102552Y-77234523D02*
X49559695Y-76777380D01*
X49559695Y-76777380D02*
X49559695Y-77272618D01*
X49026361Y-77958333D02*
X49559695Y-77958333D01*
X48721600Y-77767857D02*
X49293028Y-77577380D01*
X49293028Y-77577380D02*
X49293028Y-78072619D01*
X65383504Y-40285714D02*
X65421600Y-40247618D01*
X65421600Y-40247618D02*
X65459695Y-40133333D01*
X65459695Y-40133333D02*
X65459695Y-40057142D01*
X65459695Y-40057142D02*
X65421600Y-39942856D01*
X65421600Y-39942856D02*
X65345409Y-39866666D01*
X65345409Y-39866666D02*
X65269219Y-39828571D01*
X65269219Y-39828571D02*
X65116838Y-39790475D01*
X65116838Y-39790475D02*
X65002552Y-39790475D01*
X65002552Y-39790475D02*
X64850171Y-39828571D01*
X64850171Y-39828571D02*
X64773980Y-39866666D01*
X64773980Y-39866666D02*
X64697790Y-39942856D01*
X64697790Y-39942856D02*
X64659695Y-40057142D01*
X64659695Y-40057142D02*
X64659695Y-40133333D01*
X64659695Y-40133333D02*
X64697790Y-40247618D01*
X64697790Y-40247618D02*
X64735885Y-40285714D01*
X65459695Y-41047618D02*
X65459695Y-40590475D01*
X65459695Y-40819047D02*
X64659695Y-40819047D01*
X64659695Y-40819047D02*
X64773980Y-40742856D01*
X64773980Y-40742856D02*
X64850171Y-40666666D01*
X64850171Y-40666666D02*
X64888266Y-40590475D01*
X64659695Y-41314285D02*
X64659695Y-41847619D01*
X64659695Y-41847619D02*
X65459695Y-41504761D01*
X70683504Y-70845714D02*
X70721600Y-70807618D01*
X70721600Y-70807618D02*
X70759695Y-70693333D01*
X70759695Y-70693333D02*
X70759695Y-70617142D01*
X70759695Y-70617142D02*
X70721600Y-70502856D01*
X70721600Y-70502856D02*
X70645409Y-70426666D01*
X70645409Y-70426666D02*
X70569219Y-70388571D01*
X70569219Y-70388571D02*
X70416838Y-70350475D01*
X70416838Y-70350475D02*
X70302552Y-70350475D01*
X70302552Y-70350475D02*
X70150171Y-70388571D01*
X70150171Y-70388571D02*
X70073980Y-70426666D01*
X70073980Y-70426666D02*
X69997790Y-70502856D01*
X69997790Y-70502856D02*
X69959695Y-70617142D01*
X69959695Y-70617142D02*
X69959695Y-70693333D01*
X69959695Y-70693333D02*
X69997790Y-70807618D01*
X69997790Y-70807618D02*
X70035885Y-70845714D01*
X70759695Y-71607618D02*
X70759695Y-71150475D01*
X70759695Y-71379047D02*
X69959695Y-71379047D01*
X69959695Y-71379047D02*
X70073980Y-71302856D01*
X70073980Y-71302856D02*
X70150171Y-71226666D01*
X70150171Y-71226666D02*
X70188266Y-71150475D01*
X69959695Y-72102857D02*
X69959695Y-72179047D01*
X69959695Y-72179047D02*
X69997790Y-72255238D01*
X69997790Y-72255238D02*
X70035885Y-72293333D01*
X70035885Y-72293333D02*
X70112076Y-72331428D01*
X70112076Y-72331428D02*
X70264457Y-72369523D01*
X70264457Y-72369523D02*
X70454933Y-72369523D01*
X70454933Y-72369523D02*
X70607314Y-72331428D01*
X70607314Y-72331428D02*
X70683504Y-72293333D01*
X70683504Y-72293333D02*
X70721600Y-72255238D01*
X70721600Y-72255238D02*
X70759695Y-72179047D01*
X70759695Y-72179047D02*
X70759695Y-72102857D01*
X70759695Y-72102857D02*
X70721600Y-72026666D01*
X70721600Y-72026666D02*
X70683504Y-71988571D01*
X70683504Y-71988571D02*
X70607314Y-71950476D01*
X70607314Y-71950476D02*
X70454933Y-71912380D01*
X70454933Y-71912380D02*
X70264457Y-71912380D01*
X70264457Y-71912380D02*
X70112076Y-71950476D01*
X70112076Y-71950476D02*
X70035885Y-71988571D01*
X70035885Y-71988571D02*
X69997790Y-72026666D01*
X69997790Y-72026666D02*
X69959695Y-72102857D01*
D11*
%TO.C,C5*%
X58755000Y-37320580D02*
X58755000Y-37039420D01*
X57735000Y-37320580D02*
X57735000Y-37039420D01*
%TO.C,C6*%
X66405000Y-31114420D02*
X66405000Y-31395580D01*
X65385000Y-31114420D02*
X65385000Y-31395580D01*
%TO.C,C1*%
X56654420Y-31105000D02*
X56935580Y-31105000D01*
X56654420Y-32125000D02*
X56935580Y-32125000D01*
%TO.C,C4*%
X47780000Y-30450580D02*
X47780000Y-30169420D01*
X46760000Y-30450580D02*
X46760000Y-30169420D01*
%TO.C,C2*%
X42516252Y-55465000D02*
X41093748Y-55465000D01*
X42516252Y-57285000D02*
X41093748Y-57285000D01*
%TO.C,C23*%
X45080000Y-77185580D02*
X45080000Y-76904420D01*
X46100000Y-77185580D02*
X46100000Y-76904420D01*
%TO.C,C11*%
X66395000Y-77110580D02*
X66395000Y-76829420D01*
X67415000Y-77110580D02*
X67415000Y-76829420D01*
%TO.C,C16*%
X46685000Y-46525580D02*
X46685000Y-46244420D01*
X47705000Y-46525580D02*
X47705000Y-46244420D01*
%TO.C,C20*%
X69110000Y-46525580D02*
X69110000Y-46244420D01*
X68090000Y-46525580D02*
X68090000Y-46244420D01*
%TO.C,C14*%
X45075000Y-40669420D02*
X45075000Y-40950580D01*
X46095000Y-40669420D02*
X46095000Y-40950580D01*
%TO.C,C3*%
X42511252Y-58020000D02*
X41088748Y-58020000D01*
X42511252Y-59840000D02*
X41088748Y-59840000D01*
%TO.C,C15*%
X46685000Y-40669420D02*
X46685000Y-40950580D01*
X47705000Y-40669420D02*
X47705000Y-40950580D01*
%TO.C,C18*%
X68090000Y-40719420D02*
X68090000Y-41000580D01*
X69110000Y-40719420D02*
X69110000Y-41000580D01*
%TO.C,C22*%
X46800000Y-71256920D02*
X46800000Y-71538080D01*
X47820000Y-71256920D02*
X47820000Y-71538080D01*
%TO.C,C19*%
X66400000Y-46525580D02*
X66400000Y-46244420D01*
X67420000Y-46525580D02*
X67420000Y-46244420D01*
%TO.C,C21*%
X45095000Y-71269420D02*
X45095000Y-71550580D01*
X46115000Y-71269420D02*
X46115000Y-71550580D01*
%TO.C,C9*%
X66395000Y-71254420D02*
X66395000Y-71535580D01*
X67415000Y-71254420D02*
X67415000Y-71535580D01*
%TO.C,C12*%
X68035000Y-77110580D02*
X68035000Y-76829420D01*
X69055000Y-77110580D02*
X69055000Y-76829420D01*
%TO.C,C13*%
X46095000Y-46525580D02*
X46095000Y-46244420D01*
X45075000Y-46525580D02*
X45075000Y-46244420D01*
%TO.C,C24*%
X46800000Y-77185580D02*
X46800000Y-76904420D01*
X47820000Y-77185580D02*
X47820000Y-76904420D01*
%TO.C,C17*%
X66400000Y-40669420D02*
X66400000Y-40950580D01*
X67420000Y-40669420D02*
X67420000Y-40950580D01*
%TO.C,C10*%
X68035000Y-71254420D02*
X68035000Y-71535580D01*
X69055000Y-71254420D02*
X69055000Y-71535580D01*
%TD*%
M02*
