%TF.GenerationSoftware,KiCad,Pcbnew,8.0.7*%
%TF.CreationDate,2025-02-08T20:50:40+05:30*%
%TF.ProjectId,AOS16 Double Buffer,414f5331-3620-4446-9f75-626c65204275,rev?*%
%TF.SameCoordinates,Original*%
%TF.FileFunction,Copper,L4,Bot*%
%TF.FilePolarity,Positive*%
%FSLAX46Y46*%
G04 Gerber Fmt 4.6, Leading zero omitted, Abs format (unit mm)*
G04 Created by KiCad (PCBNEW 8.0.7) date 2025-02-08 20:50:40*
%MOMM*%
%LPD*%
G01*
G04 APERTURE LIST*
G04 Aperture macros list*
%AMRoundRect*
0 Rectangle with rounded corners*
0 $1 Rounding radius*
0 $2 $3 $4 $5 $6 $7 $8 $9 X,Y pos of 4 corners*
0 Add a 4 corners polygon primitive as box body*
4,1,4,$2,$3,$4,$5,$6,$7,$8,$9,$2,$3,0*
0 Add four circle primitives for the rounded corners*
1,1,$1+$1,$2,$3*
1,1,$1+$1,$4,$5*
1,1,$1+$1,$6,$7*
1,1,$1+$1,$8,$9*
0 Add four rect primitives between the rounded corners*
20,1,$1+$1,$2,$3,$4,$5,0*
20,1,$1+$1,$4,$5,$6,$7,0*
20,1,$1+$1,$6,$7,$8,$9,0*
20,1,$1+$1,$8,$9,$2,$3,0*%
G04 Aperture macros list end*
%TA.AperFunction,ComponentPad*%
%ADD10R,1.700000X1.700000*%
%TD*%
%TA.AperFunction,ComponentPad*%
%ADD11O,1.700000X1.700000*%
%TD*%
%TA.AperFunction,SMDPad,CuDef*%
%ADD12RoundRect,0.225000X-0.250000X0.225000X-0.250000X-0.225000X0.250000X-0.225000X0.250000X0.225000X0*%
%TD*%
%TA.AperFunction,SMDPad,CuDef*%
%ADD13RoundRect,0.225000X0.250000X-0.225000X0.250000X0.225000X-0.250000X0.225000X-0.250000X-0.225000X0*%
%TD*%
%TA.AperFunction,SMDPad,CuDef*%
%ADD14RoundRect,0.225000X0.225000X0.250000X-0.225000X0.250000X-0.225000X-0.250000X0.225000X-0.250000X0*%
%TD*%
%TA.AperFunction,SMDPad,CuDef*%
%ADD15RoundRect,0.250000X-0.325000X-0.650000X0.325000X-0.650000X0.325000X0.650000X-0.325000X0.650000X0*%
%TD*%
%TA.AperFunction,ViaPad*%
%ADD16C,0.700000*%
%TD*%
%TA.AperFunction,ViaPad*%
%ADD17C,0.508000*%
%TD*%
%TA.AperFunction,ViaPad*%
%ADD18C,0.600000*%
%TD*%
%TA.AperFunction,Conductor*%
%ADD19C,0.500000*%
%TD*%
%TA.AperFunction,Conductor*%
%ADD20C,0.300000*%
%TD*%
%TA.AperFunction,Conductor*%
%ADD21C,0.200000*%
%TD*%
G04 APERTURE END LIST*
D10*
%TO.P,J2,1,Pin_1*%
%TO.N,/W1*%
X51985000Y-25435000D03*
D11*
%TO.P,J2,2,Pin_2*%
%TO.N,/W0*%
X54525000Y-25435000D03*
%TO.P,J2,3,Pin_3*%
%TO.N,/R1*%
X57065000Y-25435000D03*
%TO.P,J2,4,Pin_4*%
%TO.N,/R0*%
X59605000Y-25435000D03*
%TO.P,J2,5,Pin_5*%
%TO.N,/SEL*%
X62145000Y-25435000D03*
%TD*%
%TO.P,J3,16,Pin_16*%
%TO.N,/word_conn/IN15*%
X35780000Y-83105000D03*
%TO.P,J3,15,Pin_15*%
%TO.N,/word_conn/IN14*%
X38320000Y-83105000D03*
%TO.P,J3,14,Pin_14*%
%TO.N,/word_conn/IN13*%
X35780000Y-80565000D03*
%TO.P,J3,13,Pin_13*%
%TO.N,/word_conn/IN12*%
X38320000Y-80565000D03*
%TO.P,J3,12,Pin_12*%
%TO.N,/word_conn/IN11*%
X35780000Y-78025000D03*
%TO.P,J3,11,Pin_11*%
%TO.N,/word_conn/IN10*%
X38320000Y-78025000D03*
%TO.P,J3,10,Pin_10*%
%TO.N,/word_conn/IN9*%
X35780000Y-75485000D03*
%TO.P,J3,9,Pin_9*%
%TO.N,/word_conn/IN8*%
X38320000Y-75485000D03*
%TO.P,J3,8,Pin_8*%
%TO.N,/word_conn/IN7*%
X35780000Y-72945000D03*
%TO.P,J3,7,Pin_7*%
%TO.N,/word_conn/IN6*%
X38320000Y-72945000D03*
%TO.P,J3,6,Pin_6*%
%TO.N,/word_conn/IN5*%
X35780000Y-70405000D03*
%TO.P,J3,5,Pin_5*%
%TO.N,/word_conn/IN4*%
X38320000Y-70405000D03*
%TO.P,J3,4,Pin_4*%
%TO.N,/word_conn/IN3*%
X35780000Y-67865000D03*
%TO.P,J3,3,Pin_3*%
%TO.N,/word_conn/IN2*%
X38320000Y-67865000D03*
%TO.P,J3,2,Pin_2*%
%TO.N,/word_conn/IN1*%
X35780000Y-65325000D03*
D10*
%TO.P,J3,1,Pin_1*%
%TO.N,/word_conn/IN0*%
X38320000Y-65325000D03*
%TD*%
D11*
%TO.P,J4,16,Pin_16*%
%TO.N,/word_conn1/IN15*%
X76680000Y-83105000D03*
%TO.P,J4,15,Pin_15*%
%TO.N,/word_conn1/IN14*%
X79220000Y-83105000D03*
%TO.P,J4,14,Pin_14*%
%TO.N,/word_conn1/IN13*%
X76680000Y-80565000D03*
%TO.P,J4,13,Pin_13*%
%TO.N,/word_conn1/IN12*%
X79220000Y-80565000D03*
%TO.P,J4,12,Pin_12*%
%TO.N,/word_conn1/IN11*%
X76680000Y-78025000D03*
%TO.P,J4,11,Pin_11*%
%TO.N,/word_conn1/IN10*%
X79220000Y-78025000D03*
%TO.P,J4,10,Pin_10*%
%TO.N,/word_conn1/IN9*%
X76680000Y-75485000D03*
%TO.P,J4,9,Pin_9*%
%TO.N,/word_conn1/IN8*%
X79220000Y-75485000D03*
%TO.P,J4,8,Pin_8*%
%TO.N,/word_conn1/IN7*%
X76680000Y-72945000D03*
%TO.P,J4,7,Pin_7*%
%TO.N,/word_conn1/IN6*%
X79220000Y-72945000D03*
%TO.P,J4,6,Pin_6*%
%TO.N,/word_conn1/IN5*%
X76680000Y-70405000D03*
%TO.P,J4,5,Pin_5*%
%TO.N,/word_conn1/IN4*%
X79220000Y-70405000D03*
%TO.P,J4,4,Pin_4*%
%TO.N,/word_conn1/IN3*%
X76680000Y-67865000D03*
%TO.P,J4,3,Pin_3*%
%TO.N,/word_conn1/IN2*%
X79220000Y-67865000D03*
%TO.P,J4,2,Pin_2*%
%TO.N,/word_conn1/IN1*%
X76680000Y-65325000D03*
D10*
%TO.P,J4,1,Pin_1*%
%TO.N,/word_conn1/IN0*%
X79220000Y-65325000D03*
%TD*%
D11*
%TO.P,J1,3,Pin_3*%
%TO.N,GND*%
X37030000Y-61460000D03*
%TO.P,J1,2,Pin_2*%
%TO.N,VCC*%
X37030000Y-58920000D03*
D10*
%TO.P,J1,1,Pin_1*%
%TO.N,+3.3V*%
X37030000Y-56380000D03*
%TD*%
D11*
%TO.P,J6,16,Pin_16*%
%TO.N,/word_conn3/IN15*%
X79180000Y-34705000D03*
%TO.P,J6,15,Pin_15*%
%TO.N,/word_conn3/IN14*%
X76640000Y-34705000D03*
%TO.P,J6,14,Pin_14*%
%TO.N,/word_conn3/IN13*%
X79180000Y-37245000D03*
%TO.P,J6,13,Pin_13*%
%TO.N,/word_conn3/IN12*%
X76640000Y-37245000D03*
%TO.P,J6,12,Pin_12*%
%TO.N,/word_conn3/IN11*%
X79180000Y-39785000D03*
%TO.P,J6,11,Pin_11*%
%TO.N,/word_conn3/IN10*%
X76640000Y-39785000D03*
%TO.P,J6,10,Pin_10*%
%TO.N,/word_conn3/IN9*%
X79180000Y-42325000D03*
%TO.P,J6,9,Pin_9*%
%TO.N,/word_conn3/IN8*%
X76640000Y-42325000D03*
%TO.P,J6,8,Pin_8*%
%TO.N,/word_conn3/IN7*%
X79180000Y-44865000D03*
%TO.P,J6,7,Pin_7*%
%TO.N,/word_conn3/IN6*%
X76640000Y-44865000D03*
%TO.P,J6,6,Pin_6*%
%TO.N,/word_conn3/IN5*%
X79180000Y-47405000D03*
%TO.P,J6,5,Pin_5*%
%TO.N,/word_conn3/IN4*%
X76640000Y-47405000D03*
%TO.P,J6,4,Pin_4*%
%TO.N,/word_conn3/IN3*%
X79180000Y-49945000D03*
%TO.P,J6,3,Pin_3*%
%TO.N,/word_conn3/IN2*%
X76640000Y-49945000D03*
%TO.P,J6,2,Pin_2*%
%TO.N,/word_conn3/IN1*%
X79180000Y-52485000D03*
D10*
%TO.P,J6,1,Pin_1*%
%TO.N,/word_conn3/IN0*%
X76640000Y-52485000D03*
%TD*%
D12*
%TO.P,C5,1*%
%TO.N,GND*%
X58245000Y-36405000D03*
%TO.P,C5,2*%
%TO.N,VCC*%
X58245000Y-37955000D03*
%TD*%
D13*
%TO.P,C6,1*%
%TO.N,VCC*%
X65895000Y-32030000D03*
%TO.P,C6,2*%
%TO.N,GND*%
X65895000Y-30480000D03*
%TD*%
D14*
%TO.P,C1,1*%
%TO.N,VCC*%
X57570000Y-31615000D03*
%TO.P,C1,2*%
%TO.N,GND*%
X56020000Y-31615000D03*
%TD*%
D12*
%TO.P,C4,1*%
%TO.N,GND*%
X47270000Y-29535000D03*
%TO.P,C4,2*%
%TO.N,VCC*%
X47270000Y-31085000D03*
%TD*%
D10*
%TO.P,J5,1,Pin_1*%
%TO.N,/word_conn2/IN0*%
X35740000Y-52485000D03*
D11*
%TO.P,J5,2,Pin_2*%
%TO.N,/word_conn2/IN1*%
X38280000Y-52485000D03*
%TO.P,J5,3,Pin_3*%
%TO.N,/word_conn2/IN2*%
X35740000Y-49945000D03*
%TO.P,J5,4,Pin_4*%
%TO.N,/word_conn2/IN3*%
X38280000Y-49945000D03*
%TO.P,J5,5,Pin_5*%
%TO.N,/word_conn2/IN4*%
X35740000Y-47405000D03*
%TO.P,J5,6,Pin_6*%
%TO.N,/word_conn2/IN5*%
X38280000Y-47405000D03*
%TO.P,J5,7,Pin_7*%
%TO.N,/word_conn2/IN6*%
X35740000Y-44865000D03*
%TO.P,J5,8,Pin_8*%
%TO.N,/word_conn2/IN7*%
X38280000Y-44865000D03*
%TO.P,J5,9,Pin_9*%
%TO.N,/word_conn2/IN8*%
X35740000Y-42325000D03*
%TO.P,J5,10,Pin_10*%
%TO.N,/word_conn2/IN9*%
X38280000Y-42325000D03*
%TO.P,J5,11,Pin_11*%
%TO.N,/word_conn2/IN10*%
X35740000Y-39785000D03*
%TO.P,J5,12,Pin_12*%
%TO.N,/word_conn2/IN11*%
X38280000Y-39785000D03*
%TO.P,J5,13,Pin_13*%
%TO.N,/word_conn2/IN12*%
X35740000Y-37245000D03*
%TO.P,J5,14,Pin_14*%
%TO.N,/word_conn2/IN13*%
X38280000Y-37245000D03*
%TO.P,J5,15,Pin_15*%
%TO.N,/word_conn2/IN14*%
X35740000Y-34705000D03*
%TO.P,J5,16,Pin_16*%
%TO.N,/word_conn2/IN15*%
X38280000Y-34705000D03*
%TD*%
D15*
%TO.P,C2,1*%
%TO.N,+3.3V*%
X40330000Y-56375000D03*
%TO.P,C2,2*%
%TO.N,GND*%
X43280000Y-56375000D03*
%TD*%
D12*
%TO.P,C23,1*%
%TO.N,VCC*%
X45590000Y-76270000D03*
%TO.P,C23,2*%
%TO.N,GND*%
X45590000Y-77820000D03*
%TD*%
%TO.P,C11,1*%
%TO.N,VCC*%
X66905000Y-76195000D03*
%TO.P,C11,2*%
%TO.N,GND*%
X66905000Y-77745000D03*
%TD*%
%TO.P,C16,1*%
%TO.N,VCC*%
X47195000Y-45610000D03*
%TO.P,C16,2*%
%TO.N,GND*%
X47195000Y-47160000D03*
%TD*%
%TO.P,C20,2*%
%TO.N,GND*%
X68600000Y-47160000D03*
%TO.P,C20,1*%
%TO.N,VCC*%
X68600000Y-45610000D03*
%TD*%
D13*
%TO.P,C14,1*%
%TO.N,VCC*%
X45585000Y-41585000D03*
%TO.P,C14,2*%
%TO.N,GND*%
X45585000Y-40035000D03*
%TD*%
D15*
%TO.P,C3,1*%
%TO.N,VCC*%
X40325000Y-58930000D03*
%TO.P,C3,2*%
%TO.N,GND*%
X43275000Y-58930000D03*
%TD*%
D13*
%TO.P,C15,1*%
%TO.N,VCC*%
X47195000Y-41585000D03*
%TO.P,C15,2*%
%TO.N,GND*%
X47195000Y-40035000D03*
%TD*%
%TO.P,C18,1*%
%TO.N,VCC*%
X68600000Y-41635000D03*
%TO.P,C18,2*%
%TO.N,GND*%
X68600000Y-40085000D03*
%TD*%
%TO.P,C22,1*%
%TO.N,VCC*%
X47310000Y-72172500D03*
%TO.P,C22,2*%
%TO.N,GND*%
X47310000Y-70622500D03*
%TD*%
D12*
%TO.P,C19,1*%
%TO.N,VCC*%
X66910000Y-45610000D03*
%TO.P,C19,2*%
%TO.N,GND*%
X66910000Y-47160000D03*
%TD*%
D13*
%TO.P,C21,1*%
%TO.N,VCC*%
X45605000Y-72185000D03*
%TO.P,C21,2*%
%TO.N,GND*%
X45605000Y-70635000D03*
%TD*%
%TO.P,C9,1*%
%TO.N,VCC*%
X66905000Y-72170000D03*
%TO.P,C9,2*%
%TO.N,GND*%
X66905000Y-70620000D03*
%TD*%
D12*
%TO.P,C12,1*%
%TO.N,VCC*%
X68545000Y-76195000D03*
%TO.P,C12,2*%
%TO.N,GND*%
X68545000Y-77745000D03*
%TD*%
%TO.P,C13,2*%
%TO.N,GND*%
X45585000Y-47160000D03*
%TO.P,C13,1*%
%TO.N,VCC*%
X45585000Y-45610000D03*
%TD*%
%TO.P,C24,1*%
%TO.N,VCC*%
X47310000Y-76270000D03*
%TO.P,C24,2*%
%TO.N,GND*%
X47310000Y-77820000D03*
%TD*%
D13*
%TO.P,C17,1*%
%TO.N,VCC*%
X66910000Y-41585000D03*
%TO.P,C17,2*%
%TO.N,GND*%
X66910000Y-40035000D03*
%TD*%
%TO.P,C10,1*%
%TO.N,VCC*%
X68545000Y-72170000D03*
%TO.P,C10,2*%
%TO.N,GND*%
X68545000Y-70620000D03*
%TD*%
D16*
%TO.N,GND*%
X43500000Y-79400000D03*
%TO.N,/R*%
X64076900Y-52945900D03*
X61760000Y-31307600D03*
%TO.N,/E1*%
X64750000Y-49020000D03*
X64785000Y-38493788D03*
%TO.N,VCC*%
X66990000Y-32005000D03*
%TO.N,GND*%
X66945000Y-30455000D03*
D17*
X64695000Y-30890000D03*
%TO.N,VCC*%
X64700001Y-31849676D03*
%TO.N,/W0*%
X62960000Y-30445000D03*
X56845000Y-30445000D03*
%TO.N,GND*%
X48384344Y-75200001D03*
X48384343Y-73199999D03*
X65790656Y-73199999D03*
X65790657Y-75200000D03*
D18*
%TO.N,/~{SEL}*%
X70640000Y-79585000D03*
%TO.N,GND*%
X63850000Y-54250000D03*
%TO.N,/E0*%
X43480000Y-38385000D03*
X43485000Y-49020000D03*
%TO.N,/W*%
X51800000Y-31290000D03*
X50060000Y-63295000D03*
%TO.N,/~{SEL}*%
X70640000Y-68690000D03*
X63083500Y-34652900D03*
X62340000Y-37570000D03*
%TO.N,/SEL*%
X49385000Y-68760000D03*
X49395000Y-79470000D03*
X55955400Y-35710400D03*
%TO.N,/~{W0}*%
X49355000Y-38117400D03*
X64038217Y-31602600D03*
X49365000Y-49395000D03*
D17*
%TO.N,/ram/INA2*%
X60980000Y-71190000D03*
X61013600Y-51495000D03*
%TO.N,/ram/OUT1*%
X54580000Y-47410000D03*
X54676400Y-62260700D03*
%TO.N,/ram/OUT4*%
X58985800Y-60645000D03*
X59050000Y-45590000D03*
%TO.N,/ram/OUT0*%
X59967200Y-62235000D03*
X59998600Y-48046400D03*
%TO.N,/ram/INA6*%
X54166400Y-53870000D03*
X54160000Y-73355000D03*
%TO.N,/ram/INA11*%
X58429600Y-65891100D03*
X58477400Y-76235000D03*
%TO.N,/ram/INA13*%
X57707300Y-77400000D03*
X57689500Y-66690000D03*
%TO.N,/ram/INA5*%
X53575000Y-72800000D03*
X53680000Y-53060000D03*
%TO.N,/ram/OUT3*%
X55080000Y-46210000D03*
X55181400Y-61425000D03*
%TO.N,/ram/INA4*%
X60470000Y-72275000D03*
X60505000Y-52195000D03*
%TO.N,/ram/INA10*%
X55439000Y-65104300D03*
X55427600Y-75600000D03*
%TO.N,/ram/OUT5*%
X55681400Y-60635000D03*
X55673600Y-45010000D03*
%TO.N,/ram/INA3*%
X53075000Y-71730000D03*
X53145000Y-52220000D03*
%TO.N,/ram/INA8*%
X54676400Y-64347500D03*
X54680000Y-74548600D03*
%TO.N,/ram/INA9*%
X59219900Y-75055000D03*
X59197100Y-65103600D03*
%TO.N,/ram/OUT6*%
X58700000Y-44490000D03*
X58497200Y-59796400D03*
%TO.N,/ram/OUT9*%
X56700000Y-42735000D03*
X56695000Y-57545000D03*
%TO.N,/ram/INA0*%
X61590000Y-69805000D03*
X61520000Y-50685000D03*
%TO.N,/ram/INA7*%
X59967200Y-64302500D03*
X59960000Y-73920000D03*
%TO.N,/ram/OUT7*%
X56186400Y-59880000D03*
X56180000Y-43900000D03*
%TO.N,/ram/INA14*%
X56941300Y-78000000D03*
X56945500Y-66690800D03*
%TO.N,/ram/OUT8*%
X58000000Y-43320000D03*
X57988600Y-57530000D03*
%TO.N,/ram/INA1*%
X52620000Y-51525000D03*
X52638600Y-70400000D03*
%TO.N,/ram/OUT2*%
X59510000Y-46716400D03*
X59492200Y-61471400D03*
%TO.N,/ram/INA12*%
X56181900Y-76800000D03*
X56194700Y-65913600D03*
D18*
%TO.N,/R1*%
X70655000Y-38395000D03*
X70655000Y-49360000D03*
D17*
%TO.N,VCC*%
X65790700Y-72000000D03*
D16*
X47315000Y-75360000D03*
D17*
X44490700Y-41410000D03*
X48384300Y-76400000D03*
D16*
X45590000Y-75370000D03*
D17*
X48370000Y-72000000D03*
D16*
X67300000Y-75000000D03*
X68470000Y-43195000D03*
D17*
X69633300Y-72000000D03*
D16*
X47310000Y-73087500D03*
D17*
X48343300Y-45810000D03*
X69634200Y-45810000D03*
X44490700Y-45810000D03*
D18*
X61427000Y-32712000D03*
D16*
X67300000Y-73400000D03*
X45590000Y-73090000D03*
D17*
X65790700Y-76400000D03*
D16*
X47080000Y-44395000D03*
D18*
X56917894Y-38247106D03*
D17*
X65790700Y-45810000D03*
D18*
X64795000Y-68805000D03*
D16*
X45740000Y-44390000D03*
D17*
X69634200Y-41410000D03*
X44531700Y-72000000D03*
D16*
X67062400Y-43195000D03*
D17*
X69643343Y-76400001D03*
D16*
X45745000Y-42905000D03*
X68150000Y-75000000D03*
X67075000Y-44385000D03*
D18*
X63490000Y-78810000D03*
D17*
X48223800Y-41303600D03*
D16*
X47015000Y-42900000D03*
D17*
X44531700Y-76400000D03*
X65873800Y-41516400D03*
D16*
X68100000Y-73400000D03*
X68460000Y-44425000D03*
D18*
X47270000Y-32230000D03*
D17*
%TO.N,GND*%
X44490700Y-47010000D03*
X69633300Y-75200000D03*
D16*
X45580000Y-69290000D03*
X66905000Y-69485000D03*
X47300000Y-69292500D03*
D17*
X69633300Y-73200000D03*
X48260400Y-40104000D03*
D16*
X68535000Y-69470000D03*
D17*
X44490700Y-40210000D03*
X48343300Y-47010000D03*
D16*
X66910000Y-38985000D03*
D17*
X44531700Y-70800000D03*
X48384300Y-77600000D03*
X69634200Y-42610000D03*
X44490700Y-44610000D03*
X44531700Y-75200000D03*
X65790700Y-70800000D03*
X69643300Y-40210000D03*
X48343300Y-44610000D03*
D16*
X66920000Y-78897500D03*
D18*
X43520000Y-69014700D03*
D16*
X45585000Y-38860000D03*
D17*
X44531700Y-77600000D03*
D16*
X44715000Y-56390000D03*
D17*
X44490700Y-42610000D03*
D16*
X47055000Y-48580000D03*
D17*
X44531700Y-73200000D03*
X65790700Y-77600000D03*
X65873800Y-40316400D03*
D16*
X65575000Y-58130000D03*
D17*
X69633300Y-70800000D03*
X69623300Y-77595000D03*
D16*
X47195000Y-38860000D03*
D17*
X69634200Y-44610000D03*
D16*
X68550000Y-78882500D03*
X44640000Y-58955000D03*
X45580000Y-78770000D03*
X68600000Y-38990000D03*
D17*
X65873800Y-42716400D03*
D16*
X68470000Y-48540000D03*
X48590000Y-59690000D03*
D17*
X65790700Y-44610000D03*
D18*
X50252000Y-54259800D03*
D16*
X45720000Y-48590000D03*
D17*
X65790700Y-47010000D03*
X48384300Y-70800000D03*
X48343300Y-42610000D03*
D16*
X47320000Y-78750000D03*
D17*
X69634200Y-47010000D03*
D16*
X67080000Y-48525000D03*
D18*
X49640000Y-30285000D03*
X60175000Y-32765000D03*
X52570000Y-30235000D03*
X57145000Y-36235000D03*
%TD*%
D19*
%TO.N,VCC*%
X66905000Y-73005000D02*
X67300000Y-73400000D01*
X66905000Y-72170000D02*
X66905000Y-73005000D01*
X68545000Y-72170000D02*
X68545000Y-72955000D01*
X68545000Y-72955000D02*
X68100000Y-73400000D01*
X66910000Y-75390000D02*
X66910000Y-76197500D01*
X67300000Y-75000000D02*
X66910000Y-75390000D01*
X68550000Y-75400000D02*
X68150000Y-75000000D01*
X68550000Y-76195000D02*
X68550000Y-75400000D01*
X69438342Y-76195000D02*
X68550000Y-76195000D01*
X69643343Y-76400001D02*
X69438342Y-76195000D01*
%TO.N,GND*%
X57315000Y-36405000D02*
X57145000Y-36235000D01*
X58245000Y-36405000D02*
X57315000Y-36405000D01*
%TO.N,VCC*%
X57210000Y-37955000D02*
X56917894Y-38247106D01*
X58245000Y-37955000D02*
X57210000Y-37955000D01*
D20*
%TO.N,GND*%
X66945000Y-30455000D02*
X66920000Y-30480000D01*
X66920000Y-30480000D02*
X65895000Y-30480000D01*
%TO.N,VCC*%
X66965000Y-32030000D02*
X65895000Y-32030000D01*
X66990000Y-32005000D02*
X66965000Y-32030000D01*
X65714676Y-31849676D02*
X65895000Y-32030000D01*
X64700001Y-31849676D02*
X65714676Y-31849676D01*
%TO.N,GND*%
X64695000Y-30890000D02*
X65485000Y-30890000D01*
X65485000Y-30890000D02*
X65895000Y-30480000D01*
D19*
%TO.N,VCC*%
X47270000Y-32230000D02*
X47270000Y-31085000D01*
%TO.N,GND*%
X48890000Y-29535000D02*
X49640000Y-30285000D01*
X47270000Y-29535000D02*
X48890000Y-29535000D01*
%TO.N,VCC*%
X60330000Y-31615000D02*
X61427000Y-32712000D01*
X57570000Y-31615000D02*
X60330000Y-31615000D01*
%TO.N,GND*%
X54640000Y-30235000D02*
X56020000Y-31615000D01*
X52570000Y-30235000D02*
X54640000Y-30235000D01*
%TO.N,+3.3V*%
X37035000Y-56375000D02*
X37030000Y-56380000D01*
X40330000Y-56375000D02*
X37035000Y-56375000D01*
D21*
%TO.N,/ram/INA2*%
X61015000Y-71155000D02*
X60980000Y-71190000D01*
X61015000Y-51496400D02*
X61015000Y-71155000D01*
X61013600Y-51495000D02*
X61015000Y-51496400D01*
%TO.N,/ram/OUT1*%
X54675000Y-47505000D02*
X54580000Y-47410000D01*
X54675000Y-62259300D02*
X54675000Y-47505000D01*
X54676400Y-62260700D02*
X54675000Y-62259300D01*
%TO.N,/ram/OUT4*%
X59003600Y-45636400D02*
X59050000Y-45590000D01*
X59003600Y-60627200D02*
X59003600Y-45636400D01*
X58985800Y-60645000D02*
X59003600Y-60627200D01*
%TO.N,/ram/OUT0*%
X59998600Y-62203600D02*
X59967200Y-62235000D01*
X59998600Y-48046400D02*
X59998600Y-62203600D01*
%TO.N,/ram/INA6*%
X54170000Y-53873600D02*
X54166400Y-53870000D01*
X54170000Y-73345000D02*
X54170000Y-53873600D01*
X54160000Y-73355000D02*
X54170000Y-73345000D01*
%TO.N,/ram/INA11*%
X58456000Y-76213600D02*
X58477400Y-76235000D01*
X58456000Y-65917500D02*
X58456000Y-76213600D01*
X58429600Y-65891100D02*
X58456000Y-65917500D01*
%TO.N,/ram/INA13*%
X57710900Y-66711400D02*
X57689500Y-66690000D01*
X57710900Y-77396400D02*
X57710900Y-66711400D01*
X57707300Y-77400000D02*
X57710900Y-77396400D01*
%TO.N,/ram/INA5*%
X53660000Y-72715000D02*
X53575000Y-72800000D01*
X53660000Y-53080000D02*
X53660000Y-72715000D01*
X53680000Y-53060000D02*
X53660000Y-53080000D01*
%TO.N,/ram/OUT3*%
X55175000Y-46305000D02*
X55080000Y-46210000D01*
X55175000Y-61418600D02*
X55175000Y-46305000D01*
X55181400Y-61425000D02*
X55175000Y-61418600D01*
%TO.N,/ram/INA4*%
X60473600Y-52226400D02*
X60505000Y-52195000D01*
X60473600Y-72271400D02*
X60473600Y-52226400D01*
X60470000Y-72275000D02*
X60473600Y-72271400D01*
%TO.N,/ram/INA10*%
X55444000Y-65109300D02*
X55439000Y-65104300D01*
X55444000Y-75583600D02*
X55444000Y-65109300D01*
X55427600Y-75600000D02*
X55444000Y-75583600D01*
%TO.N,/ram/OUT5*%
X55680000Y-45016400D02*
X55673600Y-45010000D01*
X55680000Y-60633600D02*
X55680000Y-45016400D01*
X55681400Y-60635000D02*
X55680000Y-60633600D01*
%TO.N,/ram/INA3*%
X53145000Y-71660000D02*
X53145000Y-52220000D01*
X53075000Y-71730000D02*
X53145000Y-71660000D01*
%TO.N,/ram/INA8*%
X54675000Y-64348900D02*
X54676400Y-64347500D01*
X54675000Y-74543600D02*
X54675000Y-64348900D01*
X54680000Y-74548600D02*
X54675000Y-74543600D01*
%TO.N,/ram/INA9*%
X59193500Y-65107200D02*
X59197100Y-65103600D01*
X59193500Y-75028600D02*
X59193500Y-65107200D01*
X59219900Y-75055000D02*
X59193500Y-75028600D01*
%TO.N,/ram/OUT6*%
X58550000Y-44490000D02*
X58543600Y-44496400D01*
X58700000Y-44490000D02*
X58550000Y-44490000D01*
X58495000Y-44695000D02*
X58700000Y-44490000D01*
X58495000Y-59794200D02*
X58495000Y-44695000D01*
X58497200Y-59796400D02*
X58495000Y-59794200D01*
%TO.N,/ram/OUT9*%
X56695000Y-42740000D02*
X56700000Y-42735000D01*
X56695000Y-57545000D02*
X56695000Y-42740000D01*
%TO.N,/ram/INA0*%
X61520000Y-69735000D02*
X61590000Y-69805000D01*
X61520000Y-50685000D02*
X61520000Y-69735000D01*
%TO.N,/ram/INA7*%
X59967200Y-64362800D02*
X59965000Y-64365000D01*
X59967200Y-64302500D02*
X59967200Y-64362800D01*
X59963600Y-64306100D02*
X59967200Y-64302500D01*
X59963600Y-73916400D02*
X59963600Y-64306100D01*
X59960000Y-73920000D02*
X59963600Y-73916400D01*
%TO.N,/ram/OUT7*%
X56180000Y-59873600D02*
X56180000Y-43900000D01*
X56186400Y-59880000D02*
X56180000Y-59873600D01*
%TO.N,/ram/INA14*%
X56945500Y-77995800D02*
X56945500Y-66690800D01*
X56941300Y-78000000D02*
X56945500Y-77995800D01*
%TO.N,/ram/OUT8*%
X58000000Y-57518600D02*
X58000000Y-43320000D01*
X57988600Y-57530000D02*
X58000000Y-57518600D01*
%TO.N,/ram/INA1*%
X52625000Y-51530000D02*
X52620000Y-51525000D01*
X52625000Y-70386400D02*
X52625000Y-51530000D01*
X52638600Y-70400000D02*
X52625000Y-70386400D01*
%TO.N,/ram/OUT2*%
X59492200Y-61471400D02*
X59492200Y-61222200D01*
X59510000Y-46732800D02*
X59573600Y-46796400D01*
X59510000Y-46716400D02*
X59510000Y-46732800D01*
X59492200Y-61471400D02*
X59492200Y-61222200D01*
X59492200Y-46734200D02*
X59510000Y-46716400D01*
X59492200Y-61222200D02*
X59492200Y-46734200D01*
%TO.N,/ram/INA12*%
X56189700Y-65918600D02*
X56194700Y-65913600D01*
X56189700Y-76792200D02*
X56189700Y-65918600D01*
X56181900Y-76800000D02*
X56189700Y-76792200D01*
%TO.N,VCC*%
X66910000Y-42338800D02*
X66910000Y-41585000D01*
D19*
X66910000Y-43042600D02*
X66910000Y-42338800D01*
X67062400Y-43195000D02*
X66910000Y-43042600D01*
X45585000Y-44545000D02*
X45740000Y-44390000D01*
X45585000Y-45610000D02*
X45585000Y-44545000D01*
X69463300Y-72170000D02*
X69633300Y-72000000D01*
X68545000Y-72170000D02*
X69463300Y-72170000D01*
X65960700Y-72170000D02*
X65790700Y-72000000D01*
X66905000Y-72170000D02*
X65960700Y-72170000D01*
X44665700Y-41585000D02*
X44490700Y-41410000D01*
X45585000Y-41585000D02*
X44665700Y-41585000D01*
X68600000Y-43065000D02*
X68600000Y-41635000D01*
X68470000Y-43195000D02*
X68600000Y-43065000D01*
X48197500Y-72172500D02*
X48370000Y-72000000D01*
X47310000Y-72172500D02*
X48197500Y-72172500D01*
X47310000Y-75365000D02*
X47315000Y-75360000D01*
X47310000Y-76270000D02*
X47310000Y-75365000D01*
X47942400Y-41585000D02*
X48223800Y-41303600D01*
X47195000Y-41585000D02*
X47942400Y-41585000D01*
X44690700Y-45610000D02*
X44490700Y-45810000D01*
X45585000Y-45610000D02*
X44690700Y-45610000D01*
X66910000Y-44550000D02*
X67075000Y-44385000D01*
X66910000Y-45610000D02*
X66910000Y-44550000D01*
X45585000Y-73085000D02*
X45590000Y-73090000D01*
X45585000Y-72080000D02*
X45585000Y-73085000D01*
X68550000Y-76197500D02*
X68550000Y-76195000D01*
X69434200Y-45610000D02*
X69634200Y-45810000D01*
X68600000Y-45610000D02*
X69434200Y-45610000D01*
X37040000Y-58930000D02*
X37030000Y-58920000D01*
X40325000Y-58930000D02*
X37040000Y-58930000D01*
X45590000Y-76270000D02*
X45590000Y-75370000D01*
X65995700Y-76195000D02*
X65790700Y-76400000D01*
X66905000Y-76195000D02*
X65995700Y-76195000D01*
X68545000Y-76195000D02*
X68550000Y-76195000D01*
X65990700Y-45610000D02*
X65790700Y-45810000D01*
X66910000Y-45610000D02*
X65990700Y-45610000D01*
X47195000Y-42720000D02*
X47015000Y-42900000D01*
X47195000Y-41585000D02*
X47195000Y-42720000D01*
X65992400Y-41635000D02*
X65873800Y-41516400D01*
X66910000Y-41635000D02*
X65992400Y-41635000D01*
X66910000Y-42338800D02*
X66910000Y-41635000D01*
X47310000Y-73087500D02*
X47310000Y-72172500D01*
X48143300Y-45610000D02*
X48343300Y-45810000D01*
X47195000Y-45610000D02*
X48143300Y-45610000D01*
X45585000Y-42745000D02*
X45745000Y-42905000D01*
X45585000Y-41585000D02*
X45585000Y-42745000D01*
X44716700Y-72185000D02*
X44531700Y-72000000D01*
X45605000Y-72185000D02*
X44716700Y-72185000D01*
X48254300Y-76270000D02*
X48384300Y-76400000D01*
X47310000Y-76270000D02*
X48254300Y-76270000D01*
X47195000Y-44510000D02*
X47080000Y-44395000D01*
X47195000Y-45610000D02*
X47195000Y-44510000D01*
X68600000Y-44565000D02*
X68600000Y-45610000D01*
X68460000Y-44425000D02*
X68600000Y-44565000D01*
X44661700Y-76270000D02*
X44531700Y-76400000D01*
X45590000Y-76270000D02*
X44661700Y-76270000D01*
X69409200Y-41635000D02*
X69634200Y-41410000D01*
X68600000Y-41635000D02*
X69409200Y-41635000D01*
%TO.N,GND*%
X66910000Y-38985000D02*
X66910000Y-40035000D01*
X47195000Y-40035000D02*
X47195000Y-38860000D01*
X48193300Y-47160000D02*
X48343300Y-47010000D01*
X47195000Y-47160000D02*
X48193300Y-47160000D01*
X44751700Y-77820000D02*
X44531700Y-77600000D01*
X45590000Y-77820000D02*
X44751700Y-77820000D01*
X65935700Y-77745000D02*
X65790700Y-77600000D01*
X66905000Y-77745000D02*
X65935700Y-77745000D01*
X65940700Y-47160000D02*
X65790700Y-47010000D01*
X66910000Y-47160000D02*
X65940700Y-47160000D01*
X47310000Y-78740000D02*
X47320000Y-78750000D01*
X47310000Y-77820000D02*
X47310000Y-78740000D01*
X66905000Y-69485000D02*
X66910000Y-69480000D01*
X48164300Y-77820000D02*
X48384300Y-77600000D01*
X47310000Y-77820000D02*
X48164300Y-77820000D01*
X45585000Y-40035000D02*
X45585000Y-38860000D01*
X66910000Y-48355000D02*
X67080000Y-48525000D01*
X66910000Y-47160000D02*
X66910000Y-48355000D01*
X68600000Y-48410000D02*
X68470000Y-48540000D01*
X68600000Y-47160000D02*
X68600000Y-48410000D01*
X66910000Y-77747500D02*
X66910000Y-78887500D01*
X69484200Y-47160000D02*
X69634200Y-47010000D01*
X68600000Y-47160000D02*
X69484200Y-47160000D01*
X45590000Y-78760000D02*
X45580000Y-78770000D01*
X45590000Y-77820000D02*
X45590000Y-78760000D01*
X47310000Y-70622500D02*
X47315000Y-70617500D01*
D21*
X66907500Y-77745000D02*
X66910000Y-77747500D01*
X66905000Y-77745000D02*
X66907500Y-77745000D01*
D19*
X68600000Y-40085000D02*
X68600000Y-38990000D01*
X66905000Y-70620000D02*
X66905000Y-69485000D01*
X44665700Y-40035000D02*
X44490700Y-40210000D01*
X45585000Y-40035000D02*
X44665700Y-40035000D01*
X69473300Y-77745000D02*
X69623300Y-77595000D01*
X68545000Y-77745000D02*
X69473300Y-77745000D01*
X47195000Y-48440000D02*
X47055000Y-48580000D01*
X47195000Y-47160000D02*
X47195000Y-48440000D01*
X68550000Y-77747500D02*
X68550000Y-78882500D01*
X69453300Y-70620000D02*
X69633300Y-70800000D01*
X68545000Y-70620000D02*
X69453300Y-70620000D01*
X48191400Y-40035000D02*
X48260400Y-40104000D01*
X47195000Y-40035000D02*
X48191400Y-40035000D01*
X45585000Y-69295000D02*
X45585000Y-70530000D01*
X45580000Y-69290000D02*
X45585000Y-69295000D01*
X65970700Y-70620000D02*
X65790700Y-70800000D01*
X66905000Y-70620000D02*
X65970700Y-70620000D01*
X44696700Y-70635000D02*
X44531700Y-70800000D01*
X45605000Y-70635000D02*
X44696700Y-70635000D01*
X47310000Y-69302500D02*
X47310000Y-70622500D01*
X47300000Y-69292500D02*
X47310000Y-69302500D01*
X44615000Y-58930000D02*
X44640000Y-58955000D01*
X43275000Y-58930000D02*
X44615000Y-58930000D01*
X68545000Y-69480000D02*
X68535000Y-69470000D01*
X68545000Y-70620000D02*
X68545000Y-69480000D01*
X45585000Y-48455000D02*
X45585000Y-47160000D01*
X45720000Y-48590000D02*
X45585000Y-48455000D01*
X44640700Y-47160000D02*
X44490700Y-47010000D01*
X45585000Y-47160000D02*
X44640700Y-47160000D01*
X48206800Y-70622500D02*
X48384300Y-70800000D01*
X47310000Y-70622500D02*
X48206800Y-70622500D01*
X66105200Y-40085000D02*
X65873800Y-40316400D01*
X66910000Y-40085000D02*
X66105200Y-40085000D01*
X66910000Y-40035000D02*
X66910000Y-40085000D01*
X69518300Y-40085000D02*
X69643300Y-40210000D01*
X68600000Y-40085000D02*
X69518300Y-40085000D01*
X44700000Y-56375000D02*
X44715000Y-56390000D01*
X43280000Y-56375000D02*
X44700000Y-56375000D01*
%TD*%
M02*
