M48
; DRILL file {KiCad 8.0.7} date 2025-02-08T20:50:44+0530
; FORMAT={-:-/ absolute / inch / decimal}
; #@! TF.CreationDate,2025-02-08T20:50:44+05:30
; #@! TF.GenerationSoftware,Kicad,Pcbnew,8.0.7
; #@! TF.FileFunction,Plated,1,4,PTH
FMAT,2
INCH
; #@! TA.AperFunction,Plated,PTH,ViaDrill
T1C0.0079
; #@! TA.AperFunction,Plated,PTH,ViaDrill
T2C0.0118
; #@! TA.AperFunction,Plated,PTH,ViaDrill
T3C0.0138
; #@! TA.AperFunction,Plated,PTH,ComponentDrill
T4C0.0394
%
G90
G05
T1
X1.7516Y-1.5831
X1.7516Y-1.6303
X1.7516Y-1.6776
X1.7516Y-1.7563
X1.7516Y-1.8035
X1.7516Y-1.8508
X1.7532Y-2.7874
X1.7532Y-2.8346
X1.7532Y-2.8819
X1.7532Y-2.9606
X1.7532Y-3.0079
X1.7532Y-3.0551
X1.8986Y-1.6261
X1.9Y-1.5789
X1.9033Y-1.6776
X1.9033Y-1.7563
X1.9033Y-1.8035
X1.9033Y-1.8508
X1.9043Y-2.8346
X1.9049Y-2.7874
X1.9049Y-3.0079
X1.9049Y-3.0551
X1.9049Y-2.8819
X1.9049Y-2.9606
X2.0717Y-2.0285
X2.0724Y-2.7717
X2.0896Y-2.824
X2.0923Y-2.0559
X2.1093Y-2.8661
X2.1134Y-2.089
X2.1323Y-2.888
X2.1325Y-2.1209
X2.1488Y-1.8665
X2.1526Y-2.4512
X2.1526Y-2.5334
X2.1528Y-2.935
X2.1685Y-1.8193
X2.1725Y-2.4183
X2.1822Y-2.9764
X2.1826Y-2.5632
X2.1919Y-1.772
X2.1922Y-2.3872
X2.2118Y-1.7283
X2.2119Y-3.0236
X2.2121Y-2.3575
X2.2124Y-2.595
X2.2321Y-2.2656
X2.2323Y-1.6825
X2.238Y-1.1986
X2.2418Y-3.0709
X2.2419Y-2.6256
X2.2712Y-2.6256
X2.2719Y-3.0472
X2.283Y-2.265
X2.2835Y-1.7055
X2.3004Y-2.5941
X2.3023Y-3.0014
X2.303Y-2.3542
X2.311Y-1.7516
X2.3223Y-2.3876
X2.3248Y-1.7949
X2.3306Y-2.5631
X2.3315Y-2.9549
X2.3422Y-2.4201
X2.3429Y-1.8392
X2.3606Y-2.9102
X2.3609Y-2.4502
X2.3609Y-2.5316
X2.3621Y-1.8916
X2.3807Y-2.8455
X2.3821Y-2.0549
X2.4008Y-2.8028
X2.4021Y-2.0274
X2.422Y-1.9955
X2.4248Y-2.7482
X2.4787Y-1.1986
X2.547Y-1.2161
X2.5472Y-1.2539
X2.5902Y-2.8819
X2.5902Y-2.9606
X2.5902Y-1.7563
X2.5902Y-1.8035
X2.5902Y-1.8508
X2.5902Y-2.7874
X2.5902Y-2.8346
X2.5902Y-3.0079
X2.5902Y-3.0551
X2.5935Y-1.5873
X2.5935Y-1.6345
X2.5935Y-1.6817
X2.7411Y-3.0549
X2.7415Y-2.7874
X2.7415Y-2.8346
X2.7415Y-2.8819
X2.7415Y-2.9606
X2.7415Y-1.6303
X2.7415Y-1.6776
X2.7415Y-1.7563
X2.7415Y-1.8035
X2.7415Y-1.8508
X2.7419Y-1.5831
X2.7419Y-3.0079
T2
X1.7118Y-1.5112
X1.712Y-1.9299
X1.7134Y-2.7171
X1.861Y-1.2689
X1.9431Y-1.5007
X1.9435Y-1.9447
X1.9443Y-2.7071
X1.9447Y-3.1287
X1.9543Y-1.1923
X1.9709Y-2.4919
X1.9784Y-2.1362
X2.0394Y-1.2319
X2.0697Y-1.1904
X2.203Y-1.4059
X2.2409Y-1.5058
X2.2498Y-1.4266
X2.3691Y-1.29
X2.4184Y-1.2879
X2.4543Y-1.4791
X2.4836Y-1.3643
X2.4996Y-3.1028
X2.5138Y-2.1358
X2.5212Y-1.2442
X2.551Y-2.7089
X2.7811Y-2.7043
X2.7811Y-3.1333
X2.7817Y-1.5116
X2.7817Y-1.9433
T3
X1.7126Y-3.126
X1.7575Y-2.3211
X1.7604Y-2.2201
X1.7945Y-2.728
X1.7945Y-3.1012
X1.7947Y-1.5299
X1.7949Y-2.8776
X1.7949Y-2.9673
X1.8Y-1.913
X1.8008Y-1.7476
X1.801Y-1.6892
X1.851Y-1.689
X1.8526Y-1.9126
X1.8535Y-1.7478
X1.8581Y-1.5299
X1.8622Y-2.7281
X1.8626Y-2.8775
X1.8628Y-2.9669
X1.863Y-3.1004
X1.913Y-2.35
X2.4315Y-1.2326
X2.5227Y-2.0845
X2.5492Y-1.9299
X2.5506Y-1.5155
X2.5817Y-2.2886
X2.6341Y-2.7356
X2.6343Y-1.5348
X2.6346Y-3.1062
X2.6356Y-1.199
X2.6374Y-1.26
X2.6403Y-1.7006
X2.6407Y-1.7474
X2.6409Y-1.9104
X2.6496Y-2.8898
X2.6496Y-2.9528
X2.6811Y-2.8898
X2.6831Y-2.9528
X2.6953Y-1.749
X2.6957Y-1.7006
X2.6957Y-1.911
X2.6982Y-2.735
X2.6988Y-3.1056
X2.7008Y-1.535
T4
X1.4071Y-1.3663
X1.4071Y-1.4663
X1.4071Y-1.5663
X1.4071Y-1.6663
X1.4071Y-1.7663
X1.4071Y-1.8663
X1.4071Y-1.9663
X1.4071Y-2.0663
X1.4087Y-2.5719
X1.4087Y-2.6719
X1.4087Y-2.7719
X1.4087Y-2.8719
X1.4087Y-2.9719
X1.4087Y-3.0719
X1.4087Y-3.1719
X1.4087Y-3.2719
X1.4579Y-2.2197
X1.4579Y-2.3197
X1.4579Y-2.4197
X1.5071Y-1.3663
X1.5071Y-1.4663
X1.5071Y-1.5663
X1.5071Y-1.6663
X1.5071Y-1.7663
X1.5071Y-1.8663
X1.5071Y-1.9663
X1.5071Y-2.0663
X1.5087Y-2.5719
X1.5087Y-2.6719
X1.5087Y-2.7719
X1.5087Y-2.8719
X1.5087Y-2.9719
X1.5087Y-3.0719
X1.5087Y-3.1719
X1.5087Y-3.2719
X2.0467Y-1.0014
X2.1467Y-1.0014
X2.2467Y-1.0014
X2.3467Y-1.0014
X2.4467Y-1.0014
X3.0173Y-1.3663
X3.0173Y-1.4663
X3.0173Y-1.5663
X3.0173Y-1.6663
X3.0173Y-1.7663
X3.0173Y-1.8663
X3.0173Y-1.9663
X3.0173Y-2.0663
X3.0189Y-2.5719
X3.0189Y-2.6719
X3.0189Y-2.7719
X3.0189Y-2.8719
X3.0189Y-2.9719
X3.0189Y-3.0719
X3.0189Y-3.1719
X3.0189Y-3.2719
X3.1173Y-1.3663
X3.1173Y-1.4663
X3.1173Y-1.5663
X3.1173Y-1.6663
X3.1173Y-1.7663
X3.1173Y-1.8663
X3.1173Y-1.9663
X3.1173Y-2.0663
X3.1189Y-2.5719
X3.1189Y-2.6719
X3.1189Y-2.7719
X3.1189Y-2.8719
X3.1189Y-2.9719
X3.1189Y-3.0719
X3.1189Y-3.1719
X3.1189Y-3.2719
M30
