%TF.GenerationSoftware,KiCad,Pcbnew,8.0.7*%
%TF.CreationDate,2025-02-08T20:50:40+05:30*%
%TF.ProjectId,AOS16 Double Buffer,414f5331-3620-4446-9f75-626c65204275,rev?*%
%TF.SameCoordinates,Original*%
%TF.FileFunction,Paste,Top*%
%TF.FilePolarity,Positive*%
%FSLAX46Y46*%
G04 Gerber Fmt 4.6, Leading zero omitted, Abs format (unit mm)*
G04 Created by KiCad (PCBNEW 8.0.7) date 2025-02-08 20:50:40*
%MOMM*%
%LPD*%
G01*
G04 APERTURE LIST*
G04 Aperture macros list*
%AMRoundRect*
0 Rectangle with rounded corners*
0 $1 Rounding radius*
0 $2 $3 $4 $5 $6 $7 $8 $9 X,Y pos of 4 corners*
0 Add a 4 corners polygon primitive as box body*
4,1,4,$2,$3,$4,$5,$6,$7,$8,$9,$2,$3,0*
0 Add four circle primitives for the rounded corners*
1,1,$1+$1,$2,$3*
1,1,$1+$1,$4,$5*
1,1,$1+$1,$6,$7*
1,1,$1+$1,$8,$9*
0 Add four rect primitives between the rounded corners*
20,1,$1+$1,$2,$3,$4,$5,0*
20,1,$1+$1,$4,$5,$6,$7,0*
20,1,$1+$1,$6,$7,$8,$9,0*
20,1,$1+$1,$8,$9,$2,$3,0*%
G04 Aperture macros list end*
%ADD10R,1.600000X0.300000*%
%ADD11RoundRect,0.100000X-0.100000X0.225000X-0.100000X-0.225000X0.100000X-0.225000X0.100000X0.225000X0*%
%ADD12RoundRect,0.150000X-0.150000X0.825000X-0.150000X-0.825000X0.150000X-0.825000X0.150000X0.825000X0*%
%ADD13RoundRect,0.225000X0.250000X-0.225000X0.250000X0.225000X-0.250000X0.225000X-0.250000X-0.225000X0*%
%ADD14R,1.475000X0.200000*%
%ADD15RoundRect,0.150000X0.512500X0.150000X-0.512500X0.150000X-0.512500X-0.150000X0.512500X-0.150000X0*%
%ADD16RoundRect,0.137500X-0.625000X-0.137500X0.625000X-0.137500X0.625000X0.137500X-0.625000X0.137500X0*%
%ADD17RoundRect,0.225000X-0.250000X0.225000X-0.250000X-0.225000X0.250000X-0.225000X0.250000X0.225000X0*%
G04 APERTURE END LIST*
D10*
%TO.C,U2*%
X58767000Y-38215000D03*
X58767000Y-37565000D03*
X58767000Y-36915000D03*
X58767000Y-36265000D03*
X55367000Y-36265000D03*
X55367000Y-36915000D03*
X55367000Y-37565000D03*
X55367000Y-38215000D03*
%TD*%
D11*
%TO.C,IC1*%
X65350000Y-30425000D03*
X64700000Y-30425000D03*
X64050000Y-30425000D03*
X64050000Y-32325000D03*
X64700000Y-32325000D03*
X65350000Y-32325000D03*
%TD*%
D12*
%TO.C,U1*%
X61427000Y-28900000D03*
X60157000Y-28900000D03*
X58887000Y-28900000D03*
X57617000Y-28900000D03*
X56347000Y-28900000D03*
X55077000Y-28900000D03*
X53807000Y-28900000D03*
X52537000Y-28900000D03*
X52537000Y-33850000D03*
X53807000Y-33850000D03*
X55077000Y-33850000D03*
X56347000Y-33850000D03*
X57617000Y-33850000D03*
X58887000Y-33850000D03*
X60157000Y-33850000D03*
X61427000Y-33850000D03*
%TD*%
D13*
%TO.C,C7*%
X64765000Y-59675000D03*
X64765000Y-58125000D03*
%TD*%
D14*
%TO.C,IC5*%
X70655000Y-48210000D03*
X70655000Y-47810000D03*
X70655000Y-47410000D03*
X70655000Y-47010000D03*
X70655000Y-46610000D03*
X70655000Y-46210000D03*
X70655000Y-45810000D03*
X70655000Y-45410000D03*
X70655000Y-45010000D03*
X70655000Y-44610000D03*
X70655000Y-44210000D03*
X70655000Y-43810000D03*
X70655000Y-43410000D03*
X70655000Y-43010000D03*
X70655000Y-42610000D03*
X70655000Y-42210000D03*
X70655000Y-41810000D03*
X70655000Y-41410000D03*
X70655000Y-41010000D03*
X70655000Y-40610000D03*
X70655000Y-40210000D03*
X70655000Y-39810000D03*
X70655000Y-39410000D03*
X70655000Y-39010000D03*
X64779000Y-39010000D03*
X64779000Y-39410000D03*
X64779000Y-39810000D03*
X64779000Y-40210000D03*
X64779000Y-40610000D03*
X64779000Y-41010000D03*
X64779000Y-41410000D03*
X64779000Y-41810000D03*
X64779000Y-42210000D03*
X64779000Y-42610000D03*
X64779000Y-43010000D03*
X64779000Y-43410000D03*
X64779000Y-43810000D03*
X64779000Y-44210000D03*
X64779000Y-44610000D03*
X64779000Y-45010000D03*
X64779000Y-45410000D03*
X64779000Y-45810000D03*
X64779000Y-46210000D03*
X64779000Y-46610000D03*
X64779000Y-47010000D03*
X64779000Y-47410000D03*
X64779000Y-47810000D03*
X64779000Y-48210000D03*
%TD*%
D15*
%TO.C,U3*%
X50595000Y-32237500D03*
X50595000Y-31287500D03*
X50595000Y-30337500D03*
X48320000Y-30337500D03*
X48320000Y-32237500D03*
%TD*%
D16*
%TO.C,IC2*%
X51479500Y-50505000D03*
X51479500Y-51305000D03*
X51479500Y-52105000D03*
X51479500Y-52905000D03*
X51479500Y-53705000D03*
X51479500Y-54505000D03*
X51479500Y-55305000D03*
X51479500Y-56105000D03*
X51479500Y-56905000D03*
X51479500Y-57705000D03*
X51479500Y-58505000D03*
X51479500Y-59305000D03*
X51479500Y-60105000D03*
X51479500Y-60905000D03*
X51479500Y-61705000D03*
X51479500Y-62505000D03*
X51479500Y-63305000D03*
X51479500Y-64105000D03*
X51479500Y-64905000D03*
X51479500Y-65705000D03*
X51479500Y-66505000D03*
X51479500Y-67305000D03*
X62654500Y-67305000D03*
X62654500Y-66505000D03*
X62654500Y-65705000D03*
X62654500Y-64905000D03*
X62654500Y-64105000D03*
X62654500Y-63305000D03*
X62654500Y-62505000D03*
X62654500Y-61705000D03*
X62654500Y-60905000D03*
X62654500Y-60105000D03*
X62654500Y-59305000D03*
X62654500Y-58505000D03*
X62654500Y-57705000D03*
X62654500Y-56905000D03*
X62654500Y-56105000D03*
X62654500Y-55305000D03*
X62654500Y-54505000D03*
X62654500Y-53705000D03*
X62654500Y-52905000D03*
X62654500Y-52105000D03*
X62654500Y-51305000D03*
X62654500Y-50505000D03*
%TD*%
D17*
%TO.C,C8*%
X49425000Y-58130000D03*
X49425000Y-59680000D03*
%TD*%
D14*
%TO.C,IC6*%
X43520000Y-69600000D03*
X43520000Y-70000000D03*
X43520000Y-70400000D03*
X43520000Y-70800000D03*
X43520000Y-71200000D03*
X43520000Y-71600000D03*
X43520000Y-72000000D03*
X43520000Y-72400000D03*
X43520000Y-72800000D03*
X43520000Y-73200000D03*
X43520000Y-73600000D03*
X43520000Y-74000000D03*
X43520000Y-74400000D03*
X43520000Y-74800000D03*
X43520000Y-75200000D03*
X43520000Y-75600000D03*
X43520000Y-76000000D03*
X43520000Y-76400000D03*
X43520000Y-76800000D03*
X43520000Y-77200000D03*
X43520000Y-77600000D03*
X43520000Y-78000000D03*
X43520000Y-78400000D03*
X43520000Y-78800000D03*
X49396000Y-78800000D03*
X49396000Y-78400000D03*
X49396000Y-78000000D03*
X49396000Y-77600000D03*
X49396000Y-77200000D03*
X49396000Y-76800000D03*
X49396000Y-76400000D03*
X49396000Y-76000000D03*
X49396000Y-75600000D03*
X49396000Y-75200000D03*
X49396000Y-74800000D03*
X49396000Y-74400000D03*
X49396000Y-74000000D03*
X49396000Y-73600000D03*
X49396000Y-73200000D03*
X49396000Y-72800000D03*
X49396000Y-72400000D03*
X49396000Y-72000000D03*
X49396000Y-71600000D03*
X49396000Y-71200000D03*
X49396000Y-70800000D03*
X49396000Y-70400000D03*
X49396000Y-70000000D03*
X49396000Y-69600000D03*
%TD*%
%TO.C,IC4*%
X49355000Y-48210000D03*
X49355000Y-47810000D03*
X49355000Y-47410000D03*
X49355000Y-47010000D03*
X49355000Y-46610000D03*
X49355000Y-46210000D03*
X49355000Y-45810000D03*
X49355000Y-45410000D03*
X49355000Y-45010000D03*
X49355000Y-44610000D03*
X49355000Y-44210000D03*
X49355000Y-43810000D03*
X49355000Y-43410000D03*
X49355000Y-43010000D03*
X49355000Y-42610000D03*
X49355000Y-42210000D03*
X49355000Y-41810000D03*
X49355000Y-41410000D03*
X49355000Y-41010000D03*
X49355000Y-40610000D03*
X49355000Y-40210000D03*
X49355000Y-39810000D03*
X49355000Y-39410000D03*
X49355000Y-39010000D03*
X43479000Y-39010000D03*
X43479000Y-39410000D03*
X43479000Y-39810000D03*
X43479000Y-40210000D03*
X43479000Y-40610000D03*
X43479000Y-41010000D03*
X43479000Y-41410000D03*
X43479000Y-41810000D03*
X43479000Y-42210000D03*
X43479000Y-42610000D03*
X43479000Y-43010000D03*
X43479000Y-43410000D03*
X43479000Y-43810000D03*
X43479000Y-44210000D03*
X43479000Y-44610000D03*
X43479000Y-45010000D03*
X43479000Y-45410000D03*
X43479000Y-45810000D03*
X43479000Y-46210000D03*
X43479000Y-46610000D03*
X43479000Y-47010000D03*
X43479000Y-47410000D03*
X43479000Y-47810000D03*
X43479000Y-48210000D03*
%TD*%
%TO.C,IC3*%
X64779000Y-69600000D03*
X64779000Y-70000000D03*
X64779000Y-70400000D03*
X64779000Y-70800000D03*
X64779000Y-71200000D03*
X64779000Y-71600000D03*
X64779000Y-72000000D03*
X64779000Y-72400000D03*
X64779000Y-72800000D03*
X64779000Y-73200000D03*
X64779000Y-73600000D03*
X64779000Y-74000000D03*
X64779000Y-74400000D03*
X64779000Y-74800000D03*
X64779000Y-75200000D03*
X64779000Y-75600000D03*
X64779000Y-76000000D03*
X64779000Y-76400000D03*
X64779000Y-76800000D03*
X64779000Y-77200000D03*
X64779000Y-77600000D03*
X64779000Y-78000000D03*
X64779000Y-78400000D03*
X64779000Y-78800000D03*
X70655000Y-78800000D03*
X70655000Y-78400000D03*
X70655000Y-78000000D03*
X70655000Y-77600000D03*
X70655000Y-77200000D03*
X70655000Y-76800000D03*
X70655000Y-76400000D03*
X70655000Y-76000000D03*
X70655000Y-75600000D03*
X70655000Y-75200000D03*
X70655000Y-74800000D03*
X70655000Y-74400000D03*
X70655000Y-74000000D03*
X70655000Y-73600000D03*
X70655000Y-73200000D03*
X70655000Y-72800000D03*
X70655000Y-72400000D03*
X70655000Y-72000000D03*
X70655000Y-71600000D03*
X70655000Y-71200000D03*
X70655000Y-70800000D03*
X70655000Y-70400000D03*
X70655000Y-70000000D03*
X70655000Y-69600000D03*
%TD*%
M02*
