%TF.GenerationSoftware,KiCad,Pcbnew,8.0.7*%
%TF.CreationDate,2025-02-11T17:28:11+05:30*%
%TF.ProjectId,Program Counter,50726f67-7261-46d2-9043-6f756e746572,rev?*%
%TF.SameCoordinates,Original*%
%TF.FileFunction,Legend,Top*%
%TF.FilePolarity,Positive*%
%FSLAX46Y46*%
G04 Gerber Fmt 4.6, Leading zero omitted, Abs format (unit mm)*
G04 Created by KiCad (PCBNEW 8.0.7) date 2025-02-11 17:28:11*
%MOMM*%
%LPD*%
G01*
G04 APERTURE LIST*
%ADD10C,0.400000*%
%ADD11C,0.300000*%
%ADD12C,0.200000*%
%ADD13C,0.150000*%
%ADD14C,0.120000*%
G04 APERTURE END LIST*
D10*
X153189104Y-70249699D02*
X153189104Y-70725890D01*
X153189104Y-70725890D02*
X150331961Y-70725890D01*
X150331961Y-70725890D02*
X150331961Y-70249699D01*
X150522438Y-69106843D02*
X150522438Y-68916366D01*
X150522438Y-68916366D02*
X150617676Y-68725890D01*
X150617676Y-68725890D02*
X150712914Y-68630652D01*
X150712914Y-68630652D02*
X150903390Y-68535414D01*
X150903390Y-68535414D02*
X151284342Y-68440176D01*
X151284342Y-68440176D02*
X151760533Y-68440176D01*
X151760533Y-68440176D02*
X152141485Y-68535414D01*
X152141485Y-68535414D02*
X152331961Y-68630652D01*
X152331961Y-68630652D02*
X152427200Y-68725890D01*
X152427200Y-68725890D02*
X152522438Y-68916366D01*
X152522438Y-68916366D02*
X152522438Y-69106843D01*
X152522438Y-69106843D02*
X152427200Y-69297319D01*
X152427200Y-69297319D02*
X152331961Y-69392557D01*
X152331961Y-69392557D02*
X152141485Y-69487795D01*
X152141485Y-69487795D02*
X151760533Y-69583033D01*
X151760533Y-69583033D02*
X151284342Y-69583033D01*
X151284342Y-69583033D02*
X150903390Y-69487795D01*
X150903390Y-69487795D02*
X150712914Y-69392557D01*
X150712914Y-69392557D02*
X150617676Y-69297319D01*
X150617676Y-69297319D02*
X150522438Y-69106843D01*
X152331961Y-67583033D02*
X152427200Y-67487795D01*
X152427200Y-67487795D02*
X152522438Y-67583033D01*
X152522438Y-67583033D02*
X152427200Y-67678271D01*
X152427200Y-67678271D02*
X152331961Y-67583033D01*
X152331961Y-67583033D02*
X152522438Y-67583033D01*
X152331961Y-66630652D02*
X152427200Y-66535414D01*
X152427200Y-66535414D02*
X152522438Y-66630652D01*
X152522438Y-66630652D02*
X152427200Y-66725890D01*
X152427200Y-66725890D02*
X152331961Y-66630652D01*
X152331961Y-66630652D02*
X152522438Y-66630652D01*
X150522438Y-65868747D02*
X150522438Y-64535414D01*
X150522438Y-64535414D02*
X152522438Y-65392557D01*
X153189104Y-63963985D02*
X153189104Y-63487795D01*
X153189104Y-63487795D02*
X150331961Y-63487795D01*
X150331961Y-63487795D02*
X150331961Y-63963985D01*
D11*
X150593685Y-49107989D02*
X150522257Y-49250846D01*
X150522257Y-49250846D02*
X150450828Y-49322275D01*
X150450828Y-49322275D02*
X150307971Y-49393703D01*
X150307971Y-49393703D02*
X150236542Y-49393703D01*
X150236542Y-49393703D02*
X150093685Y-49322275D01*
X150093685Y-49322275D02*
X150022257Y-49250846D01*
X150022257Y-49250846D02*
X149950828Y-49107989D01*
X149950828Y-49107989D02*
X149950828Y-48822275D01*
X149950828Y-48822275D02*
X150022257Y-48679418D01*
X150022257Y-48679418D02*
X150093685Y-48607989D01*
X150093685Y-48607989D02*
X150236542Y-48536560D01*
X150236542Y-48536560D02*
X150307971Y-48536560D01*
X150307971Y-48536560D02*
X150450828Y-48607989D01*
X150450828Y-48607989D02*
X150522257Y-48679418D01*
X150522257Y-48679418D02*
X150593685Y-48822275D01*
X150593685Y-48822275D02*
X150593685Y-49107989D01*
X150593685Y-49107989D02*
X150665114Y-49250846D01*
X150665114Y-49250846D02*
X150736542Y-49322275D01*
X150736542Y-49322275D02*
X150879400Y-49393703D01*
X150879400Y-49393703D02*
X151165114Y-49393703D01*
X151165114Y-49393703D02*
X151307971Y-49322275D01*
X151307971Y-49322275D02*
X151379400Y-49250846D01*
X151379400Y-49250846D02*
X151450828Y-49107989D01*
X151450828Y-49107989D02*
X151450828Y-48822275D01*
X151450828Y-48822275D02*
X151379400Y-48679418D01*
X151379400Y-48679418D02*
X151307971Y-48607989D01*
X151307971Y-48607989D02*
X151165114Y-48536560D01*
X151165114Y-48536560D02*
X150879400Y-48536560D01*
X150879400Y-48536560D02*
X150736542Y-48607989D01*
X150736542Y-48607989D02*
X150665114Y-48679418D01*
X150665114Y-48679418D02*
X150593685Y-48822275D01*
D12*
X174291695Y-89560803D02*
X174291695Y-90017946D01*
X174291695Y-89789374D02*
X173491695Y-89789374D01*
X173491695Y-89789374D02*
X173605980Y-89865565D01*
X173605980Y-89865565D02*
X173682171Y-89941755D01*
X173682171Y-89941755D02*
X173720266Y-90017946D01*
X173491695Y-88836993D02*
X173491695Y-89217945D01*
X173491695Y-89217945D02*
X173872647Y-89256041D01*
X173872647Y-89256041D02*
X173834552Y-89217945D01*
X173834552Y-89217945D02*
X173796457Y-89141755D01*
X173796457Y-89141755D02*
X173796457Y-88951279D01*
X173796457Y-88951279D02*
X173834552Y-88875088D01*
X173834552Y-88875088D02*
X173872647Y-88836993D01*
X173872647Y-88836993D02*
X173948838Y-88798898D01*
X173948838Y-88798898D02*
X174139314Y-88798898D01*
X174139314Y-88798898D02*
X174215504Y-88836993D01*
X174215504Y-88836993D02*
X174253600Y-88875088D01*
X174253600Y-88875088D02*
X174291695Y-88951279D01*
X174291695Y-88951279D02*
X174291695Y-89141755D01*
X174291695Y-89141755D02*
X174253600Y-89217945D01*
X174253600Y-89217945D02*
X174215504Y-89256041D01*
X163391695Y-89560803D02*
X163391695Y-90017946D01*
X163391695Y-89789374D02*
X162591695Y-89789374D01*
X162591695Y-89789374D02*
X162705980Y-89865565D01*
X162705980Y-89865565D02*
X162782171Y-89941755D01*
X162782171Y-89941755D02*
X162820266Y-90017946D01*
X162858361Y-88875088D02*
X163391695Y-88875088D01*
X162553600Y-89065564D02*
X163125028Y-89256041D01*
X163125028Y-89256041D02*
X163125028Y-88760802D01*
D11*
X128285828Y-107790132D02*
X128285828Y-106790132D01*
X128285828Y-106790132D02*
X129785828Y-107432989D01*
D12*
X94691695Y-71666517D02*
X94691695Y-71590327D01*
X94691695Y-71590327D02*
X94729790Y-71514136D01*
X94729790Y-71514136D02*
X94767885Y-71476041D01*
X94767885Y-71476041D02*
X94844076Y-71437946D01*
X94844076Y-71437946D02*
X94996457Y-71399851D01*
X94996457Y-71399851D02*
X95186933Y-71399851D01*
X95186933Y-71399851D02*
X95339314Y-71437946D01*
X95339314Y-71437946D02*
X95415504Y-71476041D01*
X95415504Y-71476041D02*
X95453600Y-71514136D01*
X95453600Y-71514136D02*
X95491695Y-71590327D01*
X95491695Y-71590327D02*
X95491695Y-71666517D01*
X95491695Y-71666517D02*
X95453600Y-71742708D01*
X95453600Y-71742708D02*
X95415504Y-71780803D01*
X95415504Y-71780803D02*
X95339314Y-71818898D01*
X95339314Y-71818898D02*
X95186933Y-71856994D01*
X95186933Y-71856994D02*
X94996457Y-71856994D01*
X94996457Y-71856994D02*
X94844076Y-71818898D01*
X94844076Y-71818898D02*
X94767885Y-71780803D01*
X94767885Y-71780803D02*
X94729790Y-71742708D01*
X94729790Y-71742708D02*
X94691695Y-71666517D01*
X113968245Y-55203740D02*
X113968245Y-54403740D01*
X113968245Y-54403740D02*
X114273007Y-54403740D01*
X114273007Y-54403740D02*
X114349197Y-54441835D01*
X114349197Y-54441835D02*
X114387292Y-54479930D01*
X114387292Y-54479930D02*
X114425388Y-54556121D01*
X114425388Y-54556121D02*
X114425388Y-54670406D01*
X114425388Y-54670406D02*
X114387292Y-54746597D01*
X114387292Y-54746597D02*
X114349197Y-54784692D01*
X114349197Y-54784692D02*
X114273007Y-54822787D01*
X114273007Y-54822787D02*
X113968245Y-54822787D01*
X115225388Y-55127549D02*
X115187292Y-55165645D01*
X115187292Y-55165645D02*
X115073007Y-55203740D01*
X115073007Y-55203740D02*
X114996816Y-55203740D01*
X114996816Y-55203740D02*
X114882530Y-55165645D01*
X114882530Y-55165645D02*
X114806340Y-55089454D01*
X114806340Y-55089454D02*
X114768245Y-55013264D01*
X114768245Y-55013264D02*
X114730149Y-54860883D01*
X114730149Y-54860883D02*
X114730149Y-54746597D01*
X114730149Y-54746597D02*
X114768245Y-54594216D01*
X114768245Y-54594216D02*
X114806340Y-54518025D01*
X114806340Y-54518025D02*
X114882530Y-54441835D01*
X114882530Y-54441835D02*
X114996816Y-54403740D01*
X114996816Y-54403740D02*
X115073007Y-54403740D01*
X115073007Y-54403740D02*
X115187292Y-54441835D01*
X115187292Y-54441835D02*
X115225388Y-54479930D01*
X115949197Y-55203740D02*
X115568245Y-55203740D01*
X115568245Y-55203740D02*
X115568245Y-54403740D01*
X113857769Y-54181645D02*
X115945388Y-54181645D01*
X94729790Y-69697946D02*
X94691695Y-69774136D01*
X94691695Y-69774136D02*
X94691695Y-69888422D01*
X94691695Y-69888422D02*
X94729790Y-70002708D01*
X94729790Y-70002708D02*
X94805980Y-70078898D01*
X94805980Y-70078898D02*
X94882171Y-70116993D01*
X94882171Y-70116993D02*
X95034552Y-70155089D01*
X95034552Y-70155089D02*
X95148838Y-70155089D01*
X95148838Y-70155089D02*
X95301219Y-70116993D01*
X95301219Y-70116993D02*
X95377409Y-70078898D01*
X95377409Y-70078898D02*
X95453600Y-70002708D01*
X95453600Y-70002708D02*
X95491695Y-69888422D01*
X95491695Y-69888422D02*
X95491695Y-69812231D01*
X95491695Y-69812231D02*
X95453600Y-69697946D01*
X95453600Y-69697946D02*
X95415504Y-69659850D01*
X95415504Y-69659850D02*
X95148838Y-69659850D01*
X95148838Y-69659850D02*
X95148838Y-69812231D01*
X95491695Y-69316993D02*
X94691695Y-69316993D01*
X94691695Y-69316993D02*
X95491695Y-68859850D01*
X95491695Y-68859850D02*
X94691695Y-68859850D01*
X95491695Y-68478898D02*
X94691695Y-68478898D01*
X94691695Y-68478898D02*
X94691695Y-68288422D01*
X94691695Y-68288422D02*
X94729790Y-68174136D01*
X94729790Y-68174136D02*
X94805980Y-68097946D01*
X94805980Y-68097946D02*
X94882171Y-68059851D01*
X94882171Y-68059851D02*
X95034552Y-68021755D01*
X95034552Y-68021755D02*
X95148838Y-68021755D01*
X95148838Y-68021755D02*
X95301219Y-68059851D01*
X95301219Y-68059851D02*
X95377409Y-68097946D01*
X95377409Y-68097946D02*
X95453600Y-68174136D01*
X95453600Y-68174136D02*
X95491695Y-68288422D01*
X95491695Y-68288422D02*
X95491695Y-68478898D01*
X95491695Y-89560803D02*
X95491695Y-90017946D01*
X95491695Y-89789374D02*
X94691695Y-89789374D01*
X94691695Y-89789374D02*
X94805980Y-89865565D01*
X94805980Y-89865565D02*
X94882171Y-89941755D01*
X94882171Y-89941755D02*
X94920266Y-90017946D01*
X94958361Y-88875088D02*
X95491695Y-88875088D01*
X94653600Y-89065564D02*
X95225028Y-89256041D01*
X95225028Y-89256041D02*
X95225028Y-88760802D01*
X173491695Y-66700803D02*
X173491695Y-67081755D01*
X173491695Y-67081755D02*
X173872647Y-67119851D01*
X173872647Y-67119851D02*
X173834552Y-67081755D01*
X173834552Y-67081755D02*
X173796457Y-67005565D01*
X173796457Y-67005565D02*
X173796457Y-66815089D01*
X173796457Y-66815089D02*
X173834552Y-66738898D01*
X173834552Y-66738898D02*
X173872647Y-66700803D01*
X173872647Y-66700803D02*
X173948838Y-66662708D01*
X173948838Y-66662708D02*
X174139314Y-66662708D01*
X174139314Y-66662708D02*
X174215504Y-66700803D01*
X174215504Y-66700803D02*
X174253600Y-66738898D01*
X174253600Y-66738898D02*
X174291695Y-66815089D01*
X174291695Y-66815089D02*
X174291695Y-67005565D01*
X174291695Y-67005565D02*
X174253600Y-67081755D01*
X174253600Y-67081755D02*
X174215504Y-67119851D01*
X173491695Y-66434136D02*
X174291695Y-66167469D01*
X174291695Y-66167469D02*
X173491695Y-65900803D01*
D11*
X150595828Y-107146560D02*
X150595828Y-107003703D01*
X150595828Y-107003703D02*
X150667257Y-106860846D01*
X150667257Y-106860846D02*
X150738685Y-106789418D01*
X150738685Y-106789418D02*
X150881542Y-106717989D01*
X150881542Y-106717989D02*
X151167257Y-106646560D01*
X151167257Y-106646560D02*
X151524400Y-106646560D01*
X151524400Y-106646560D02*
X151810114Y-106717989D01*
X151810114Y-106717989D02*
X151952971Y-106789418D01*
X151952971Y-106789418D02*
X152024400Y-106860846D01*
X152024400Y-106860846D02*
X152095828Y-107003703D01*
X152095828Y-107003703D02*
X152095828Y-107146560D01*
X152095828Y-107146560D02*
X152024400Y-107289418D01*
X152024400Y-107289418D02*
X151952971Y-107360846D01*
X151952971Y-107360846D02*
X151810114Y-107432275D01*
X151810114Y-107432275D02*
X151524400Y-107503703D01*
X151524400Y-107503703D02*
X151167257Y-107503703D01*
X151167257Y-107503703D02*
X150881542Y-107432275D01*
X150881542Y-107432275D02*
X150738685Y-107360846D01*
X150738685Y-107360846D02*
X150667257Y-107289418D01*
X150667257Y-107289418D02*
X150595828Y-107146560D01*
D12*
X106691695Y-71399851D02*
X106691695Y-71856994D01*
X106691695Y-71628422D02*
X105891695Y-71628422D01*
X105891695Y-71628422D02*
X106005980Y-71704613D01*
X106005980Y-71704613D02*
X106082171Y-71780803D01*
X106082171Y-71780803D02*
X106120266Y-71856994D01*
X105891695Y-66596993D02*
X105891695Y-66977945D01*
X105891695Y-66977945D02*
X106272647Y-67016041D01*
X106272647Y-67016041D02*
X106234552Y-66977945D01*
X106234552Y-66977945D02*
X106196457Y-66901755D01*
X106196457Y-66901755D02*
X106196457Y-66711279D01*
X106196457Y-66711279D02*
X106234552Y-66635088D01*
X106234552Y-66635088D02*
X106272647Y-66596993D01*
X106272647Y-66596993D02*
X106348838Y-66558898D01*
X106348838Y-66558898D02*
X106539314Y-66558898D01*
X106539314Y-66558898D02*
X106615504Y-66596993D01*
X106615504Y-66596993D02*
X106653600Y-66635088D01*
X106653600Y-66635088D02*
X106691695Y-66711279D01*
X106691695Y-66711279D02*
X106691695Y-66901755D01*
X106691695Y-66901755D02*
X106653600Y-66977945D01*
X106653600Y-66977945D02*
X106615504Y-67016041D01*
X105891695Y-66330326D02*
X106691695Y-66063659D01*
X106691695Y-66063659D02*
X105891695Y-65796993D01*
X162591695Y-71666517D02*
X162591695Y-71590327D01*
X162591695Y-71590327D02*
X162629790Y-71514136D01*
X162629790Y-71514136D02*
X162667885Y-71476041D01*
X162667885Y-71476041D02*
X162744076Y-71437946D01*
X162744076Y-71437946D02*
X162896457Y-71399851D01*
X162896457Y-71399851D02*
X163086933Y-71399851D01*
X163086933Y-71399851D02*
X163239314Y-71437946D01*
X163239314Y-71437946D02*
X163315504Y-71476041D01*
X163315504Y-71476041D02*
X163353600Y-71514136D01*
X163353600Y-71514136D02*
X163391695Y-71590327D01*
X163391695Y-71590327D02*
X163391695Y-71666517D01*
X163391695Y-71666517D02*
X163353600Y-71742708D01*
X163353600Y-71742708D02*
X163315504Y-71780803D01*
X163315504Y-71780803D02*
X163239314Y-71818898D01*
X163239314Y-71818898D02*
X163086933Y-71856994D01*
X163086933Y-71856994D02*
X162896457Y-71856994D01*
X162896457Y-71856994D02*
X162744076Y-71818898D01*
X162744076Y-71818898D02*
X162667885Y-71780803D01*
X162667885Y-71780803D02*
X162629790Y-71742708D01*
X162629790Y-71742708D02*
X162591695Y-71666517D01*
X174291695Y-71399851D02*
X174291695Y-71856994D01*
X174291695Y-71628422D02*
X173491695Y-71628422D01*
X173491695Y-71628422D02*
X173605980Y-71704613D01*
X173605980Y-71704613D02*
X173682171Y-71780803D01*
X173682171Y-71780803D02*
X173720266Y-71856994D01*
X106615504Y-69320802D02*
X106653600Y-69358898D01*
X106653600Y-69358898D02*
X106691695Y-69473183D01*
X106691695Y-69473183D02*
X106691695Y-69549374D01*
X106691695Y-69549374D02*
X106653600Y-69663660D01*
X106653600Y-69663660D02*
X106577409Y-69739850D01*
X106577409Y-69739850D02*
X106501219Y-69777945D01*
X106501219Y-69777945D02*
X106348838Y-69816041D01*
X106348838Y-69816041D02*
X106234552Y-69816041D01*
X106234552Y-69816041D02*
X106082171Y-69777945D01*
X106082171Y-69777945D02*
X106005980Y-69739850D01*
X106005980Y-69739850D02*
X105929790Y-69663660D01*
X105929790Y-69663660D02*
X105891695Y-69549374D01*
X105891695Y-69549374D02*
X105891695Y-69473183D01*
X105891695Y-69473183D02*
X105929790Y-69358898D01*
X105929790Y-69358898D02*
X105967885Y-69320802D01*
X106691695Y-68596993D02*
X106691695Y-68977945D01*
X106691695Y-68977945D02*
X105891695Y-68977945D01*
X106691695Y-68330326D02*
X105891695Y-68330326D01*
X106691695Y-67873183D02*
X106234552Y-68216041D01*
X105891695Y-67873183D02*
X106348838Y-68330326D01*
D11*
X129765828Y-49250845D02*
X129765828Y-50107988D01*
X129765828Y-49679417D02*
X128265828Y-49679417D01*
X128265828Y-49679417D02*
X128480114Y-49822274D01*
X128480114Y-49822274D02*
X128622971Y-49965131D01*
X128622971Y-49965131D02*
X128694400Y-50107988D01*
X128265828Y-47893703D02*
X128265828Y-48607989D01*
X128265828Y-48607989D02*
X128980114Y-48679417D01*
X128980114Y-48679417D02*
X128908685Y-48607989D01*
X128908685Y-48607989D02*
X128837257Y-48465132D01*
X128837257Y-48465132D02*
X128837257Y-48107989D01*
X128837257Y-48107989D02*
X128908685Y-47965132D01*
X128908685Y-47965132D02*
X128980114Y-47893703D01*
X128980114Y-47893703D02*
X129122971Y-47822274D01*
X129122971Y-47822274D02*
X129480114Y-47822274D01*
X129480114Y-47822274D02*
X129622971Y-47893703D01*
X129622971Y-47893703D02*
X129694400Y-47965132D01*
X129694400Y-47965132D02*
X129765828Y-48107989D01*
X129765828Y-48107989D02*
X129765828Y-48465132D01*
X129765828Y-48465132D02*
X129694400Y-48607989D01*
X129694400Y-48607989D02*
X129622971Y-48679417D01*
D12*
X116927293Y-55208362D02*
X116660626Y-54827409D01*
X116470150Y-55208362D02*
X116470150Y-54408362D01*
X116470150Y-54408362D02*
X116774912Y-54408362D01*
X116774912Y-54408362D02*
X116851102Y-54446457D01*
X116851102Y-54446457D02*
X116889197Y-54484552D01*
X116889197Y-54484552D02*
X116927293Y-54560743D01*
X116927293Y-54560743D02*
X116927293Y-54675028D01*
X116927293Y-54675028D02*
X116889197Y-54751219D01*
X116889197Y-54751219D02*
X116851102Y-54789314D01*
X116851102Y-54789314D02*
X116774912Y-54827409D01*
X116774912Y-54827409D02*
X116470150Y-54827409D01*
X117232054Y-54979790D02*
X117613007Y-54979790D01*
X117155864Y-55208362D02*
X117422531Y-54408362D01*
X117422531Y-54408362D02*
X117689197Y-55208362D01*
X118108245Y-54408362D02*
X118260626Y-54408362D01*
X118260626Y-54408362D02*
X118336816Y-54446457D01*
X118336816Y-54446457D02*
X118413007Y-54522647D01*
X118413007Y-54522647D02*
X118451102Y-54675028D01*
X118451102Y-54675028D02*
X118451102Y-54941695D01*
X118451102Y-54941695D02*
X118413007Y-55094076D01*
X118413007Y-55094076D02*
X118336816Y-55170267D01*
X118336816Y-55170267D02*
X118260626Y-55208362D01*
X118260626Y-55208362D02*
X118108245Y-55208362D01*
X118108245Y-55208362D02*
X118032054Y-55170267D01*
X118032054Y-55170267D02*
X117955864Y-55094076D01*
X117955864Y-55094076D02*
X117917768Y-54941695D01*
X117917768Y-54941695D02*
X117917768Y-54675028D01*
X117917768Y-54675028D02*
X117955864Y-54522647D01*
X117955864Y-54522647D02*
X118032054Y-54446457D01*
X118032054Y-54446457D02*
X118108245Y-54408362D01*
X116359674Y-54186267D02*
X118523483Y-54186267D01*
D10*
X153189104Y-93062080D02*
X153189104Y-93538271D01*
X153189104Y-93538271D02*
X150331961Y-93538271D01*
X150331961Y-93538271D02*
X150331961Y-93062080D01*
X151379580Y-92014462D02*
X151284342Y-92204938D01*
X151284342Y-92204938D02*
X151189104Y-92300176D01*
X151189104Y-92300176D02*
X150998628Y-92395414D01*
X150998628Y-92395414D02*
X150903390Y-92395414D01*
X150903390Y-92395414D02*
X150712914Y-92300176D01*
X150712914Y-92300176D02*
X150617676Y-92204938D01*
X150617676Y-92204938D02*
X150522438Y-92014462D01*
X150522438Y-92014462D02*
X150522438Y-91633509D01*
X150522438Y-91633509D02*
X150617676Y-91443033D01*
X150617676Y-91443033D02*
X150712914Y-91347795D01*
X150712914Y-91347795D02*
X150903390Y-91252557D01*
X150903390Y-91252557D02*
X150998628Y-91252557D01*
X150998628Y-91252557D02*
X151189104Y-91347795D01*
X151189104Y-91347795D02*
X151284342Y-91443033D01*
X151284342Y-91443033D02*
X151379580Y-91633509D01*
X151379580Y-91633509D02*
X151379580Y-92014462D01*
X151379580Y-92014462D02*
X151474819Y-92204938D01*
X151474819Y-92204938D02*
X151570057Y-92300176D01*
X151570057Y-92300176D02*
X151760533Y-92395414D01*
X151760533Y-92395414D02*
X152141485Y-92395414D01*
X152141485Y-92395414D02*
X152331961Y-92300176D01*
X152331961Y-92300176D02*
X152427200Y-92204938D01*
X152427200Y-92204938D02*
X152522438Y-92014462D01*
X152522438Y-92014462D02*
X152522438Y-91633509D01*
X152522438Y-91633509D02*
X152427200Y-91443033D01*
X152427200Y-91443033D02*
X152331961Y-91347795D01*
X152331961Y-91347795D02*
X152141485Y-91252557D01*
X152141485Y-91252557D02*
X151760533Y-91252557D01*
X151760533Y-91252557D02*
X151570057Y-91347795D01*
X151570057Y-91347795D02*
X151474819Y-91443033D01*
X151474819Y-91443033D02*
X151379580Y-91633509D01*
X152331961Y-90395414D02*
X152427200Y-90300176D01*
X152427200Y-90300176D02*
X152522438Y-90395414D01*
X152522438Y-90395414D02*
X152427200Y-90490652D01*
X152427200Y-90490652D02*
X152331961Y-90395414D01*
X152331961Y-90395414D02*
X152522438Y-90395414D01*
X152331961Y-89443033D02*
X152427200Y-89347795D01*
X152427200Y-89347795D02*
X152522438Y-89443033D01*
X152522438Y-89443033D02*
X152427200Y-89538271D01*
X152427200Y-89538271D02*
X152331961Y-89443033D01*
X152331961Y-89443033D02*
X152522438Y-89443033D01*
X152522438Y-87443033D02*
X152522438Y-88585890D01*
X152522438Y-88014462D02*
X150522438Y-88014462D01*
X150522438Y-88014462D02*
X150808152Y-88204938D01*
X150808152Y-88204938D02*
X150998628Y-88395414D01*
X150998628Y-88395414D02*
X151093866Y-88585890D01*
X150522438Y-85633509D02*
X150522438Y-86585890D01*
X150522438Y-86585890D02*
X151474819Y-86681128D01*
X151474819Y-86681128D02*
X151379580Y-86585890D01*
X151379580Y-86585890D02*
X151284342Y-86395414D01*
X151284342Y-86395414D02*
X151284342Y-85919223D01*
X151284342Y-85919223D02*
X151379580Y-85728747D01*
X151379580Y-85728747D02*
X151474819Y-85633509D01*
X151474819Y-85633509D02*
X151665295Y-85538271D01*
X151665295Y-85538271D02*
X152141485Y-85538271D01*
X152141485Y-85538271D02*
X152331961Y-85633509D01*
X152331961Y-85633509D02*
X152427200Y-85728747D01*
X152427200Y-85728747D02*
X152522438Y-85919223D01*
X152522438Y-85919223D02*
X152522438Y-86395414D01*
X152522438Y-86395414D02*
X152427200Y-86585890D01*
X152427200Y-86585890D02*
X152331961Y-86681128D01*
X153189104Y-84871604D02*
X153189104Y-84395414D01*
X153189104Y-84395414D02*
X150331961Y-84395414D01*
X150331961Y-84395414D02*
X150331961Y-84871604D01*
D12*
X111390149Y-55091695D02*
X111390149Y-54291695D01*
X111390149Y-54291695D02*
X111694911Y-54291695D01*
X111694911Y-54291695D02*
X111771101Y-54329790D01*
X111771101Y-54329790D02*
X111809196Y-54367885D01*
X111809196Y-54367885D02*
X111847292Y-54444076D01*
X111847292Y-54444076D02*
X111847292Y-54558361D01*
X111847292Y-54558361D02*
X111809196Y-54634552D01*
X111809196Y-54634552D02*
X111771101Y-54672647D01*
X111771101Y-54672647D02*
X111694911Y-54710742D01*
X111694911Y-54710742D02*
X111390149Y-54710742D01*
X112647292Y-55015504D02*
X112609196Y-55053600D01*
X112609196Y-55053600D02*
X112494911Y-55091695D01*
X112494911Y-55091695D02*
X112418720Y-55091695D01*
X112418720Y-55091695D02*
X112304434Y-55053600D01*
X112304434Y-55053600D02*
X112228244Y-54977409D01*
X112228244Y-54977409D02*
X112190149Y-54901219D01*
X112190149Y-54901219D02*
X112152053Y-54748838D01*
X112152053Y-54748838D02*
X112152053Y-54634552D01*
X112152053Y-54634552D02*
X112190149Y-54482171D01*
X112190149Y-54482171D02*
X112228244Y-54405980D01*
X112228244Y-54405980D02*
X112304434Y-54329790D01*
X112304434Y-54329790D02*
X112418720Y-54291695D01*
X112418720Y-54291695D02*
X112494911Y-54291695D01*
X112494911Y-54291695D02*
X112609196Y-54329790D01*
X112609196Y-54329790D02*
X112647292Y-54367885D01*
X112990149Y-54672647D02*
X113256815Y-54672647D01*
X113371101Y-55091695D02*
X112990149Y-55091695D01*
X112990149Y-55091695D02*
X112990149Y-54291695D01*
X112990149Y-54291695D02*
X113371101Y-54291695D01*
X106691695Y-89560803D02*
X106691695Y-90017946D01*
X106691695Y-89789374D02*
X105891695Y-89789374D01*
X105891695Y-89789374D02*
X106005980Y-89865565D01*
X106005980Y-89865565D02*
X106082171Y-89941755D01*
X106082171Y-89941755D02*
X106120266Y-90017946D01*
X105891695Y-88836993D02*
X105891695Y-89217945D01*
X105891695Y-89217945D02*
X106272647Y-89256041D01*
X106272647Y-89256041D02*
X106234552Y-89217945D01*
X106234552Y-89217945D02*
X106196457Y-89141755D01*
X106196457Y-89141755D02*
X106196457Y-88951279D01*
X106196457Y-88951279D02*
X106234552Y-88875088D01*
X106234552Y-88875088D02*
X106272647Y-88836993D01*
X106272647Y-88836993D02*
X106348838Y-88798898D01*
X106348838Y-88798898D02*
X106539314Y-88798898D01*
X106539314Y-88798898D02*
X106615504Y-88836993D01*
X106615504Y-88836993D02*
X106653600Y-88875088D01*
X106653600Y-88875088D02*
X106691695Y-88951279D01*
X106691695Y-88951279D02*
X106691695Y-89141755D01*
X106691695Y-89141755D02*
X106653600Y-89217945D01*
X106653600Y-89217945D02*
X106615504Y-89256041D01*
X174215504Y-69564612D02*
X174253600Y-69602708D01*
X174253600Y-69602708D02*
X174291695Y-69716993D01*
X174291695Y-69716993D02*
X174291695Y-69793184D01*
X174291695Y-69793184D02*
X174253600Y-69907470D01*
X174253600Y-69907470D02*
X174177409Y-69983660D01*
X174177409Y-69983660D02*
X174101219Y-70021755D01*
X174101219Y-70021755D02*
X173948838Y-70059851D01*
X173948838Y-70059851D02*
X173834552Y-70059851D01*
X173834552Y-70059851D02*
X173682171Y-70021755D01*
X173682171Y-70021755D02*
X173605980Y-69983660D01*
X173605980Y-69983660D02*
X173529790Y-69907470D01*
X173529790Y-69907470D02*
X173491695Y-69793184D01*
X173491695Y-69793184D02*
X173491695Y-69716993D01*
X173491695Y-69716993D02*
X173529790Y-69602708D01*
X173529790Y-69602708D02*
X173567885Y-69564612D01*
X174291695Y-68840803D02*
X174291695Y-69221755D01*
X174291695Y-69221755D02*
X173491695Y-69221755D01*
X174291695Y-68574136D02*
X173491695Y-68574136D01*
X174291695Y-68116993D02*
X173834552Y-68459851D01*
X173491695Y-68116993D02*
X173948838Y-68574136D01*
X162629790Y-69697946D02*
X162591695Y-69774136D01*
X162591695Y-69774136D02*
X162591695Y-69888422D01*
X162591695Y-69888422D02*
X162629790Y-70002708D01*
X162629790Y-70002708D02*
X162705980Y-70078898D01*
X162705980Y-70078898D02*
X162782171Y-70116993D01*
X162782171Y-70116993D02*
X162934552Y-70155089D01*
X162934552Y-70155089D02*
X163048838Y-70155089D01*
X163048838Y-70155089D02*
X163201219Y-70116993D01*
X163201219Y-70116993D02*
X163277409Y-70078898D01*
X163277409Y-70078898D02*
X163353600Y-70002708D01*
X163353600Y-70002708D02*
X163391695Y-69888422D01*
X163391695Y-69888422D02*
X163391695Y-69812231D01*
X163391695Y-69812231D02*
X163353600Y-69697946D01*
X163353600Y-69697946D02*
X163315504Y-69659850D01*
X163315504Y-69659850D02*
X163048838Y-69659850D01*
X163048838Y-69659850D02*
X163048838Y-69812231D01*
X163391695Y-69316993D02*
X162591695Y-69316993D01*
X162591695Y-69316993D02*
X163391695Y-68859850D01*
X163391695Y-68859850D02*
X162591695Y-68859850D01*
X163391695Y-68478898D02*
X162591695Y-68478898D01*
X162591695Y-68478898D02*
X162591695Y-68288422D01*
X162591695Y-68288422D02*
X162629790Y-68174136D01*
X162629790Y-68174136D02*
X162705980Y-68097946D01*
X162705980Y-68097946D02*
X162782171Y-68059851D01*
X162782171Y-68059851D02*
X162934552Y-68021755D01*
X162934552Y-68021755D02*
X163048838Y-68021755D01*
X163048838Y-68021755D02*
X163201219Y-68059851D01*
X163201219Y-68059851D02*
X163277409Y-68097946D01*
X163277409Y-68097946D02*
X163353600Y-68174136D01*
X163353600Y-68174136D02*
X163391695Y-68288422D01*
X163391695Y-68288422D02*
X163391695Y-68478898D01*
D13*
X100283333Y-54529580D02*
X100235714Y-54577200D01*
X100235714Y-54577200D02*
X100092857Y-54624819D01*
X100092857Y-54624819D02*
X99997619Y-54624819D01*
X99997619Y-54624819D02*
X99854762Y-54577200D01*
X99854762Y-54577200D02*
X99759524Y-54481961D01*
X99759524Y-54481961D02*
X99711905Y-54386723D01*
X99711905Y-54386723D02*
X99664286Y-54196247D01*
X99664286Y-54196247D02*
X99664286Y-54053390D01*
X99664286Y-54053390D02*
X99711905Y-53862914D01*
X99711905Y-53862914D02*
X99759524Y-53767676D01*
X99759524Y-53767676D02*
X99854762Y-53672438D01*
X99854762Y-53672438D02*
X99997619Y-53624819D01*
X99997619Y-53624819D02*
X100092857Y-53624819D01*
X100092857Y-53624819D02*
X100235714Y-53672438D01*
X100235714Y-53672438D02*
X100283333Y-53720057D01*
X101188095Y-53624819D02*
X100711905Y-53624819D01*
X100711905Y-53624819D02*
X100664286Y-54101009D01*
X100664286Y-54101009D02*
X100711905Y-54053390D01*
X100711905Y-54053390D02*
X100807143Y-54005771D01*
X100807143Y-54005771D02*
X101045238Y-54005771D01*
X101045238Y-54005771D02*
X101140476Y-54053390D01*
X101140476Y-54053390D02*
X101188095Y-54101009D01*
X101188095Y-54101009D02*
X101235714Y-54196247D01*
X101235714Y-54196247D02*
X101235714Y-54434342D01*
X101235714Y-54434342D02*
X101188095Y-54529580D01*
X101188095Y-54529580D02*
X101140476Y-54577200D01*
X101140476Y-54577200D02*
X101045238Y-54624819D01*
X101045238Y-54624819D02*
X100807143Y-54624819D01*
X100807143Y-54624819D02*
X100711905Y-54577200D01*
X100711905Y-54577200D02*
X100664286Y-54529580D01*
X121633333Y-55829580D02*
X121585714Y-55877200D01*
X121585714Y-55877200D02*
X121442857Y-55924819D01*
X121442857Y-55924819D02*
X121347619Y-55924819D01*
X121347619Y-55924819D02*
X121204762Y-55877200D01*
X121204762Y-55877200D02*
X121109524Y-55781961D01*
X121109524Y-55781961D02*
X121061905Y-55686723D01*
X121061905Y-55686723D02*
X121014286Y-55496247D01*
X121014286Y-55496247D02*
X121014286Y-55353390D01*
X121014286Y-55353390D02*
X121061905Y-55162914D01*
X121061905Y-55162914D02*
X121109524Y-55067676D01*
X121109524Y-55067676D02*
X121204762Y-54972438D01*
X121204762Y-54972438D02*
X121347619Y-54924819D01*
X121347619Y-54924819D02*
X121442857Y-54924819D01*
X121442857Y-54924819D02*
X121585714Y-54972438D01*
X121585714Y-54972438D02*
X121633333Y-55020057D01*
X121966667Y-54924819D02*
X122633333Y-54924819D01*
X122633333Y-54924819D02*
X122204762Y-55924819D01*
X118629580Y-61932857D02*
X118677200Y-61980476D01*
X118677200Y-61980476D02*
X118724819Y-62123333D01*
X118724819Y-62123333D02*
X118724819Y-62218571D01*
X118724819Y-62218571D02*
X118677200Y-62361428D01*
X118677200Y-62361428D02*
X118581961Y-62456666D01*
X118581961Y-62456666D02*
X118486723Y-62504285D01*
X118486723Y-62504285D02*
X118296247Y-62551904D01*
X118296247Y-62551904D02*
X118153390Y-62551904D01*
X118153390Y-62551904D02*
X117962914Y-62504285D01*
X117962914Y-62504285D02*
X117867676Y-62456666D01*
X117867676Y-62456666D02*
X117772438Y-62361428D01*
X117772438Y-62361428D02*
X117724819Y-62218571D01*
X117724819Y-62218571D02*
X117724819Y-62123333D01*
X117724819Y-62123333D02*
X117772438Y-61980476D01*
X117772438Y-61980476D02*
X117820057Y-61932857D01*
X118724819Y-60980476D02*
X118724819Y-61551904D01*
X118724819Y-61266190D02*
X117724819Y-61266190D01*
X117724819Y-61266190D02*
X117867676Y-61361428D01*
X117867676Y-61361428D02*
X117962914Y-61456666D01*
X117962914Y-61456666D02*
X118010533Y-61551904D01*
X118724819Y-60028095D02*
X118724819Y-60599523D01*
X118724819Y-60313809D02*
X117724819Y-60313809D01*
X117724819Y-60313809D02*
X117867676Y-60409047D01*
X117867676Y-60409047D02*
X117962914Y-60504285D01*
X117962914Y-60504285D02*
X118010533Y-60599523D01*
X112363095Y-82756519D02*
X112363095Y-83566042D01*
X112363095Y-83566042D02*
X112410714Y-83661280D01*
X112410714Y-83661280D02*
X112458333Y-83708900D01*
X112458333Y-83708900D02*
X112553571Y-83756519D01*
X112553571Y-83756519D02*
X112744047Y-83756519D01*
X112744047Y-83756519D02*
X112839285Y-83708900D01*
X112839285Y-83708900D02*
X112886904Y-83661280D01*
X112886904Y-83661280D02*
X112934523Y-83566042D01*
X112934523Y-83566042D02*
X112934523Y-82756519D01*
X113315476Y-82756519D02*
X113934523Y-82756519D01*
X113934523Y-82756519D02*
X113601190Y-83137471D01*
X113601190Y-83137471D02*
X113744047Y-83137471D01*
X113744047Y-83137471D02*
X113839285Y-83185090D01*
X113839285Y-83185090D02*
X113886904Y-83232709D01*
X113886904Y-83232709D02*
X113934523Y-83327947D01*
X113934523Y-83327947D02*
X113934523Y-83566042D01*
X113934523Y-83566042D02*
X113886904Y-83661280D01*
X113886904Y-83661280D02*
X113839285Y-83708900D01*
X113839285Y-83708900D02*
X113744047Y-83756519D01*
X113744047Y-83756519D02*
X113458333Y-83756519D01*
X113458333Y-83756519D02*
X113363095Y-83708900D01*
X113363095Y-83708900D02*
X113315476Y-83661280D01*
X121568333Y-77729580D02*
X121520714Y-77777200D01*
X121520714Y-77777200D02*
X121377857Y-77824819D01*
X121377857Y-77824819D02*
X121282619Y-77824819D01*
X121282619Y-77824819D02*
X121139762Y-77777200D01*
X121139762Y-77777200D02*
X121044524Y-77681961D01*
X121044524Y-77681961D02*
X120996905Y-77586723D01*
X120996905Y-77586723D02*
X120949286Y-77396247D01*
X120949286Y-77396247D02*
X120949286Y-77253390D01*
X120949286Y-77253390D02*
X120996905Y-77062914D01*
X120996905Y-77062914D02*
X121044524Y-76967676D01*
X121044524Y-76967676D02*
X121139762Y-76872438D01*
X121139762Y-76872438D02*
X121282619Y-76824819D01*
X121282619Y-76824819D02*
X121377857Y-76824819D01*
X121377857Y-76824819D02*
X121520714Y-76872438D01*
X121520714Y-76872438D02*
X121568333Y-76920057D01*
X122425476Y-76824819D02*
X122235000Y-76824819D01*
X122235000Y-76824819D02*
X122139762Y-76872438D01*
X122139762Y-76872438D02*
X122092143Y-76920057D01*
X122092143Y-76920057D02*
X121996905Y-77062914D01*
X121996905Y-77062914D02*
X121949286Y-77253390D01*
X121949286Y-77253390D02*
X121949286Y-77634342D01*
X121949286Y-77634342D02*
X121996905Y-77729580D01*
X121996905Y-77729580D02*
X122044524Y-77777200D01*
X122044524Y-77777200D02*
X122139762Y-77824819D01*
X122139762Y-77824819D02*
X122330238Y-77824819D01*
X122330238Y-77824819D02*
X122425476Y-77777200D01*
X122425476Y-77777200D02*
X122473095Y-77729580D01*
X122473095Y-77729580D02*
X122520714Y-77634342D01*
X122520714Y-77634342D02*
X122520714Y-77396247D01*
X122520714Y-77396247D02*
X122473095Y-77301009D01*
X122473095Y-77301009D02*
X122425476Y-77253390D01*
X122425476Y-77253390D02*
X122330238Y-77205771D01*
X122330238Y-77205771D02*
X122139762Y-77205771D01*
X122139762Y-77205771D02*
X122044524Y-77253390D01*
X122044524Y-77253390D02*
X121996905Y-77301009D01*
X121996905Y-77301009D02*
X121949286Y-77396247D01*
X112358095Y-61513219D02*
X112358095Y-62322742D01*
X112358095Y-62322742D02*
X112405714Y-62417980D01*
X112405714Y-62417980D02*
X112453333Y-62465600D01*
X112453333Y-62465600D02*
X112548571Y-62513219D01*
X112548571Y-62513219D02*
X112739047Y-62513219D01*
X112739047Y-62513219D02*
X112834285Y-62465600D01*
X112834285Y-62465600D02*
X112881904Y-62417980D01*
X112881904Y-62417980D02*
X112929523Y-62322742D01*
X112929523Y-62322742D02*
X112929523Y-61513219D01*
X113929523Y-62513219D02*
X113358095Y-62513219D01*
X113643809Y-62513219D02*
X113643809Y-61513219D01*
X113643809Y-61513219D02*
X113548571Y-61656076D01*
X113548571Y-61656076D02*
X113453333Y-61751314D01*
X113453333Y-61751314D02*
X113358095Y-61798933D01*
X139454819Y-67761904D02*
X140264342Y-67761904D01*
X140264342Y-67761904D02*
X140359580Y-67714285D01*
X140359580Y-67714285D02*
X140407200Y-67666666D01*
X140407200Y-67666666D02*
X140454819Y-67571428D01*
X140454819Y-67571428D02*
X140454819Y-67380952D01*
X140454819Y-67380952D02*
X140407200Y-67285714D01*
X140407200Y-67285714D02*
X140359580Y-67238095D01*
X140359580Y-67238095D02*
X140264342Y-67190476D01*
X140264342Y-67190476D02*
X139454819Y-67190476D01*
X139454819Y-66238095D02*
X139454819Y-66714285D01*
X139454819Y-66714285D02*
X139931009Y-66761904D01*
X139931009Y-66761904D02*
X139883390Y-66714285D01*
X139883390Y-66714285D02*
X139835771Y-66619047D01*
X139835771Y-66619047D02*
X139835771Y-66380952D01*
X139835771Y-66380952D02*
X139883390Y-66285714D01*
X139883390Y-66285714D02*
X139931009Y-66238095D01*
X139931009Y-66238095D02*
X140026247Y-66190476D01*
X140026247Y-66190476D02*
X140264342Y-66190476D01*
X140264342Y-66190476D02*
X140359580Y-66238095D01*
X140359580Y-66238095D02*
X140407200Y-66285714D01*
X140407200Y-66285714D02*
X140454819Y-66380952D01*
X140454819Y-66380952D02*
X140454819Y-66619047D01*
X140454819Y-66619047D02*
X140407200Y-66714285D01*
X140407200Y-66714285D02*
X140359580Y-66761904D01*
X139554819Y-89616904D02*
X140364342Y-89616904D01*
X140364342Y-89616904D02*
X140459580Y-89569285D01*
X140459580Y-89569285D02*
X140507200Y-89521666D01*
X140507200Y-89521666D02*
X140554819Y-89426428D01*
X140554819Y-89426428D02*
X140554819Y-89235952D01*
X140554819Y-89235952D02*
X140507200Y-89140714D01*
X140507200Y-89140714D02*
X140459580Y-89093095D01*
X140459580Y-89093095D02*
X140364342Y-89045476D01*
X140364342Y-89045476D02*
X139554819Y-89045476D01*
X139554819Y-88140714D02*
X139554819Y-88331190D01*
X139554819Y-88331190D02*
X139602438Y-88426428D01*
X139602438Y-88426428D02*
X139650057Y-88474047D01*
X139650057Y-88474047D02*
X139792914Y-88569285D01*
X139792914Y-88569285D02*
X139983390Y-88616904D01*
X139983390Y-88616904D02*
X140364342Y-88616904D01*
X140364342Y-88616904D02*
X140459580Y-88569285D01*
X140459580Y-88569285D02*
X140507200Y-88521666D01*
X140507200Y-88521666D02*
X140554819Y-88426428D01*
X140554819Y-88426428D02*
X140554819Y-88235952D01*
X140554819Y-88235952D02*
X140507200Y-88140714D01*
X140507200Y-88140714D02*
X140459580Y-88093095D01*
X140459580Y-88093095D02*
X140364342Y-88045476D01*
X140364342Y-88045476D02*
X140126247Y-88045476D01*
X140126247Y-88045476D02*
X140031009Y-88093095D01*
X140031009Y-88093095D02*
X139983390Y-88140714D01*
X139983390Y-88140714D02*
X139935771Y-88235952D01*
X139935771Y-88235952D02*
X139935771Y-88426428D01*
X139935771Y-88426428D02*
X139983390Y-88521666D01*
X139983390Y-88521666D02*
X140031009Y-88569285D01*
X140031009Y-88569285D02*
X140126247Y-88616904D01*
X112358095Y-72149819D02*
X112358095Y-72959342D01*
X112358095Y-72959342D02*
X112405714Y-73054580D01*
X112405714Y-73054580D02*
X112453333Y-73102200D01*
X112453333Y-73102200D02*
X112548571Y-73149819D01*
X112548571Y-73149819D02*
X112739047Y-73149819D01*
X112739047Y-73149819D02*
X112834285Y-73102200D01*
X112834285Y-73102200D02*
X112881904Y-73054580D01*
X112881904Y-73054580D02*
X112929523Y-72959342D01*
X112929523Y-72959342D02*
X112929523Y-72149819D01*
X113358095Y-72245057D02*
X113405714Y-72197438D01*
X113405714Y-72197438D02*
X113500952Y-72149819D01*
X113500952Y-72149819D02*
X113739047Y-72149819D01*
X113739047Y-72149819D02*
X113834285Y-72197438D01*
X113834285Y-72197438D02*
X113881904Y-72245057D01*
X113881904Y-72245057D02*
X113929523Y-72340295D01*
X113929523Y-72340295D02*
X113929523Y-72435533D01*
X113929523Y-72435533D02*
X113881904Y-72578390D01*
X113881904Y-72578390D02*
X113310476Y-73149819D01*
X113310476Y-73149819D02*
X113929523Y-73149819D01*
X118759580Y-65162857D02*
X118807200Y-65210476D01*
X118807200Y-65210476D02*
X118854819Y-65353333D01*
X118854819Y-65353333D02*
X118854819Y-65448571D01*
X118854819Y-65448571D02*
X118807200Y-65591428D01*
X118807200Y-65591428D02*
X118711961Y-65686666D01*
X118711961Y-65686666D02*
X118616723Y-65734285D01*
X118616723Y-65734285D02*
X118426247Y-65781904D01*
X118426247Y-65781904D02*
X118283390Y-65781904D01*
X118283390Y-65781904D02*
X118092914Y-65734285D01*
X118092914Y-65734285D02*
X117997676Y-65686666D01*
X117997676Y-65686666D02*
X117902438Y-65591428D01*
X117902438Y-65591428D02*
X117854819Y-65448571D01*
X117854819Y-65448571D02*
X117854819Y-65353333D01*
X117854819Y-65353333D02*
X117902438Y-65210476D01*
X117902438Y-65210476D02*
X117950057Y-65162857D01*
X118854819Y-64210476D02*
X118854819Y-64781904D01*
X118854819Y-64496190D02*
X117854819Y-64496190D01*
X117854819Y-64496190D02*
X117997676Y-64591428D01*
X117997676Y-64591428D02*
X118092914Y-64686666D01*
X118092914Y-64686666D02*
X118140533Y-64781904D01*
X117854819Y-63591428D02*
X117854819Y-63496190D01*
X117854819Y-63496190D02*
X117902438Y-63400952D01*
X117902438Y-63400952D02*
X117950057Y-63353333D01*
X117950057Y-63353333D02*
X118045295Y-63305714D01*
X118045295Y-63305714D02*
X118235771Y-63258095D01*
X118235771Y-63258095D02*
X118473866Y-63258095D01*
X118473866Y-63258095D02*
X118664342Y-63305714D01*
X118664342Y-63305714D02*
X118759580Y-63353333D01*
X118759580Y-63353333D02*
X118807200Y-63400952D01*
X118807200Y-63400952D02*
X118854819Y-63496190D01*
X118854819Y-63496190D02*
X118854819Y-63591428D01*
X118854819Y-63591428D02*
X118807200Y-63686666D01*
X118807200Y-63686666D02*
X118759580Y-63734285D01*
X118759580Y-63734285D02*
X118664342Y-63781904D01*
X118664342Y-63781904D02*
X118473866Y-63829523D01*
X118473866Y-63829523D02*
X118235771Y-63829523D01*
X118235771Y-63829523D02*
X118045295Y-63781904D01*
X118045295Y-63781904D02*
X117950057Y-63734285D01*
X117950057Y-63734285D02*
X117902438Y-63686666D01*
X117902438Y-63686666D02*
X117854819Y-63591428D01*
X112353095Y-93363219D02*
X112353095Y-94172742D01*
X112353095Y-94172742D02*
X112400714Y-94267980D01*
X112400714Y-94267980D02*
X112448333Y-94315600D01*
X112448333Y-94315600D02*
X112543571Y-94363219D01*
X112543571Y-94363219D02*
X112734047Y-94363219D01*
X112734047Y-94363219D02*
X112829285Y-94315600D01*
X112829285Y-94315600D02*
X112876904Y-94267980D01*
X112876904Y-94267980D02*
X112924523Y-94172742D01*
X112924523Y-94172742D02*
X112924523Y-93363219D01*
X113829285Y-93696552D02*
X113829285Y-94363219D01*
X113591190Y-93315600D02*
X113353095Y-94029885D01*
X113353095Y-94029885D02*
X113972142Y-94029885D01*
X118639580Y-77216666D02*
X118687200Y-77264285D01*
X118687200Y-77264285D02*
X118734819Y-77407142D01*
X118734819Y-77407142D02*
X118734819Y-77502380D01*
X118734819Y-77502380D02*
X118687200Y-77645237D01*
X118687200Y-77645237D02*
X118591961Y-77740475D01*
X118591961Y-77740475D02*
X118496723Y-77788094D01*
X118496723Y-77788094D02*
X118306247Y-77835713D01*
X118306247Y-77835713D02*
X118163390Y-77835713D01*
X118163390Y-77835713D02*
X117972914Y-77788094D01*
X117972914Y-77788094D02*
X117877676Y-77740475D01*
X117877676Y-77740475D02*
X117782438Y-77645237D01*
X117782438Y-77645237D02*
X117734819Y-77502380D01*
X117734819Y-77502380D02*
X117734819Y-77407142D01*
X117734819Y-77407142D02*
X117782438Y-77264285D01*
X117782438Y-77264285D02*
X117830057Y-77216666D01*
X118734819Y-76740475D02*
X118734819Y-76549999D01*
X118734819Y-76549999D02*
X118687200Y-76454761D01*
X118687200Y-76454761D02*
X118639580Y-76407142D01*
X118639580Y-76407142D02*
X118496723Y-76311904D01*
X118496723Y-76311904D02*
X118306247Y-76264285D01*
X118306247Y-76264285D02*
X117925295Y-76264285D01*
X117925295Y-76264285D02*
X117830057Y-76311904D01*
X117830057Y-76311904D02*
X117782438Y-76359523D01*
X117782438Y-76359523D02*
X117734819Y-76454761D01*
X117734819Y-76454761D02*
X117734819Y-76645237D01*
X117734819Y-76645237D02*
X117782438Y-76740475D01*
X117782438Y-76740475D02*
X117830057Y-76788094D01*
X117830057Y-76788094D02*
X117925295Y-76835713D01*
X117925295Y-76835713D02*
X118163390Y-76835713D01*
X118163390Y-76835713D02*
X118258628Y-76788094D01*
X118258628Y-76788094D02*
X118306247Y-76740475D01*
X118306247Y-76740475D02*
X118353866Y-76645237D01*
X118353866Y-76645237D02*
X118353866Y-76454761D01*
X118353866Y-76454761D02*
X118306247Y-76359523D01*
X118306247Y-76359523D02*
X118258628Y-76311904D01*
X118258628Y-76311904D02*
X118163390Y-76264285D01*
X118729580Y-87976666D02*
X118777200Y-88024285D01*
X118777200Y-88024285D02*
X118824819Y-88167142D01*
X118824819Y-88167142D02*
X118824819Y-88262380D01*
X118824819Y-88262380D02*
X118777200Y-88405237D01*
X118777200Y-88405237D02*
X118681961Y-88500475D01*
X118681961Y-88500475D02*
X118586723Y-88548094D01*
X118586723Y-88548094D02*
X118396247Y-88595713D01*
X118396247Y-88595713D02*
X118253390Y-88595713D01*
X118253390Y-88595713D02*
X118062914Y-88548094D01*
X118062914Y-88548094D02*
X117967676Y-88500475D01*
X117967676Y-88500475D02*
X117872438Y-88405237D01*
X117872438Y-88405237D02*
X117824819Y-88262380D01*
X117824819Y-88262380D02*
X117824819Y-88167142D01*
X117824819Y-88167142D02*
X117872438Y-88024285D01*
X117872438Y-88024285D02*
X117920057Y-87976666D01*
X118253390Y-87405237D02*
X118205771Y-87500475D01*
X118205771Y-87500475D02*
X118158152Y-87548094D01*
X118158152Y-87548094D02*
X118062914Y-87595713D01*
X118062914Y-87595713D02*
X118015295Y-87595713D01*
X118015295Y-87595713D02*
X117920057Y-87548094D01*
X117920057Y-87548094D02*
X117872438Y-87500475D01*
X117872438Y-87500475D02*
X117824819Y-87405237D01*
X117824819Y-87405237D02*
X117824819Y-87214761D01*
X117824819Y-87214761D02*
X117872438Y-87119523D01*
X117872438Y-87119523D02*
X117920057Y-87071904D01*
X117920057Y-87071904D02*
X118015295Y-87024285D01*
X118015295Y-87024285D02*
X118062914Y-87024285D01*
X118062914Y-87024285D02*
X118158152Y-87071904D01*
X118158152Y-87071904D02*
X118205771Y-87119523D01*
X118205771Y-87119523D02*
X118253390Y-87214761D01*
X118253390Y-87214761D02*
X118253390Y-87405237D01*
X118253390Y-87405237D02*
X118301009Y-87500475D01*
X118301009Y-87500475D02*
X118348628Y-87548094D01*
X118348628Y-87548094D02*
X118443866Y-87595713D01*
X118443866Y-87595713D02*
X118634342Y-87595713D01*
X118634342Y-87595713D02*
X118729580Y-87548094D01*
X118729580Y-87548094D02*
X118777200Y-87500475D01*
X118777200Y-87500475D02*
X118824819Y-87405237D01*
X118824819Y-87405237D02*
X118824819Y-87214761D01*
X118824819Y-87214761D02*
X118777200Y-87119523D01*
X118777200Y-87119523D02*
X118729580Y-87071904D01*
X118729580Y-87071904D02*
X118634342Y-87024285D01*
X118634342Y-87024285D02*
X118443866Y-87024285D01*
X118443866Y-87024285D02*
X118348628Y-87071904D01*
X118348628Y-87071904D02*
X118301009Y-87119523D01*
X118301009Y-87119523D02*
X118253390Y-87214761D01*
D14*
%TO.C,C5*%
X96825000Y-56185000D02*
X97450000Y-56185000D01*
X97137500Y-55872500D02*
X97137500Y-56497500D01*
X97690000Y-56174437D02*
X97690000Y-56810000D01*
X97690000Y-56174437D02*
X98754437Y-55110000D01*
X97690000Y-59565563D02*
X97690000Y-58930000D01*
X97690000Y-59565563D02*
X98754437Y-60630000D01*
X98754437Y-55110000D02*
X103210000Y-55110000D01*
X98754437Y-60630000D02*
X103210000Y-60630000D01*
X103210000Y-55110000D02*
X103210000Y-56810000D01*
X103210000Y-60630000D02*
X103210000Y-58930000D01*
%TO.C,D9*%
X148145000Y-48042500D02*
X148145000Y-50327500D01*
X148145000Y-50327500D02*
X149615000Y-50327500D01*
X149615000Y-50327500D02*
X149615000Y-48042500D01*
%TO.C,D5*%
X138020000Y-105507500D02*
X138020000Y-107792500D01*
X139490000Y-105507500D02*
X138020000Y-105507500D01*
X139490000Y-107792500D02*
X139490000Y-105507500D01*
%TO.C,R2*%
X145857500Y-103617742D02*
X145857500Y-104092258D01*
X146902500Y-103617742D02*
X146902500Y-104092258D01*
%TO.C,R12*%
X140777500Y-52232258D02*
X140777500Y-51757742D01*
X141822500Y-52232258D02*
X141822500Y-51757742D01*
%TO.C,R6*%
X135697500Y-103617742D02*
X135697500Y-104092258D01*
X136742500Y-103617742D02*
X136742500Y-104092258D01*
%TO.C,C7*%
X121659420Y-56390000D02*
X121940580Y-56390000D01*
X121659420Y-57410000D02*
X121940580Y-57410000D01*
%TO.C,D16*%
X130405000Y-48042500D02*
X130405000Y-50327500D01*
X130405000Y-50327500D02*
X131875000Y-50327500D01*
X131875000Y-50327500D02*
X131875000Y-48042500D01*
%TO.C,R10*%
X145857500Y-52232258D02*
X145857500Y-51757742D01*
X146902500Y-52232258D02*
X146902500Y-51757742D01*
%TO.C,C11*%
X117730000Y-58244420D02*
X117730000Y-58525580D01*
X118750000Y-58244420D02*
X118750000Y-58525580D01*
%TO.C,D3*%
X143100000Y-105507500D02*
X143100000Y-107792500D01*
X144570000Y-105507500D02*
X143100000Y-105507500D01*
X144570000Y-107792500D02*
X144570000Y-105507500D01*
%TO.C,D11*%
X143065000Y-48042500D02*
X143065000Y-50327500D01*
X143065000Y-50327500D02*
X144535000Y-50327500D01*
X144535000Y-50327500D02*
X144535000Y-48042500D01*
%TO.C,U3*%
X113115000Y-78236700D02*
X111165000Y-78236700D01*
X113115000Y-78236700D02*
X115065000Y-78236700D01*
X113115000Y-88356700D02*
X111165000Y-88356700D01*
X113115000Y-88356700D02*
X115065000Y-88356700D01*
X110415000Y-78291700D02*
X110175000Y-77961700D01*
X110655000Y-77961700D01*
X110415000Y-78291700D01*
G36*
X110415000Y-78291700D02*
G01*
X110175000Y-77961700D01*
X110655000Y-77961700D01*
X110415000Y-78291700D01*
G37*
%TO.C,R15*%
X133157500Y-52232258D02*
X133157500Y-51757742D01*
X134202500Y-52232258D02*
X134202500Y-51757742D01*
%TO.C,C6*%
X121594420Y-78290000D02*
X121875580Y-78290000D01*
X121594420Y-79310000D02*
X121875580Y-79310000D01*
%TO.C,D1*%
X148180000Y-105507500D02*
X148180000Y-107792500D01*
X149650000Y-105507500D02*
X148180000Y-105507500D01*
X149650000Y-107792500D02*
X149650000Y-105507500D01*
%TO.C,U1*%
X113115000Y-56990000D02*
X111165000Y-56990000D01*
X113115000Y-56990000D02*
X115065000Y-56990000D01*
X113115000Y-67110000D02*
X111165000Y-67110000D01*
X113115000Y-67110000D02*
X115065000Y-67110000D01*
X110415000Y-57045000D02*
X110175000Y-56715000D01*
X110655000Y-56715000D01*
X110415000Y-57045000D01*
G36*
X110415000Y-57045000D02*
G01*
X110175000Y-56715000D01*
X110655000Y-56715000D01*
X110415000Y-57045000D01*
G37*
%TO.C,D15*%
X132945000Y-48042500D02*
X132945000Y-50327500D01*
X132945000Y-50327500D02*
X134415000Y-50327500D01*
X134415000Y-50327500D02*
X134415000Y-48042500D01*
%TO.C,R1*%
X148397500Y-103617742D02*
X148397500Y-104092258D01*
X149442500Y-103617742D02*
X149442500Y-104092258D01*
%TO.C,U5*%
X119590000Y-58025000D02*
X119590000Y-75925000D01*
X119590000Y-75925000D02*
X160470000Y-75925000D01*
X119650000Y-60515000D02*
X119650000Y-65975000D01*
X119650000Y-67975000D02*
X119650000Y-73435000D01*
X119650000Y-73435000D02*
X160410000Y-73435000D01*
X160410000Y-60515000D02*
X119650000Y-60515000D01*
X160410000Y-73435000D02*
X160410000Y-60515000D01*
X160470000Y-58025000D02*
X119590000Y-58025000D01*
X160470000Y-75925000D02*
X160470000Y-58025000D01*
X119650000Y-65975000D02*
G75*
G02*
X119650000Y-67975000I0J-1000000D01*
G01*
%TO.C,U6*%
X119590000Y-79885000D02*
X119590000Y-97785000D01*
X119590000Y-97785000D02*
X160470000Y-97785000D01*
X119650000Y-82375000D02*
X119650000Y-87835000D01*
X119650000Y-89835000D02*
X119650000Y-95295000D01*
X119650000Y-95295000D02*
X160410000Y-95295000D01*
X160410000Y-82375000D02*
X119650000Y-82375000D01*
X160410000Y-95295000D02*
X160410000Y-82375000D01*
X160470000Y-79885000D02*
X119590000Y-79885000D01*
X160470000Y-97785000D02*
X160470000Y-79885000D01*
X119650000Y-87835000D02*
G75*
G02*
X119650000Y-89835000I0J-1000000D01*
G01*
%TO.C,D2*%
X145640000Y-105507500D02*
X145640000Y-107792500D01*
X147110000Y-105507500D02*
X145640000Y-105507500D01*
X147110000Y-107792500D02*
X147110000Y-105507500D01*
%TO.C,D6*%
X135480000Y-105507500D02*
X135480000Y-107792500D01*
X136950000Y-105507500D02*
X135480000Y-105507500D01*
X136950000Y-107792500D02*
X136950000Y-105507500D01*
%TO.C,J1*%
X111120000Y-53530000D02*
X111120000Y-52200000D01*
X112450000Y-53530000D02*
X111120000Y-53530000D01*
X113720000Y-50870000D02*
X118860000Y-50870000D01*
X113720000Y-53530000D02*
X113720000Y-50870000D01*
X113720000Y-53530000D02*
X118860000Y-53530000D01*
X118860000Y-53530000D02*
X118860000Y-50870000D01*
%TO.C,U2*%
X113115000Y-67613300D02*
X111165000Y-67613300D01*
X113115000Y-67613300D02*
X115065000Y-67613300D01*
X113115000Y-77733300D02*
X111165000Y-77733300D01*
X113115000Y-77733300D02*
X115065000Y-77733300D01*
X110415000Y-67668300D02*
X110175000Y-67338300D01*
X110655000Y-67338300D01*
X110415000Y-67668300D01*
G36*
X110415000Y-67668300D02*
G01*
X110175000Y-67338300D01*
X110655000Y-67338300D01*
X110415000Y-67668300D01*
G37*
%TO.C,D12*%
X140525000Y-48042500D02*
X140525000Y-50327500D01*
X140525000Y-50327500D02*
X141995000Y-50327500D01*
X141995000Y-50327500D02*
X141995000Y-48042500D01*
%TO.C,J5*%
X129810000Y-54190000D02*
X129810000Y-56850000D01*
X147650000Y-54190000D02*
X129810000Y-54190000D01*
X147650000Y-54190000D02*
X147650000Y-56850000D01*
X147650000Y-56850000D02*
X129810000Y-56850000D01*
X148920000Y-54190000D02*
X150250000Y-54190000D01*
X150250000Y-54190000D02*
X150250000Y-55520000D01*
%TO.C,C10*%
X117920000Y-67590580D02*
X117920000Y-67309420D01*
X118940000Y-67590580D02*
X118940000Y-67309420D01*
%TO.C,R13*%
X138237500Y-52232258D02*
X138237500Y-51757742D01*
X139282500Y-52232258D02*
X139282500Y-51757742D01*
%TO.C,J2*%
X94760000Y-65960000D02*
X94760000Y-66960000D01*
X94760000Y-66960000D02*
X95760000Y-66460000D01*
X95760000Y-66460000D02*
X94760000Y-65960000D01*
X96150000Y-61250000D02*
X105270000Y-61250000D01*
X96150000Y-75840000D02*
X97460000Y-75840000D01*
X96150000Y-94530000D02*
X96150000Y-61250000D01*
X97460000Y-62550000D02*
X103960000Y-62550000D01*
X97460000Y-75840000D02*
X97460000Y-62550000D01*
X97460000Y-79940000D02*
X96150000Y-79940000D01*
X97460000Y-79940000D02*
X97460000Y-79940000D01*
X97460000Y-93230000D02*
X97460000Y-79940000D01*
X103960000Y-62550000D02*
X103960000Y-93230000D01*
X103960000Y-93230000D02*
X97460000Y-93230000D01*
X105270000Y-61250000D02*
X105270000Y-94530000D01*
X105270000Y-94530000D02*
X96150000Y-94530000D01*
%TO.C,R9*%
X148397500Y-52232258D02*
X148397500Y-51757742D01*
X149442500Y-52232258D02*
X149442500Y-51757742D01*
%TO.C,D8*%
X130400000Y-105507500D02*
X130400000Y-107792500D01*
X131870000Y-105507500D02*
X130400000Y-105507500D01*
X131870000Y-107792500D02*
X131870000Y-105507500D01*
%TO.C,R3*%
X143317500Y-103617742D02*
X143317500Y-104092258D01*
X144362500Y-103617742D02*
X144362500Y-104092258D01*
%TO.C,U4*%
X113115000Y-88860000D02*
X111165000Y-88860000D01*
X113115000Y-88860000D02*
X115065000Y-88860000D01*
X113115000Y-98980000D02*
X111165000Y-98980000D01*
X113115000Y-98980000D02*
X115065000Y-98980000D01*
X110415000Y-88915000D02*
X110175000Y-88585000D01*
X110655000Y-88585000D01*
X110415000Y-88915000D01*
G36*
X110415000Y-88915000D02*
G01*
X110175000Y-88585000D01*
X110655000Y-88585000D01*
X110415000Y-88915000D01*
G37*
%TO.C,R14*%
X135697500Y-52232258D02*
X135697500Y-51757742D01*
X136742500Y-52232258D02*
X136742500Y-51757742D01*
%TO.C,D7*%
X132940000Y-105507500D02*
X132940000Y-107792500D01*
X134410000Y-105507500D02*
X132940000Y-105507500D01*
X134410000Y-107792500D02*
X134410000Y-105507500D01*
%TO.C,R8*%
X130617500Y-103617742D02*
X130617500Y-104092258D01*
X131662500Y-103617742D02*
X131662500Y-104092258D01*
%TO.C,C9*%
X117330000Y-79479420D02*
X117330000Y-79760580D01*
X118350000Y-79479420D02*
X118350000Y-79760580D01*
%TO.C,R11*%
X143317500Y-52232258D02*
X143317500Y-51757742D01*
X144362500Y-52232258D02*
X144362500Y-51757742D01*
%TO.C,D14*%
X135485000Y-48042500D02*
X135485000Y-50327500D01*
X135485000Y-50327500D02*
X136955000Y-50327500D01*
X136955000Y-50327500D02*
X136955000Y-48042500D01*
%TO.C,R7*%
X133157500Y-103617742D02*
X133157500Y-104092258D01*
X134202500Y-103617742D02*
X134202500Y-104092258D01*
%TO.C,R5*%
X138237500Y-103617742D02*
X138237500Y-104092258D01*
X139282500Y-103617742D02*
X139282500Y-104092258D01*
%TO.C,R4*%
X140777500Y-103617742D02*
X140777500Y-104092258D01*
X141822500Y-103617742D02*
X141822500Y-104092258D01*
%TO.C,D13*%
X138025000Y-48042500D02*
X138025000Y-50327500D01*
X138025000Y-50327500D02*
X139495000Y-50327500D01*
X139495000Y-50327500D02*
X139495000Y-48042500D01*
%TO.C,C8*%
X117920000Y-90094420D02*
X117920000Y-90375580D01*
X118940000Y-90094420D02*
X118940000Y-90375580D01*
%TO.C,J3*%
X162710000Y-65960000D02*
X162710000Y-66960000D01*
X162710000Y-66960000D02*
X163710000Y-66460000D01*
X163710000Y-66460000D02*
X162710000Y-65960000D01*
X164100000Y-61250000D02*
X173220000Y-61250000D01*
X164100000Y-75840000D02*
X165410000Y-75840000D01*
X164100000Y-94530000D02*
X164100000Y-61250000D01*
X165410000Y-62550000D02*
X171910000Y-62550000D01*
X165410000Y-75840000D02*
X165410000Y-62550000D01*
X165410000Y-79940000D02*
X164100000Y-79940000D01*
X165410000Y-79940000D02*
X165410000Y-79940000D01*
X165410000Y-93230000D02*
X165410000Y-79940000D01*
X171910000Y-62550000D02*
X171910000Y-93230000D01*
X171910000Y-93230000D02*
X165410000Y-93230000D01*
X173220000Y-61250000D02*
X173220000Y-94530000D01*
X173220000Y-94530000D02*
X164100000Y-94530000D01*
%TO.C,R16*%
X130617500Y-52232258D02*
X130617500Y-51757742D01*
X131662500Y-52232258D02*
X131662500Y-51757742D01*
%TO.C,J4*%
X129810000Y-99000000D02*
X129810000Y-101660000D01*
X147650000Y-99000000D02*
X129810000Y-99000000D01*
X147650000Y-99000000D02*
X147650000Y-101660000D01*
X147650000Y-101660000D02*
X129810000Y-101660000D01*
X148920000Y-99000000D02*
X150250000Y-99000000D01*
X150250000Y-99000000D02*
X150250000Y-100330000D01*
%TO.C,D10*%
X145605000Y-48042500D02*
X145605000Y-50327500D01*
X145605000Y-50327500D02*
X147075000Y-50327500D01*
X147075000Y-50327500D02*
X147075000Y-48042500D01*
%TO.C,D4*%
X140560000Y-105507500D02*
X140560000Y-107792500D01*
X142030000Y-105507500D02*
X140560000Y-105507500D01*
X142030000Y-107792500D02*
X142030000Y-105507500D01*
%TD*%
M02*
