%TF.GenerationSoftware,KiCad,Pcbnew,8.0.7*%
%TF.CreationDate,2025-02-11T17:28:11+05:30*%
%TF.ProjectId,Program Counter,50726f67-7261-46d2-9043-6f756e746572,rev?*%
%TF.SameCoordinates,Original*%
%TF.FileFunction,Soldermask,Bot*%
%TF.FilePolarity,Negative*%
%FSLAX46Y46*%
G04 Gerber Fmt 4.6, Leading zero omitted, Abs format (unit mm)*
G04 Created by KiCad (PCBNEW 8.0.7) date 2025-02-11 17:28:11*
%MOMM*%
%LPD*%
G01*
G04 APERTURE LIST*
G04 Aperture macros list*
%AMRoundRect*
0 Rectangle with rounded corners*
0 $1 Rounding radius*
0 $2 $3 $4 $5 $6 $7 $8 $9 X,Y pos of 4 corners*
0 Add a 4 corners polygon primitive as box body*
4,1,4,$2,$3,$4,$5,$6,$7,$8,$9,$2,$3,0*
0 Add four circle primitives for the rounded corners*
1,1,$1+$1,$2,$3*
1,1,$1+$1,$4,$5*
1,1,$1+$1,$6,$7*
1,1,$1+$1,$8,$9*
0 Add four rect primitives between the rounded corners*
20,1,$1+$1,$2,$3,$4,$5,0*
20,1,$1+$1,$4,$5,$6,$7,0*
20,1,$1+$1,$6,$7,$8,$9,0*
20,1,$1+$1,$8,$9,$2,$3,0*%
G04 Aperture macros list end*
%ADD10R,1.600000X1.600000*%
%ADD11O,1.600000X1.600000*%
%ADD12R,1.700000X1.700000*%
%ADD13O,1.700000X1.700000*%
%ADD14RoundRect,0.250000X-0.600000X-0.600000X0.600000X-0.600000X0.600000X0.600000X-0.600000X0.600000X0*%
%ADD15C,1.700000*%
%ADD16RoundRect,0.225000X0.250000X-0.225000X0.250000X0.225000X-0.250000X0.225000X-0.250000X-0.225000X0*%
G04 APERTURE END LIST*
D10*
%TO.C,U5*%
X120980000Y-74595000D03*
D11*
X123520000Y-74595000D03*
X126060000Y-74595000D03*
X128600000Y-74595000D03*
X131140000Y-74595000D03*
X133680000Y-74595000D03*
X136220000Y-74595000D03*
X138760000Y-74595000D03*
X141300000Y-74595000D03*
X143840000Y-74595000D03*
X146380000Y-74595000D03*
X148920000Y-74595000D03*
X151460000Y-74595000D03*
X154000000Y-74595000D03*
X156540000Y-74595000D03*
X159080000Y-74595000D03*
X159080000Y-59355000D03*
X156540000Y-59355000D03*
X154000000Y-59355000D03*
X151460000Y-59355000D03*
X148920000Y-59355000D03*
X146380000Y-59355000D03*
X143840000Y-59355000D03*
X141300000Y-59355000D03*
X138760000Y-59355000D03*
X136220000Y-59355000D03*
X133680000Y-59355000D03*
X131140000Y-59355000D03*
X128600000Y-59355000D03*
X126060000Y-59355000D03*
X123520000Y-59355000D03*
X120980000Y-59355000D03*
%TD*%
D10*
%TO.C,U6*%
X120980000Y-96455000D03*
D11*
X123520000Y-96455000D03*
X126060000Y-96455000D03*
X128600000Y-96455000D03*
X131140000Y-96455000D03*
X133680000Y-96455000D03*
X136220000Y-96455000D03*
X138760000Y-96455000D03*
X141300000Y-96455000D03*
X143840000Y-96455000D03*
X146380000Y-96455000D03*
X148920000Y-96455000D03*
X151460000Y-96455000D03*
X154000000Y-96455000D03*
X156540000Y-96455000D03*
X159080000Y-96455000D03*
X159080000Y-81215000D03*
X156540000Y-81215000D03*
X154000000Y-81215000D03*
X151460000Y-81215000D03*
X148920000Y-81215000D03*
X146380000Y-81215000D03*
X143840000Y-81215000D03*
X141300000Y-81215000D03*
X138760000Y-81215000D03*
X136220000Y-81215000D03*
X133680000Y-81215000D03*
X131140000Y-81215000D03*
X128600000Y-81215000D03*
X126060000Y-81215000D03*
X123520000Y-81215000D03*
X120980000Y-81215000D03*
%TD*%
D12*
%TO.C,J1*%
X112450000Y-52200000D03*
D13*
X114990000Y-52200000D03*
X117530000Y-52200000D03*
%TD*%
D12*
%TO.C,J5*%
X148920000Y-55520000D03*
D13*
X146380000Y-55520000D03*
X143840000Y-55520000D03*
X141300000Y-55520000D03*
X138760000Y-55520000D03*
X136220000Y-55520000D03*
X133680000Y-55520000D03*
X131140000Y-55520000D03*
%TD*%
D14*
%TO.C,J2*%
X99440000Y-66460000D03*
D15*
X101980000Y-66460000D03*
X99440000Y-69000000D03*
X101980000Y-69000000D03*
X99440000Y-71540000D03*
X101980000Y-71540000D03*
X99440000Y-74080000D03*
X101980000Y-74080000D03*
X99440000Y-76620000D03*
X101980000Y-76620000D03*
X99440000Y-79160000D03*
X101980000Y-79160000D03*
X99440000Y-81700000D03*
X101980000Y-81700000D03*
X99440000Y-84240000D03*
X101980000Y-84240000D03*
X99440000Y-86780000D03*
X101980000Y-86780000D03*
X99440000Y-89320000D03*
X101980000Y-89320000D03*
%TD*%
D14*
%TO.C,J3*%
X167390000Y-66460000D03*
D15*
X169930000Y-66460000D03*
X167390000Y-69000000D03*
X169930000Y-69000000D03*
X167390000Y-71540000D03*
X169930000Y-71540000D03*
X167390000Y-74080000D03*
X169930000Y-74080000D03*
X167390000Y-76620000D03*
X169930000Y-76620000D03*
X167390000Y-79160000D03*
X169930000Y-79160000D03*
X167390000Y-81700000D03*
X169930000Y-81700000D03*
X167390000Y-84240000D03*
X169930000Y-84240000D03*
X167390000Y-86780000D03*
X169930000Y-86780000D03*
X167390000Y-89320000D03*
X169930000Y-89320000D03*
%TD*%
D12*
%TO.C,J4*%
X148920000Y-100330000D03*
D13*
X146380000Y-100330000D03*
X143840000Y-100330000D03*
X141300000Y-100330000D03*
X138760000Y-100330000D03*
X136220000Y-100330000D03*
X133680000Y-100330000D03*
X131140000Y-100330000D03*
%TD*%
D16*
%TO.C,C2*%
X110320000Y-70550000D03*
X110320000Y-69000000D03*
%TD*%
%TO.C,C3*%
X110320000Y-81295000D03*
X110320000Y-79745000D03*
%TD*%
%TO.C,C1*%
X110320000Y-60420000D03*
X110320000Y-58870000D03*
%TD*%
%TO.C,C4*%
X110320000Y-91660000D03*
X110320000Y-90110000D03*
%TD*%
M02*
