%TF.GenerationSoftware,KiCad,Pcbnew,8.0.7*%
%TF.CreationDate,2025-02-11T17:28:11+05:30*%
%TF.ProjectId,Program Counter,50726f67-7261-46d2-9043-6f756e746572,rev?*%
%TF.SameCoordinates,Original*%
%TF.FileFunction,Legend,Bot*%
%TF.FilePolarity,Positive*%
%FSLAX46Y46*%
G04 Gerber Fmt 4.6, Leading zero omitted, Abs format (unit mm)*
G04 Created by KiCad (PCBNEW 8.0.7) date 2025-02-11 17:28:11*
%MOMM*%
%LPD*%
G01*
G04 APERTURE LIST*
%ADD10C,0.150000*%
%ADD11C,0.120000*%
G04 APERTURE END LIST*
D10*
X108689580Y-69623333D02*
X108737200Y-69575714D01*
X108737200Y-69575714D02*
X108784819Y-69432857D01*
X108784819Y-69432857D02*
X108784819Y-69337619D01*
X108784819Y-69337619D02*
X108737200Y-69194762D01*
X108737200Y-69194762D02*
X108641961Y-69099524D01*
X108641961Y-69099524D02*
X108546723Y-69051905D01*
X108546723Y-69051905D02*
X108356247Y-69004286D01*
X108356247Y-69004286D02*
X108213390Y-69004286D01*
X108213390Y-69004286D02*
X108022914Y-69051905D01*
X108022914Y-69051905D02*
X107927676Y-69099524D01*
X107927676Y-69099524D02*
X107832438Y-69194762D01*
X107832438Y-69194762D02*
X107784819Y-69337619D01*
X107784819Y-69337619D02*
X107784819Y-69432857D01*
X107784819Y-69432857D02*
X107832438Y-69575714D01*
X107832438Y-69575714D02*
X107880057Y-69623333D01*
X107880057Y-70004286D02*
X107832438Y-70051905D01*
X107832438Y-70051905D02*
X107784819Y-70147143D01*
X107784819Y-70147143D02*
X107784819Y-70385238D01*
X107784819Y-70385238D02*
X107832438Y-70480476D01*
X107832438Y-70480476D02*
X107880057Y-70528095D01*
X107880057Y-70528095D02*
X107975295Y-70575714D01*
X107975295Y-70575714D02*
X108070533Y-70575714D01*
X108070533Y-70575714D02*
X108213390Y-70528095D01*
X108213390Y-70528095D02*
X108784819Y-69956667D01*
X108784819Y-69956667D02*
X108784819Y-70575714D01*
X109149580Y-80353333D02*
X109197200Y-80305714D01*
X109197200Y-80305714D02*
X109244819Y-80162857D01*
X109244819Y-80162857D02*
X109244819Y-80067619D01*
X109244819Y-80067619D02*
X109197200Y-79924762D01*
X109197200Y-79924762D02*
X109101961Y-79829524D01*
X109101961Y-79829524D02*
X109006723Y-79781905D01*
X109006723Y-79781905D02*
X108816247Y-79734286D01*
X108816247Y-79734286D02*
X108673390Y-79734286D01*
X108673390Y-79734286D02*
X108482914Y-79781905D01*
X108482914Y-79781905D02*
X108387676Y-79829524D01*
X108387676Y-79829524D02*
X108292438Y-79924762D01*
X108292438Y-79924762D02*
X108244819Y-80067619D01*
X108244819Y-80067619D02*
X108244819Y-80162857D01*
X108244819Y-80162857D02*
X108292438Y-80305714D01*
X108292438Y-80305714D02*
X108340057Y-80353333D01*
X108244819Y-80686667D02*
X108244819Y-81305714D01*
X108244819Y-81305714D02*
X108625771Y-80972381D01*
X108625771Y-80972381D02*
X108625771Y-81115238D01*
X108625771Y-81115238D02*
X108673390Y-81210476D01*
X108673390Y-81210476D02*
X108721009Y-81258095D01*
X108721009Y-81258095D02*
X108816247Y-81305714D01*
X108816247Y-81305714D02*
X109054342Y-81305714D01*
X109054342Y-81305714D02*
X109149580Y-81258095D01*
X109149580Y-81258095D02*
X109197200Y-81210476D01*
X109197200Y-81210476D02*
X109244819Y-81115238D01*
X109244819Y-81115238D02*
X109244819Y-80829524D01*
X109244819Y-80829524D02*
X109197200Y-80734286D01*
X109197200Y-80734286D02*
X109149580Y-80686667D01*
X108929580Y-59463333D02*
X108977200Y-59415714D01*
X108977200Y-59415714D02*
X109024819Y-59272857D01*
X109024819Y-59272857D02*
X109024819Y-59177619D01*
X109024819Y-59177619D02*
X108977200Y-59034762D01*
X108977200Y-59034762D02*
X108881961Y-58939524D01*
X108881961Y-58939524D02*
X108786723Y-58891905D01*
X108786723Y-58891905D02*
X108596247Y-58844286D01*
X108596247Y-58844286D02*
X108453390Y-58844286D01*
X108453390Y-58844286D02*
X108262914Y-58891905D01*
X108262914Y-58891905D02*
X108167676Y-58939524D01*
X108167676Y-58939524D02*
X108072438Y-59034762D01*
X108072438Y-59034762D02*
X108024819Y-59177619D01*
X108024819Y-59177619D02*
X108024819Y-59272857D01*
X108024819Y-59272857D02*
X108072438Y-59415714D01*
X108072438Y-59415714D02*
X108120057Y-59463333D01*
X109024819Y-60415714D02*
X109024819Y-59844286D01*
X109024819Y-60130000D02*
X108024819Y-60130000D01*
X108024819Y-60130000D02*
X108167676Y-60034762D01*
X108167676Y-60034762D02*
X108262914Y-59939524D01*
X108262914Y-59939524D02*
X108310533Y-59844286D01*
X109149580Y-90723333D02*
X109197200Y-90675714D01*
X109197200Y-90675714D02*
X109244819Y-90532857D01*
X109244819Y-90532857D02*
X109244819Y-90437619D01*
X109244819Y-90437619D02*
X109197200Y-90294762D01*
X109197200Y-90294762D02*
X109101961Y-90199524D01*
X109101961Y-90199524D02*
X109006723Y-90151905D01*
X109006723Y-90151905D02*
X108816247Y-90104286D01*
X108816247Y-90104286D02*
X108673390Y-90104286D01*
X108673390Y-90104286D02*
X108482914Y-90151905D01*
X108482914Y-90151905D02*
X108387676Y-90199524D01*
X108387676Y-90199524D02*
X108292438Y-90294762D01*
X108292438Y-90294762D02*
X108244819Y-90437619D01*
X108244819Y-90437619D02*
X108244819Y-90532857D01*
X108244819Y-90532857D02*
X108292438Y-90675714D01*
X108292438Y-90675714D02*
X108340057Y-90723333D01*
X108578152Y-91580476D02*
X109244819Y-91580476D01*
X108197200Y-91342381D02*
X108911485Y-91104286D01*
X108911485Y-91104286D02*
X108911485Y-91723333D01*
D11*
%TO.C,C2*%
X109810000Y-69634420D02*
X109810000Y-69915580D01*
X110830000Y-69634420D02*
X110830000Y-69915580D01*
%TO.C,C3*%
X109810000Y-80379420D02*
X109810000Y-80660580D01*
X110830000Y-80379420D02*
X110830000Y-80660580D01*
%TO.C,C1*%
X109810000Y-59504420D02*
X109810000Y-59785580D01*
X110830000Y-59504420D02*
X110830000Y-59785580D01*
%TO.C,C4*%
X109810000Y-90744420D02*
X109810000Y-91025580D01*
X110830000Y-90744420D02*
X110830000Y-91025580D01*
%TD*%
M02*
