M48
; DRILL file {KiCad 8.0.7} date 2025-02-11T17:28:16+0530
; FORMAT={-:-/ absolute / inch / decimal}
; #@! TF.CreationDate,2025-02-11T17:28:16+05:30
; #@! TF.GenerationSoftware,Kicad,Pcbnew,8.0.7
; #@! TF.FileFunction,Plated,1,2,PTH
FMAT,2
INCH
; #@! TA.AperFunction,Plated,PTH,ViaDrill
T1C0.0138
; #@! TA.AperFunction,Plated,PTH,ComponentDrill
T2C0.0315
; #@! TA.AperFunction,Plated,PTH,ComponentDrill
T3C0.0394
%
G90
G05
T1
X4.2876Y-2.6179
X4.2881Y-3.0362
X4.2913Y-3.4544
X4.4031Y-2.7165
X4.4041Y-2.3356
X4.4041Y-3.1367
X4.4043Y-3.5469
X4.4356Y-3.5108
X4.4362Y-3.1044
X4.4366Y-2.2677
X4.4366Y-2.6743
X4.4488Y-3.8226
X4.4677Y-3.4055
X4.4681Y-2.5679
X4.4681Y-2.9858
X4.5009Y-3.1544
X4.5009Y-3.8221
X4.5071Y-2.3179
X4.5071Y-2.9862
X4.6093Y-3.8726
X4.6098Y-2.6177
X4.6098Y-3.037
X4.6098Y-3.4544
X4.6374Y-2.7362
X4.6374Y-3.4044
X4.6913Y-2.3291
X4.6929Y-3.1654
X4.7232Y-2.6252
X4.8858Y-2.2402
X5.0177Y-3.6236
X5.0622Y-3.7232
X5.1622Y-3.6728
X5.4083Y-2.4236
X5.4607Y-3.3544
T2
X4.763Y-2.3368
X4.763Y-2.9368
X4.763Y-3.1974
X4.763Y-3.7974
X4.863Y-2.3368
X4.863Y-2.9368
X4.863Y-3.1974
X4.863Y-3.7974
X4.963Y-2.3368
X4.963Y-2.9368
X4.963Y-3.1974
X4.963Y-3.7974
X5.063Y-2.3368
X5.063Y-2.9368
X5.063Y-3.1974
X5.063Y-3.7974
X5.163Y-2.3368
X5.163Y-2.9368
X5.163Y-3.1974
X5.163Y-3.7974
X5.263Y-2.3368
X5.263Y-2.9368
X5.263Y-3.1974
X5.263Y-3.7974
X5.363Y-2.3368
X5.363Y-2.9368
X5.363Y-3.1974
X5.363Y-3.7974
X5.463Y-2.3368
X5.463Y-2.9368
X5.463Y-3.1974
X5.463Y-3.7974
X5.563Y-2.3368
X5.563Y-2.9368
X5.563Y-3.1974
X5.563Y-3.7974
X5.663Y-2.3368
X5.663Y-2.9368
X5.663Y-3.1974
X5.663Y-3.7974
X5.763Y-2.3368
X5.763Y-2.9368
X5.763Y-3.1974
X5.763Y-3.7974
X5.863Y-2.3368
X5.863Y-2.9368
X5.863Y-3.1974
X5.863Y-3.7974
X5.963Y-2.3368
X5.963Y-2.9368
X5.963Y-3.1974
X5.963Y-3.7974
X6.063Y-2.3368
X6.063Y-2.9368
X6.063Y-3.1974
X6.063Y-3.7974
X6.163Y-2.3368
X6.163Y-2.9368
X6.163Y-3.1974
X6.163Y-3.7974
X6.263Y-2.3368
X6.263Y-2.9368
X6.263Y-3.1974
X6.263Y-3.7974
T3
X3.915Y-2.6165
X3.915Y-2.7165
X3.915Y-2.8165
X3.915Y-2.9165
X3.915Y-3.0165
X3.915Y-3.1165
X3.915Y-3.2165
X3.915Y-3.3165
X3.915Y-3.4165
X3.915Y-3.5165
X4.015Y-2.6165
X4.015Y-2.7165
X4.015Y-2.8165
X4.015Y-2.9165
X4.015Y-3.0165
X4.015Y-3.1165
X4.015Y-3.2165
X4.015Y-3.3165
X4.015Y-3.4165
X4.015Y-3.5165
X4.4272Y-2.0551
X4.5272Y-2.0551
X4.6272Y-2.0551
X5.163Y-2.1858
X5.163Y-3.95
X5.263Y-2.1858
X5.263Y-3.95
X5.363Y-2.1858
X5.363Y-3.95
X5.463Y-2.1858
X5.463Y-3.95
X5.563Y-2.1858
X5.563Y-3.95
X5.663Y-2.1858
X5.663Y-3.95
X5.763Y-2.1858
X5.763Y-3.95
X5.863Y-2.1858
X5.863Y-3.95
X6.5902Y-2.6165
X6.5902Y-2.7165
X6.5902Y-2.8165
X6.5902Y-2.9165
X6.5902Y-3.0165
X6.5902Y-3.1165
X6.5902Y-3.2165
X6.5902Y-3.3165
X6.5902Y-3.4165
X6.5902Y-3.5165
X6.6902Y-2.6165
X6.6902Y-2.7165
X6.6902Y-2.8165
X6.6902Y-2.9165
X6.6902Y-3.0165
X6.6902Y-3.1165
X6.6902Y-3.2165
X6.6902Y-3.3165
X6.6902Y-3.4165
X6.6902Y-3.5165
M30
