%TF.GenerationSoftware,KiCad,Pcbnew,8.0.7*%
%TF.CreationDate,2025-01-18T18:37:27+05:30*%
%TF.ProjectId,AOS16 Timer,414f5331-3620-4546-996d-65722e6b6963,rev?*%
%TF.SameCoordinates,Original*%
%TF.FileFunction,Copper,L2,Bot*%
%TF.FilePolarity,Positive*%
%FSLAX46Y46*%
G04 Gerber Fmt 4.6, Leading zero omitted, Abs format (unit mm)*
G04 Created by KiCad (PCBNEW 8.0.7) date 2025-01-18 18:37:27*
%MOMM*%
%LPD*%
G01*
G04 APERTURE LIST*
G04 Aperture macros list*
%AMRoundRect*
0 Rectangle with rounded corners*
0 $1 Rounding radius*
0 $2 $3 $4 $5 $6 $7 $8 $9 X,Y pos of 4 corners*
0 Add a 4 corners polygon primitive as box body*
4,1,4,$2,$3,$4,$5,$6,$7,$8,$9,$2,$3,0*
0 Add four circle primitives for the rounded corners*
1,1,$1+$1,$2,$3*
1,1,$1+$1,$4,$5*
1,1,$1+$1,$6,$7*
1,1,$1+$1,$8,$9*
0 Add four rect primitives between the rounded corners*
20,1,$1+$1,$2,$3,$4,$5,0*
20,1,$1+$1,$4,$5,$6,$7,0*
20,1,$1+$1,$6,$7,$8,$9,0*
20,1,$1+$1,$8,$9,$2,$3,0*%
G04 Aperture macros list end*
%TA.AperFunction,ComponentPad*%
%ADD10C,1.440000*%
%TD*%
%TA.AperFunction,ComponentPad*%
%ADD11R,1.700000X1.700000*%
%TD*%
%TA.AperFunction,ComponentPad*%
%ADD12O,1.700000X1.700000*%
%TD*%
%TA.AperFunction,ComponentPad*%
%ADD13C,2.000000*%
%TD*%
%TA.AperFunction,SMDPad,CuDef*%
%ADD14RoundRect,0.200000X-0.275000X0.200000X-0.275000X-0.200000X0.275000X-0.200000X0.275000X0.200000X0*%
%TD*%
%TA.AperFunction,ViaPad*%
%ADD15C,0.700000*%
%TD*%
%TA.AperFunction,Conductor*%
%ADD16C,0.300000*%
%TD*%
G04 APERTURE END LIST*
D10*
%TO.P,RV1,1,1*%
%TO.N,Net-(U1-THR)*%
X97960000Y-66040000D03*
%TO.P,RV1,2,2*%
%TO.N,Net-(R2-Pad2)*%
X100500000Y-63500000D03*
%TO.P,RV1,3,3*%
%TO.N,unconnected-(RV1-Pad3)*%
X97960000Y-60960000D03*
%TD*%
D11*
%TO.P,J1,1,Pin_1*%
%TO.N,VCC*%
X73500000Y-82500000D03*
D12*
%TO.P,J1,2,Pin_2*%
%TO.N,GND*%
X73500000Y-85040000D03*
%TO.P,J1,3,Pin_3*%
%TO.N,Net-(J1-Pin_3)*%
X73500000Y-87580000D03*
%TO.P,J1,4,Pin_4*%
%TO.N,Net-(J1-Pin_4)*%
X73500000Y-90120000D03*
%TD*%
D13*
%TO.P,SW1,1,1*%
%TO.N,GND*%
X101000000Y-77750000D03*
X94500000Y-77750000D03*
%TO.P,SW1,2,2*%
%TO.N,Net-(U2-TR)*%
X101000000Y-73250000D03*
X94500000Y-73250000D03*
%TD*%
D14*
%TO.P,R7,1*%
%TO.N,Net-(D1-A)*%
X76500000Y-89350000D03*
%TO.P,R7,2*%
%TO.N,Net-(J1-Pin_4)*%
X76500000Y-91000000D03*
%TD*%
%TO.P,R8,1*%
%TO.N,Net-(D2-A)*%
X76500000Y-85912500D03*
%TO.P,R8,2*%
%TO.N,Net-(J1-Pin_3)*%
X76500000Y-87562500D03*
%TD*%
D15*
%TO.N,Net-(U1-THR)*%
X85850000Y-66100000D03*
%TO.N,GND*%
X88506650Y-78181650D03*
X81225000Y-85055000D03*
X83322500Y-62797500D03*
%TO.N,Net-(J1-Pin_3)*%
X72575000Y-76725000D03*
X75025000Y-74284400D03*
%TO.N,Net-(U3-Q)*%
X86000000Y-85225000D03*
X77475000Y-63300000D03*
%TO.N,Net-(D2-A)*%
X77275000Y-85137500D03*
%TO.N,Net-(D1-A)*%
X77200000Y-88625000D03*
%TO.N,Net-(J1-Pin_4)*%
X71400000Y-74750000D03*
%TO.N,Net-(U4-Pad11)*%
X75200000Y-64600000D03*
X75677400Y-75325000D03*
%TO.N,Net-(U2-Q)*%
X74275000Y-61975000D03*
X87693900Y-74174500D03*
%TO.N,Net-(U1-THR)*%
X83950000Y-64865000D03*
%TO.N,GND*%
X76169700Y-60131600D03*
X76900000Y-69800000D03*
X101427500Y-85245800D03*
X86850000Y-88725000D03*
X80650000Y-78475000D03*
X84250000Y-68291300D03*
X82088300Y-71261600D03*
X78000000Y-91972000D03*
X79009000Y-88500000D03*
%TD*%
D16*
%TO.N,Net-(U4-Pad11)*%
X75677400Y-65077400D02*
X75200000Y-64600000D01*
X75677400Y-75325000D02*
X75677400Y-65077400D01*
%TO.N,Net-(U2-Q)*%
X78579800Y-64929800D02*
X87693900Y-74043900D01*
X77072633Y-61975000D02*
X78579800Y-63482167D01*
X78579800Y-63482167D02*
X78579800Y-64929800D01*
X74275000Y-61975000D02*
X77072633Y-61975000D01*
X87693900Y-74043900D02*
X87693900Y-74174500D01*
%TO.N,Net-(J1-Pin_4)*%
X71200000Y-74950000D02*
X71200000Y-87820000D01*
X71400000Y-74750000D02*
X71200000Y-74950000D01*
X71200000Y-87820000D02*
X73500000Y-90120000D01*
%TO.N,Net-(U3-Q)*%
X78127400Y-77627400D02*
X85725000Y-85225000D01*
X78127400Y-63952400D02*
X78127400Y-77627400D01*
X85725000Y-85225000D02*
X86000000Y-85225000D01*
X77475000Y-63300000D02*
X78127400Y-63952400D01*
%TO.N,Net-(D2-A)*%
X77275000Y-85137500D02*
X76500000Y-85912500D01*
%TO.N,Net-(D1-A)*%
X77200000Y-88625000D02*
X77200000Y-88650000D01*
X77200000Y-88650000D02*
X76500000Y-89350000D01*
%TO.N,Net-(U1-THR)*%
X85185000Y-66100000D02*
X83950000Y-64865000D01*
X85850000Y-66100000D02*
X85185000Y-66100000D01*
%TO.N,Net-(J1-Pin_3)*%
X75015600Y-74284400D02*
X72575000Y-76725000D01*
X75025000Y-74284400D02*
X75015600Y-74284400D01*
%TO.N,Net-(J1-Pin_4)*%
X75531700Y-91000000D02*
X74651700Y-90120000D01*
X76500000Y-91000000D02*
X75531700Y-91000000D01*
X74075900Y-90120000D02*
X74651700Y-90120000D01*
X74075900Y-90120000D02*
X73500000Y-90120000D01*
%TO.N,Net-(J1-Pin_3)*%
X74669200Y-87562500D02*
X74651700Y-87580000D01*
X76500000Y-87562500D02*
X74669200Y-87562500D01*
X73500000Y-87580000D02*
X74651700Y-87580000D01*
%TD*%
%TA.AperFunction,Conductor*%
%TO.N,GND*%
G36*
X100503472Y-57300695D02*
G01*
X100795306Y-57317084D01*
X100809103Y-57318638D01*
X101093827Y-57367015D01*
X101107384Y-57370109D01*
X101384899Y-57450060D01*
X101398025Y-57454653D01*
X101664841Y-57565172D01*
X101677355Y-57571198D01*
X101843444Y-57662992D01*
X101930125Y-57710899D01*
X101941899Y-57718297D01*
X102177430Y-57885415D01*
X102188302Y-57894085D01*
X102403642Y-58086524D01*
X102413475Y-58096357D01*
X102605914Y-58311697D01*
X102614584Y-58322569D01*
X102781702Y-58558100D01*
X102789100Y-58569874D01*
X102928797Y-58822637D01*
X102934830Y-58835165D01*
X103045346Y-59101975D01*
X103049939Y-59115100D01*
X103129890Y-59392615D01*
X103132984Y-59406172D01*
X103181359Y-59690885D01*
X103182916Y-59704703D01*
X103199305Y-59996527D01*
X103199500Y-60003480D01*
X103199500Y-89996519D01*
X103199305Y-90003472D01*
X103182916Y-90295296D01*
X103181359Y-90309114D01*
X103132984Y-90593827D01*
X103129890Y-90607384D01*
X103049939Y-90884899D01*
X103045346Y-90898024D01*
X102934830Y-91164834D01*
X102928797Y-91177362D01*
X102789100Y-91430125D01*
X102781702Y-91441899D01*
X102614584Y-91677430D01*
X102605914Y-91688302D01*
X102413475Y-91903642D01*
X102403642Y-91913475D01*
X102188302Y-92105914D01*
X102177430Y-92114584D01*
X101941899Y-92281702D01*
X101930125Y-92289100D01*
X101677362Y-92428797D01*
X101664834Y-92434830D01*
X101398024Y-92545346D01*
X101384899Y-92549939D01*
X101107384Y-92629890D01*
X101093827Y-92632984D01*
X100809114Y-92681359D01*
X100795296Y-92682916D01*
X100503472Y-92699305D01*
X100496519Y-92699500D01*
X73503481Y-92699500D01*
X73496528Y-92699305D01*
X73204703Y-92682916D01*
X73190885Y-92681359D01*
X72906172Y-92632984D01*
X72892615Y-92629890D01*
X72615100Y-92549939D01*
X72601975Y-92545346D01*
X72335165Y-92434830D01*
X72322637Y-92428797D01*
X72069874Y-92289100D01*
X72058100Y-92281702D01*
X71822569Y-92114584D01*
X71811697Y-92105914D01*
X71596357Y-91913475D01*
X71586524Y-91903642D01*
X71577984Y-91894086D01*
X71394085Y-91688302D01*
X71385415Y-91677430D01*
X71380274Y-91670185D01*
X71263262Y-91505272D01*
X71218297Y-91441899D01*
X71210899Y-91430125D01*
X71115004Y-91256616D01*
X71071198Y-91177355D01*
X71065172Y-91164841D01*
X70954653Y-90898024D01*
X70950060Y-90884899D01*
X70870109Y-90607384D01*
X70867015Y-90593827D01*
X70852839Y-90510393D01*
X70818638Y-90309103D01*
X70817084Y-90295306D01*
X70800695Y-90003472D01*
X70800500Y-89996519D01*
X70800500Y-88639807D01*
X70820185Y-88572768D01*
X70872989Y-88527013D01*
X70942147Y-88517069D01*
X71005703Y-88546094D01*
X71012178Y-88552123D01*
X71587717Y-89127663D01*
X72152290Y-89692236D01*
X72185775Y-89753559D01*
X72184384Y-89812008D01*
X72164937Y-89884589D01*
X72164937Y-89884590D01*
X72144341Y-90119999D01*
X72144341Y-90120000D01*
X72164936Y-90355403D01*
X72164938Y-90355413D01*
X72226094Y-90583655D01*
X72226096Y-90583659D01*
X72226097Y-90583663D01*
X72267666Y-90672807D01*
X72325965Y-90797830D01*
X72325967Y-90797834D01*
X72434281Y-90952521D01*
X72461505Y-90991401D01*
X72628599Y-91158495D01*
X72655544Y-91177362D01*
X72822165Y-91294032D01*
X72822167Y-91294033D01*
X72822170Y-91294035D01*
X73036337Y-91393903D01*
X73264592Y-91455063D01*
X73452918Y-91471539D01*
X73499999Y-91475659D01*
X73500000Y-91475659D01*
X73500001Y-91475659D01*
X73539234Y-91472226D01*
X73735408Y-91455063D01*
X73963663Y-91393903D01*
X74177830Y-91294035D01*
X74371401Y-91158495D01*
X74483144Y-91046752D01*
X74544467Y-91013267D01*
X74614159Y-91018251D01*
X74658506Y-91046752D01*
X75117025Y-91505272D01*
X75117026Y-91505273D01*
X75117029Y-91505275D01*
X75117031Y-91505277D01*
X75223573Y-91576465D01*
X75341956Y-91625501D01*
X75341960Y-91625501D01*
X75341961Y-91625502D01*
X75467628Y-91650500D01*
X75467631Y-91650500D01*
X75633481Y-91650500D01*
X75700520Y-91670185D01*
X75721157Y-91686814D01*
X75789815Y-91755472D01*
X75935394Y-91843478D01*
X76097804Y-91894086D01*
X76168384Y-91900500D01*
X76168387Y-91900500D01*
X76831613Y-91900500D01*
X76831616Y-91900500D01*
X76902196Y-91894086D01*
X77064606Y-91843478D01*
X77210185Y-91755472D01*
X77330472Y-91635185D01*
X77418478Y-91489606D01*
X77469086Y-91327196D01*
X77475500Y-91256616D01*
X77475500Y-90743384D01*
X77469086Y-90672804D01*
X77418478Y-90510394D01*
X77330472Y-90364815D01*
X77330470Y-90364813D01*
X77330469Y-90364811D01*
X77228339Y-90262681D01*
X77194854Y-90201358D01*
X77199838Y-90131666D01*
X77228339Y-90087319D01*
X77330468Y-89985189D01*
X77330469Y-89985188D01*
X77330472Y-89985185D01*
X77418478Y-89839606D01*
X77469086Y-89677196D01*
X77475500Y-89606616D01*
X77475500Y-89513854D01*
X77495185Y-89446815D01*
X77547989Y-89401060D01*
X77549066Y-89400574D01*
X77627589Y-89365614D01*
X77627589Y-89365613D01*
X77627593Y-89365612D01*
X77772230Y-89260526D01*
X77891859Y-89127665D01*
X77981250Y-88972835D01*
X78036497Y-88802803D01*
X78055185Y-88625000D01*
X78036497Y-88447197D01*
X77994509Y-88317972D01*
X77981252Y-88277170D01*
X77981249Y-88277164D01*
X77965173Y-88249319D01*
X77891859Y-88122335D01*
X77845003Y-88070296D01*
X77772235Y-87989478D01*
X77772232Y-87989476D01*
X77772231Y-87989475D01*
X77772230Y-87989474D01*
X77627593Y-87884388D01*
X77627592Y-87884387D01*
X77549064Y-87849424D01*
X77495827Y-87804174D01*
X77475506Y-87737325D01*
X77475500Y-87736145D01*
X77475500Y-87305886D01*
X77469086Y-87235307D01*
X77469086Y-87235304D01*
X77418478Y-87072894D01*
X77330472Y-86927315D01*
X77330470Y-86927313D01*
X77330469Y-86927311D01*
X77228339Y-86825181D01*
X77194854Y-86763858D01*
X77199838Y-86694166D01*
X77228339Y-86649819D01*
X77330468Y-86547689D01*
X77330469Y-86547688D01*
X77330472Y-86547685D01*
X77418478Y-86402106D01*
X77469086Y-86239696D01*
X77475500Y-86169116D01*
X77475500Y-86059746D01*
X77495185Y-85992707D01*
X77547989Y-85946952D01*
X77548960Y-85946513D01*
X77702593Y-85878112D01*
X77847230Y-85773026D01*
X77966859Y-85640165D01*
X78056250Y-85485335D01*
X78111497Y-85315303D01*
X78130185Y-85137500D01*
X78111497Y-84959697D01*
X78056250Y-84789665D01*
X77966859Y-84634835D01*
X77920003Y-84582796D01*
X77847235Y-84501978D01*
X77847232Y-84501976D01*
X77847231Y-84501975D01*
X77847230Y-84501974D01*
X77702593Y-84396888D01*
X77539267Y-84324171D01*
X77539265Y-84324170D01*
X77411594Y-84297033D01*
X77364391Y-84287000D01*
X77185609Y-84287000D01*
X77154954Y-84293515D01*
X77010733Y-84324170D01*
X77010728Y-84324172D01*
X76847408Y-84396887D01*
X76702768Y-84501975D01*
X76583140Y-84634836D01*
X76493750Y-84789664D01*
X76493747Y-84789671D01*
X76449348Y-84926318D01*
X76409910Y-84983994D01*
X76345552Y-85011192D01*
X76331417Y-85012000D01*
X76168384Y-85012000D01*
X76149145Y-85013748D01*
X76097807Y-85018413D01*
X75935393Y-85069022D01*
X75789811Y-85157030D01*
X75669530Y-85277311D01*
X75581522Y-85422893D01*
X75530913Y-85585307D01*
X75524500Y-85655886D01*
X75524500Y-86169113D01*
X75530913Y-86239692D01*
X75530913Y-86239694D01*
X75530914Y-86239696D01*
X75551605Y-86306097D01*
X75581522Y-86402106D01*
X75669530Y-86547688D01*
X75771661Y-86649819D01*
X75805146Y-86711142D01*
X75800162Y-86780834D01*
X75771662Y-86825180D01*
X75721163Y-86875680D01*
X75659840Y-86909166D01*
X75633481Y-86912000D01*
X74745468Y-86912000D01*
X74678429Y-86892315D01*
X74643893Y-86859123D01*
X74538494Y-86708597D01*
X74371402Y-86541506D01*
X74371401Y-86541505D01*
X74185405Y-86411269D01*
X74141781Y-86356692D01*
X74134588Y-86287193D01*
X74166110Y-86224839D01*
X74185405Y-86208119D01*
X74371082Y-86078105D01*
X74538105Y-85911082D01*
X74673600Y-85717578D01*
X74773429Y-85503492D01*
X74773432Y-85503486D01*
X74830636Y-85290000D01*
X73933012Y-85290000D01*
X73965925Y-85232993D01*
X74000000Y-85105826D01*
X74000000Y-84974174D01*
X73965925Y-84847007D01*
X73933012Y-84790000D01*
X74830636Y-84790000D01*
X74830635Y-84789999D01*
X74773432Y-84576513D01*
X74773429Y-84576507D01*
X74673600Y-84362422D01*
X74673599Y-84362420D01*
X74538113Y-84168926D01*
X74538108Y-84168920D01*
X74416053Y-84046865D01*
X74382568Y-83985542D01*
X74387552Y-83915850D01*
X74429424Y-83859917D01*
X74460400Y-83843002D01*
X74592331Y-83793796D01*
X74707546Y-83707546D01*
X74793796Y-83592331D01*
X74844091Y-83457483D01*
X74850500Y-83397873D01*
X74850499Y-81602128D01*
X74844091Y-81542517D01*
X74793796Y-81407669D01*
X74793795Y-81407668D01*
X74793793Y-81407664D01*
X74707547Y-81292455D01*
X74707544Y-81292452D01*
X74592335Y-81206206D01*
X74592328Y-81206202D01*
X74457482Y-81155908D01*
X74457483Y-81155908D01*
X74397883Y-81149501D01*
X74397881Y-81149500D01*
X74397873Y-81149500D01*
X74397864Y-81149500D01*
X72602129Y-81149500D01*
X72602123Y-81149501D01*
X72542516Y-81155908D01*
X72407671Y-81206202D01*
X72407664Y-81206206D01*
X72292455Y-81292452D01*
X72292452Y-81292455D01*
X72206206Y-81407664D01*
X72206202Y-81407671D01*
X72155908Y-81542517D01*
X72149501Y-81602116D01*
X72149501Y-81602123D01*
X72149500Y-81602135D01*
X72149500Y-83397870D01*
X72149501Y-83397876D01*
X72155908Y-83457483D01*
X72206202Y-83592328D01*
X72206206Y-83592335D01*
X72292452Y-83707544D01*
X72292455Y-83707547D01*
X72407664Y-83793793D01*
X72407671Y-83793797D01*
X72407674Y-83793798D01*
X72539598Y-83843002D01*
X72595531Y-83884873D01*
X72619949Y-83950337D01*
X72605098Y-84018610D01*
X72583947Y-84046865D01*
X72461886Y-84168926D01*
X72326400Y-84362420D01*
X72326399Y-84362422D01*
X72226570Y-84576507D01*
X72226567Y-84576513D01*
X72169364Y-84789999D01*
X72169364Y-84790000D01*
X73066988Y-84790000D01*
X73034075Y-84847007D01*
X73000000Y-84974174D01*
X73000000Y-85105826D01*
X73034075Y-85232993D01*
X73066988Y-85290000D01*
X72169364Y-85290000D01*
X72226567Y-85503486D01*
X72226570Y-85503492D01*
X72326399Y-85717578D01*
X72461894Y-85911082D01*
X72628917Y-86078105D01*
X72814595Y-86208119D01*
X72858219Y-86262696D01*
X72865412Y-86332195D01*
X72833890Y-86394549D01*
X72814595Y-86411269D01*
X72628594Y-86541508D01*
X72461505Y-86708597D01*
X72325965Y-86902169D01*
X72325964Y-86902171D01*
X72226098Y-87116335D01*
X72226094Y-87116344D01*
X72164938Y-87344586D01*
X72164936Y-87344596D01*
X72146246Y-87558218D01*
X72120793Y-87623287D01*
X72064202Y-87664265D01*
X71994440Y-87668143D01*
X71935037Y-87635091D01*
X71886819Y-87586873D01*
X71853334Y-87525550D01*
X71850500Y-87499192D01*
X71850500Y-77493259D01*
X71870185Y-77426220D01*
X71922989Y-77380465D01*
X71992147Y-77370521D01*
X72047383Y-77392940D01*
X72147407Y-77465612D01*
X72310733Y-77538329D01*
X72485609Y-77575500D01*
X72485610Y-77575500D01*
X72664389Y-77575500D01*
X72664391Y-77575500D01*
X72839267Y-77538329D01*
X73002593Y-77465612D01*
X73147230Y-77360526D01*
X73266859Y-77227665D01*
X73356250Y-77072835D01*
X73411497Y-76902803D01*
X73417988Y-76841036D01*
X73444571Y-76776423D01*
X73453619Y-76766325D01*
X74667471Y-75552473D01*
X74728792Y-75518990D01*
X74798484Y-75523974D01*
X74854417Y-75565846D01*
X74873081Y-75601837D01*
X74896148Y-75672831D01*
X74896150Y-75672835D01*
X74985541Y-75827665D01*
X75027212Y-75873946D01*
X75105164Y-75960521D01*
X75105167Y-75960523D01*
X75105170Y-75960526D01*
X75249807Y-76065612D01*
X75413133Y-76138329D01*
X75588009Y-76175500D01*
X75588010Y-76175500D01*
X75766789Y-76175500D01*
X75766791Y-76175500D01*
X75941667Y-76138329D01*
X76104993Y-76065612D01*
X76249630Y-75960526D01*
X76369259Y-75827665D01*
X76458650Y-75672835D01*
X76513897Y-75502803D01*
X76532585Y-75325000D01*
X76513897Y-75147197D01*
X76458650Y-74977165D01*
X76369259Y-74822335D01*
X76359749Y-74811773D01*
X76329520Y-74748782D01*
X76327900Y-74728802D01*
X76327900Y-65013328D01*
X76302902Y-64887660D01*
X76302900Y-64887654D01*
X76282589Y-64838621D01*
X76282587Y-64838616D01*
X76253868Y-64769278D01*
X76253862Y-64769268D01*
X76182678Y-64662732D01*
X76182677Y-64662731D01*
X76155296Y-64635350D01*
X76078626Y-64558680D01*
X76045143Y-64497360D01*
X76042988Y-64483961D01*
X76036497Y-64422198D01*
X76017046Y-64362335D01*
X75992737Y-64287519D01*
X75981252Y-64252170D01*
X75981249Y-64252164D01*
X75978181Y-64246850D01*
X75891859Y-64097335D01*
X75817274Y-64014500D01*
X75772235Y-63964478D01*
X75772232Y-63964476D01*
X75772231Y-63964475D01*
X75772230Y-63964474D01*
X75627593Y-63859388D01*
X75464267Y-63786671D01*
X75464265Y-63786670D01*
X75336594Y-63759533D01*
X75289391Y-63749500D01*
X75110609Y-63749500D01*
X75079954Y-63756015D01*
X74935733Y-63786670D01*
X74935728Y-63786672D01*
X74772408Y-63859387D01*
X74627768Y-63964475D01*
X74508140Y-64097336D01*
X74418750Y-64252164D01*
X74418747Y-64252170D01*
X74363504Y-64422192D01*
X74363503Y-64422194D01*
X74344815Y-64600000D01*
X74363503Y-64777805D01*
X74363504Y-64777807D01*
X74418747Y-64947829D01*
X74418750Y-64947835D01*
X74508141Y-65102665D01*
X74549812Y-65148946D01*
X74627764Y-65235521D01*
X74627767Y-65235523D01*
X74627770Y-65235526D01*
X74772407Y-65340612D01*
X74935733Y-65413329D01*
X74935748Y-65413332D01*
X74941207Y-65415106D01*
X74998886Y-65454539D01*
X75026090Y-65518895D01*
X75026900Y-65533041D01*
X75026900Y-73314082D01*
X75007215Y-73381121D01*
X74954411Y-73426876D01*
X74928681Y-73435372D01*
X74760733Y-73471070D01*
X74760728Y-73471072D01*
X74597408Y-73543787D01*
X74452768Y-73648875D01*
X74333140Y-73781736D01*
X74243750Y-73936564D01*
X74243747Y-73936570D01*
X74188504Y-74106592D01*
X74188504Y-74106593D01*
X74188503Y-74106597D01*
X74184492Y-74144760D01*
X74183115Y-74157860D01*
X74156529Y-74222474D01*
X74147475Y-74232577D01*
X72536909Y-75843144D01*
X72475586Y-75876629D01*
X72475009Y-75876753D01*
X72310733Y-75911670D01*
X72310728Y-75911672D01*
X72147408Y-75984388D01*
X72147403Y-75984390D01*
X72047385Y-76057058D01*
X71981579Y-76080538D01*
X71913525Y-76064712D01*
X71864830Y-76014606D01*
X71850500Y-75956740D01*
X71850500Y-75537148D01*
X71870185Y-75470109D01*
X71901609Y-75436834D01*
X71972230Y-75385526D01*
X72091859Y-75252665D01*
X72181250Y-75097835D01*
X72236497Y-74927803D01*
X72255185Y-74750000D01*
X72236497Y-74572197D01*
X72181250Y-74402165D01*
X72091859Y-74247335D01*
X72045003Y-74195296D01*
X71972235Y-74114478D01*
X71972232Y-74114476D01*
X71972231Y-74114475D01*
X71972230Y-74114474D01*
X71827593Y-74009388D01*
X71664267Y-73936671D01*
X71664265Y-73936670D01*
X71536594Y-73909533D01*
X71489391Y-73899500D01*
X71310609Y-73899500D01*
X71279954Y-73906015D01*
X71135733Y-73936670D01*
X70974935Y-74008263D01*
X70905685Y-74017547D01*
X70842409Y-73987919D01*
X70805196Y-73928784D01*
X70800500Y-73894983D01*
X70800500Y-61975000D01*
X73419815Y-61975000D01*
X73438503Y-62152805D01*
X73438504Y-62152807D01*
X73493747Y-62322829D01*
X73493750Y-62322835D01*
X73583141Y-62477665D01*
X73624812Y-62523946D01*
X73702764Y-62610521D01*
X73702767Y-62610523D01*
X73702770Y-62610526D01*
X73847407Y-62715612D01*
X74010733Y-62788329D01*
X74185609Y-62825500D01*
X74185610Y-62825500D01*
X74364389Y-62825500D01*
X74364391Y-62825500D01*
X74539267Y-62788329D01*
X74702593Y-62715612D01*
X74794025Y-62649182D01*
X74859831Y-62625702D01*
X74866911Y-62625500D01*
X76667576Y-62625500D01*
X76734615Y-62645185D01*
X76780370Y-62697989D01*
X76790314Y-62767147D01*
X76774963Y-62811500D01*
X76693750Y-62952164D01*
X76693747Y-62952170D01*
X76638504Y-63122192D01*
X76638503Y-63122194D01*
X76619815Y-63300000D01*
X76638503Y-63477805D01*
X76638504Y-63477807D01*
X76693747Y-63647829D01*
X76693750Y-63647835D01*
X76783141Y-63802665D01*
X76824812Y-63848946D01*
X76902764Y-63935521D01*
X76902767Y-63935523D01*
X76902770Y-63935526D01*
X77047407Y-64040612D01*
X77210733Y-64113329D01*
X77210735Y-64113329D01*
X77210736Y-64113330D01*
X77262766Y-64124389D01*
X77375010Y-64148247D01*
X77436490Y-64181438D01*
X77436909Y-64181855D01*
X77440581Y-64185527D01*
X77474066Y-64246850D01*
X77476900Y-64273208D01*
X77476900Y-77691469D01*
X77476900Y-77691471D01*
X77476899Y-77691471D01*
X77501897Y-77817138D01*
X77501899Y-77817144D01*
X77550935Y-77935527D01*
X77622123Y-78042069D01*
X77622126Y-78042073D01*
X77622127Y-78042074D01*
X85309658Y-85729604D01*
X85314127Y-85734313D01*
X85427764Y-85860521D01*
X85427767Y-85860523D01*
X85427770Y-85860526D01*
X85572407Y-85965612D01*
X85735733Y-86038329D01*
X85910609Y-86075500D01*
X85910610Y-86075500D01*
X86089389Y-86075500D01*
X86089391Y-86075500D01*
X86264267Y-86038329D01*
X86427593Y-85965612D01*
X86572230Y-85860526D01*
X86691859Y-85727665D01*
X86781250Y-85572835D01*
X86836497Y-85402803D01*
X86855185Y-85225000D01*
X86836497Y-85047197D01*
X86781250Y-84877165D01*
X86691859Y-84722335D01*
X86617635Y-84639901D01*
X86572235Y-84589478D01*
X86572232Y-84589476D01*
X86572231Y-84589475D01*
X86572230Y-84589474D01*
X86427593Y-84484388D01*
X86264267Y-84411671D01*
X86264265Y-84411670D01*
X86119336Y-84380865D01*
X86089391Y-84374500D01*
X85910609Y-84374500D01*
X85880661Y-84380865D01*
X85810994Y-84375547D01*
X85767201Y-84347255D01*
X79169940Y-77749994D01*
X92994859Y-77749994D01*
X92994859Y-77750005D01*
X93015385Y-77997729D01*
X93015387Y-77997738D01*
X93076412Y-78238717D01*
X93176267Y-78466367D01*
X93276562Y-78619881D01*
X93976212Y-77920233D01*
X93987482Y-77962292D01*
X94059890Y-78087708D01*
X94162292Y-78190110D01*
X94287708Y-78262518D01*
X94329766Y-78273787D01*
X93629943Y-78973609D01*
X93676768Y-79010055D01*
X93676771Y-79010057D01*
X93895385Y-79128364D01*
X93895396Y-79128369D01*
X94130506Y-79209083D01*
X94375707Y-79250000D01*
X94624293Y-79250000D01*
X94869493Y-79209083D01*
X95104603Y-79128369D01*
X95104614Y-79128364D01*
X95323230Y-79010056D01*
X95323236Y-79010051D01*
X95370055Y-78973610D01*
X95370056Y-78973609D01*
X94670233Y-78273787D01*
X94712292Y-78262518D01*
X94837708Y-78190110D01*
X94940110Y-78087708D01*
X95012518Y-77962292D01*
X95023787Y-77920234D01*
X95723435Y-78619882D01*
X95823733Y-78466364D01*
X95923587Y-78238717D01*
X95984612Y-77997738D01*
X95984614Y-77997729D01*
X96005141Y-77750005D01*
X96005141Y-77749994D01*
X99494859Y-77749994D01*
X99494859Y-77750005D01*
X99515385Y-77997729D01*
X99515387Y-77997738D01*
X99576412Y-78238717D01*
X99676267Y-78466367D01*
X99776562Y-78619881D01*
X100476212Y-77920233D01*
X100487482Y-77962292D01*
X100559890Y-78087708D01*
X100662292Y-78190110D01*
X100787708Y-78262518D01*
X100829766Y-78273787D01*
X100129943Y-78973609D01*
X100176768Y-79010055D01*
X100176771Y-79010057D01*
X100395385Y-79128364D01*
X100395396Y-79128369D01*
X100630506Y-79209083D01*
X100875707Y-79250000D01*
X101124293Y-79250000D01*
X101369493Y-79209083D01*
X101604603Y-79128369D01*
X101604614Y-79128364D01*
X101823230Y-79010056D01*
X101823236Y-79010051D01*
X101870055Y-78973610D01*
X101870056Y-78973609D01*
X101170233Y-78273787D01*
X101212292Y-78262518D01*
X101337708Y-78190110D01*
X101440110Y-78087708D01*
X101512518Y-77962292D01*
X101523787Y-77920234D01*
X102223435Y-78619882D01*
X102323733Y-78466364D01*
X102423587Y-78238717D01*
X102484612Y-77997738D01*
X102484614Y-77997729D01*
X102505141Y-77750005D01*
X102505141Y-77749994D01*
X102484614Y-77502270D01*
X102484612Y-77502261D01*
X102423587Y-77261282D01*
X102323732Y-77033632D01*
X102223435Y-76880116D01*
X101523787Y-77579765D01*
X101512518Y-77537708D01*
X101440110Y-77412292D01*
X101337708Y-77309890D01*
X101212292Y-77237482D01*
X101170233Y-77226212D01*
X101870055Y-76526389D01*
X101870055Y-76526388D01*
X101823236Y-76489947D01*
X101823231Y-76489944D01*
X101604614Y-76371635D01*
X101604603Y-76371630D01*
X101369493Y-76290916D01*
X101124293Y-76250000D01*
X100875707Y-76250000D01*
X100630506Y-76290916D01*
X100395396Y-76371630D01*
X100395385Y-76371635D01*
X100176770Y-76489943D01*
X100129943Y-76526389D01*
X100829766Y-77226212D01*
X100787708Y-77237482D01*
X100662292Y-77309890D01*
X100559890Y-77412292D01*
X100487482Y-77537708D01*
X100476212Y-77579766D01*
X99776563Y-76880117D01*
X99676267Y-77033633D01*
X99676265Y-77033637D01*
X99576412Y-77261282D01*
X99515387Y-77502261D01*
X99515385Y-77502270D01*
X99494859Y-77749994D01*
X96005141Y-77749994D01*
X95984614Y-77502270D01*
X95984612Y-77502261D01*
X95923587Y-77261282D01*
X95823732Y-77033632D01*
X95723435Y-76880116D01*
X95023787Y-77579765D01*
X95012518Y-77537708D01*
X94940110Y-77412292D01*
X94837708Y-77309890D01*
X94712292Y-77237482D01*
X94670233Y-77226212D01*
X95370055Y-76526389D01*
X95370055Y-76526388D01*
X95323236Y-76489947D01*
X95323231Y-76489944D01*
X95104614Y-76371635D01*
X95104603Y-76371630D01*
X94869493Y-76290916D01*
X94624293Y-76250000D01*
X94375707Y-76250000D01*
X94130506Y-76290916D01*
X93895396Y-76371630D01*
X93895385Y-76371635D01*
X93676770Y-76489943D01*
X93629943Y-76526389D01*
X94329766Y-77226212D01*
X94287708Y-77237482D01*
X94162292Y-77309890D01*
X94059890Y-77412292D01*
X93987482Y-77537708D01*
X93976212Y-77579766D01*
X93276563Y-76880117D01*
X93176267Y-77033633D01*
X93176265Y-77033637D01*
X93076412Y-77261282D01*
X93015387Y-77502261D01*
X93015385Y-77502270D01*
X92994859Y-77749994D01*
X79169940Y-77749994D01*
X78814219Y-77394273D01*
X78780734Y-77332950D01*
X78777900Y-77306592D01*
X78777900Y-66347208D01*
X78797585Y-66280169D01*
X78850389Y-66234414D01*
X78919547Y-66224470D01*
X78983103Y-66253495D01*
X78989581Y-66259527D01*
X86803154Y-74073100D01*
X86836639Y-74134423D01*
X86838482Y-74168003D01*
X86838715Y-74168003D01*
X86838715Y-74172249D01*
X86838796Y-74173725D01*
X86838715Y-74174500D01*
X86849927Y-74281181D01*
X86857403Y-74352305D01*
X86857404Y-74352307D01*
X86912647Y-74522329D01*
X86912650Y-74522335D01*
X87002041Y-74677165D01*
X87031219Y-74709570D01*
X87121664Y-74810021D01*
X87121667Y-74810023D01*
X87121670Y-74810026D01*
X87266307Y-74915112D01*
X87429633Y-74987829D01*
X87604509Y-75025000D01*
X87604510Y-75025000D01*
X87783289Y-75025000D01*
X87783291Y-75025000D01*
X87958167Y-74987829D01*
X88121493Y-74915112D01*
X88266130Y-74810026D01*
X88385759Y-74677165D01*
X88475150Y-74522335D01*
X88530397Y-74352303D01*
X88549085Y-74174500D01*
X88530397Y-73996697D01*
X88475150Y-73826665D01*
X88385759Y-73671835D01*
X88338903Y-73619796D01*
X88266135Y-73538978D01*
X88266132Y-73538976D01*
X88266131Y-73538975D01*
X88266130Y-73538974D01*
X88121493Y-73433888D01*
X87958167Y-73361171D01*
X87958163Y-73361169D01*
X87951990Y-73359164D01*
X87952498Y-73357598D01*
X87898250Y-73328303D01*
X87897842Y-73327896D01*
X87819940Y-73249994D01*
X92994357Y-73249994D01*
X92994357Y-73250005D01*
X93014890Y-73497812D01*
X93014892Y-73497824D01*
X93075936Y-73738881D01*
X93175826Y-73966606D01*
X93311833Y-74174782D01*
X93311836Y-74174785D01*
X93480256Y-74357738D01*
X93676491Y-74510474D01*
X93895190Y-74628828D01*
X94130386Y-74709571D01*
X94375665Y-74750500D01*
X94624335Y-74750500D01*
X94869614Y-74709571D01*
X95104810Y-74628828D01*
X95323509Y-74510474D01*
X95519744Y-74357738D01*
X95688164Y-74174785D01*
X95824173Y-73966607D01*
X95924063Y-73738881D01*
X95985108Y-73497821D01*
X95985109Y-73497812D01*
X96005643Y-73250005D01*
X96005643Y-73249994D01*
X99494357Y-73249994D01*
X99494357Y-73250005D01*
X99514890Y-73497812D01*
X99514892Y-73497824D01*
X99575936Y-73738881D01*
X99675826Y-73966606D01*
X99811833Y-74174782D01*
X99811836Y-74174785D01*
X99980256Y-74357738D01*
X100176491Y-74510474D01*
X100395190Y-74628828D01*
X100630386Y-74709571D01*
X100875665Y-74750500D01*
X101124335Y-74750500D01*
X101369614Y-74709571D01*
X101604810Y-74628828D01*
X101823509Y-74510474D01*
X102019744Y-74357738D01*
X102188164Y-74174785D01*
X102324173Y-73966607D01*
X102424063Y-73738881D01*
X102485108Y-73497821D01*
X102485109Y-73497812D01*
X102505643Y-73250005D01*
X102505643Y-73249994D01*
X102485109Y-73002187D01*
X102485107Y-73002175D01*
X102424063Y-72761118D01*
X102324173Y-72533393D01*
X102188166Y-72325217D01*
X102166557Y-72301744D01*
X102019744Y-72142262D01*
X101823509Y-71989526D01*
X101823507Y-71989525D01*
X101823506Y-71989524D01*
X101604811Y-71871172D01*
X101604802Y-71871169D01*
X101369616Y-71790429D01*
X101124335Y-71749500D01*
X100875665Y-71749500D01*
X100630383Y-71790429D01*
X100395197Y-71871169D01*
X100395188Y-71871172D01*
X100176493Y-71989524D01*
X99980257Y-72142261D01*
X99811833Y-72325217D01*
X99675826Y-72533393D01*
X99575936Y-72761118D01*
X99514892Y-73002175D01*
X99514890Y-73002187D01*
X99494357Y-73249994D01*
X96005643Y-73249994D01*
X95985109Y-73002187D01*
X95985107Y-73002175D01*
X95924063Y-72761118D01*
X95824173Y-72533393D01*
X95688166Y-72325217D01*
X95666557Y-72301744D01*
X95519744Y-72142262D01*
X95323509Y-71989526D01*
X95323507Y-71989525D01*
X95323506Y-71989524D01*
X95104811Y-71871172D01*
X95104802Y-71871169D01*
X94869616Y-71790429D01*
X94624335Y-71749500D01*
X94375665Y-71749500D01*
X94130383Y-71790429D01*
X93895197Y-71871169D01*
X93895188Y-71871172D01*
X93676493Y-71989524D01*
X93480257Y-72142261D01*
X93311833Y-72325217D01*
X93175826Y-72533393D01*
X93075936Y-72761118D01*
X93014892Y-73002175D01*
X93014890Y-73002187D01*
X92994357Y-73249994D01*
X87819940Y-73249994D01*
X79434946Y-64865000D01*
X83094815Y-64865000D01*
X83113503Y-65042805D01*
X83113504Y-65042807D01*
X83168747Y-65212829D01*
X83168750Y-65212835D01*
X83258141Y-65367665D01*
X83299254Y-65413325D01*
X83377764Y-65500521D01*
X83377767Y-65500523D01*
X83377770Y-65500526D01*
X83522407Y-65605612D01*
X83685733Y-65678329D01*
X83685735Y-65678329D01*
X83685736Y-65678330D01*
X83742275Y-65690347D01*
X83850010Y-65713247D01*
X83911490Y-65746438D01*
X83911909Y-65746855D01*
X84770325Y-66605272D01*
X84770332Y-66605278D01*
X84841128Y-66652582D01*
X84841129Y-66652582D01*
X84876873Y-66676465D01*
X84995256Y-66725501D01*
X84995260Y-66725501D01*
X84995261Y-66725502D01*
X85120928Y-66750500D01*
X85120931Y-66750500D01*
X85258089Y-66750500D01*
X85325128Y-66770185D01*
X85330976Y-66774182D01*
X85422407Y-66840612D01*
X85585733Y-66913329D01*
X85760609Y-66950500D01*
X85760610Y-66950500D01*
X85939389Y-66950500D01*
X85939391Y-66950500D01*
X86114267Y-66913329D01*
X86277593Y-66840612D01*
X86422230Y-66735526D01*
X86431258Y-66725500D01*
X86475408Y-66676466D01*
X86541859Y-66602665D01*
X86631250Y-66447835D01*
X86686497Y-66277803D01*
X86705185Y-66100000D01*
X86698878Y-66039998D01*
X96734838Y-66039998D01*
X96734838Y-66040001D01*
X96753450Y-66252741D01*
X96753452Y-66252752D01*
X96808721Y-66459022D01*
X96808723Y-66459026D01*
X96808724Y-66459030D01*
X96851171Y-66550058D01*
X96898977Y-66652578D01*
X97021472Y-66827521D01*
X97172478Y-66978527D01*
X97172481Y-66978529D01*
X97347419Y-67101021D01*
X97347421Y-67101022D01*
X97347420Y-67101022D01*
X97411936Y-67131106D01*
X97540970Y-67191276D01*
X97747253Y-67246549D01*
X97899215Y-67259844D01*
X97959998Y-67265162D01*
X97960000Y-67265162D01*
X97960002Y-67265162D01*
X98013186Y-67260508D01*
X98172747Y-67246549D01*
X98379030Y-67191276D01*
X98572581Y-67101021D01*
X98747519Y-66978529D01*
X98898529Y-66827519D01*
X99021021Y-66652581D01*
X99111276Y-66459030D01*
X99166549Y-66252747D01*
X99185162Y-66040000D01*
X99166549Y-65827253D01*
X99111276Y-65620970D01*
X99021021Y-65427419D01*
X98898529Y-65252481D01*
X98898527Y-65252478D01*
X98747521Y-65101472D01*
X98572578Y-64978977D01*
X98572579Y-64978977D01*
X98443547Y-64918809D01*
X98379030Y-64888724D01*
X98379026Y-64888723D01*
X98379022Y-64888721D01*
X98172752Y-64833452D01*
X98172748Y-64833451D01*
X98172747Y-64833451D01*
X98172746Y-64833450D01*
X98172741Y-64833450D01*
X97960002Y-64814838D01*
X97959998Y-64814838D01*
X97747258Y-64833450D01*
X97747247Y-64833452D01*
X97540977Y-64888721D01*
X97540968Y-64888725D01*
X97347421Y-64978977D01*
X97172478Y-65101472D01*
X97021472Y-65252478D01*
X96898977Y-65427421D01*
X96808725Y-65620968D01*
X96808721Y-65620977D01*
X96753452Y-65827247D01*
X96753450Y-65827258D01*
X96734838Y-66039998D01*
X86698878Y-66039998D01*
X86686497Y-65922197D01*
X86631250Y-65752165D01*
X86541859Y-65597335D01*
X86483968Y-65533041D01*
X86422235Y-65464478D01*
X86422232Y-65464476D01*
X86422231Y-65464475D01*
X86422230Y-65464474D01*
X86277593Y-65359388D01*
X86114267Y-65286671D01*
X86114265Y-65286670D01*
X85986594Y-65259533D01*
X85939391Y-65249500D01*
X85760609Y-65249500D01*
X85713405Y-65259533D01*
X85585735Y-65286670D01*
X85585733Y-65286671D01*
X85460077Y-65342616D01*
X85390830Y-65351900D01*
X85327553Y-65322272D01*
X85321963Y-65317017D01*
X84828628Y-64823682D01*
X84795143Y-64762359D01*
X84792988Y-64748961D01*
X84788530Y-64706547D01*
X84786497Y-64687197D01*
X84731250Y-64517165D01*
X84641859Y-64362335D01*
X84574496Y-64287521D01*
X84522235Y-64229478D01*
X84522232Y-64229476D01*
X84522231Y-64229475D01*
X84522230Y-64229474D01*
X84377593Y-64124388D01*
X84214267Y-64051671D01*
X84214265Y-64051670D01*
X84086594Y-64024533D01*
X84039391Y-64014500D01*
X83860609Y-64014500D01*
X83829954Y-64021015D01*
X83685733Y-64051670D01*
X83685728Y-64051672D01*
X83522408Y-64124387D01*
X83377768Y-64229475D01*
X83258140Y-64362336D01*
X83168750Y-64517164D01*
X83168747Y-64517170D01*
X83113504Y-64687192D01*
X83113503Y-64687194D01*
X83094815Y-64865000D01*
X79434946Y-64865000D01*
X79266619Y-64696673D01*
X79233134Y-64635350D01*
X79230300Y-64608992D01*
X79230300Y-63499998D01*
X99274838Y-63499998D01*
X99274838Y-63500001D01*
X99293450Y-63712741D01*
X99293452Y-63712752D01*
X99348721Y-63919022D01*
X99348723Y-63919026D01*
X99348724Y-63919030D01*
X99369915Y-63964474D01*
X99438977Y-64112578D01*
X99438978Y-64112580D01*
X99438979Y-64112581D01*
X99447246Y-64124387D01*
X99561472Y-64287521D01*
X99712478Y-64438527D01*
X99712481Y-64438529D01*
X99887419Y-64561021D01*
X99887421Y-64561022D01*
X99887420Y-64561022D01*
X99951936Y-64591106D01*
X100080970Y-64651276D01*
X100287253Y-64706549D01*
X100439215Y-64719844D01*
X100499998Y-64725162D01*
X100500000Y-64725162D01*
X100500002Y-64725162D01*
X100553186Y-64720508D01*
X100712747Y-64706549D01*
X100919030Y-64651276D01*
X101112581Y-64561021D01*
X101287519Y-64438529D01*
X101438529Y-64287519D01*
X101561021Y-64112581D01*
X101651276Y-63919030D01*
X101706549Y-63712747D01*
X101725162Y-63500000D01*
X101706549Y-63287253D01*
X101651276Y-63080970D01*
X101561021Y-62887419D01*
X101438529Y-62712481D01*
X101438527Y-62712478D01*
X101287521Y-62561472D01*
X101112578Y-62438977D01*
X101112579Y-62438977D01*
X100983547Y-62378809D01*
X100919030Y-62348724D01*
X100919026Y-62348723D01*
X100919022Y-62348721D01*
X100712752Y-62293452D01*
X100712748Y-62293451D01*
X100712747Y-62293451D01*
X100712746Y-62293450D01*
X100712741Y-62293450D01*
X100500002Y-62274838D01*
X100499998Y-62274838D01*
X100287258Y-62293450D01*
X100287247Y-62293452D01*
X100080977Y-62348721D01*
X100080968Y-62348725D01*
X99887421Y-62438977D01*
X99712478Y-62561472D01*
X99561472Y-62712478D01*
X99438977Y-62887421D01*
X99348725Y-63080968D01*
X99348721Y-63080977D01*
X99293452Y-63287247D01*
X99293450Y-63287258D01*
X99274838Y-63499998D01*
X79230300Y-63499998D01*
X79230300Y-63418095D01*
X79205302Y-63292428D01*
X79205301Y-63292427D01*
X79205301Y-63292423D01*
X79156265Y-63174040D01*
X79085077Y-63067498D01*
X79085075Y-63067496D01*
X79085073Y-63067493D01*
X77487306Y-61469726D01*
X77487302Y-61469723D01*
X77380760Y-61398535D01*
X77333673Y-61379031D01*
X77262377Y-61349499D01*
X77262371Y-61349497D01*
X77136704Y-61324500D01*
X77136702Y-61324500D01*
X74866911Y-61324500D01*
X74799872Y-61304815D01*
X74794025Y-61300818D01*
X74702594Y-61234389D01*
X74702593Y-61234388D01*
X74539267Y-61161671D01*
X74539265Y-61161670D01*
X74411594Y-61134533D01*
X74364391Y-61124500D01*
X74185609Y-61124500D01*
X74154954Y-61131015D01*
X74010733Y-61161670D01*
X74010728Y-61161672D01*
X73847408Y-61234387D01*
X73702768Y-61339475D01*
X73583140Y-61472336D01*
X73493750Y-61627164D01*
X73493747Y-61627170D01*
X73438504Y-61797192D01*
X73438503Y-61797194D01*
X73419815Y-61975000D01*
X70800500Y-61975000D01*
X70800500Y-60959998D01*
X96734838Y-60959998D01*
X96734838Y-60960001D01*
X96753450Y-61172741D01*
X96753452Y-61172752D01*
X96808721Y-61379022D01*
X96808723Y-61379026D01*
X96808724Y-61379030D01*
X96851015Y-61469723D01*
X96898977Y-61572578D01*
X97021472Y-61747521D01*
X97172478Y-61898527D01*
X97172481Y-61898529D01*
X97347419Y-62021021D01*
X97347421Y-62021022D01*
X97347420Y-62021022D01*
X97411936Y-62051106D01*
X97540970Y-62111276D01*
X97747253Y-62166549D01*
X97899215Y-62179844D01*
X97959998Y-62185162D01*
X97960000Y-62185162D01*
X97960002Y-62185162D01*
X98013186Y-62180508D01*
X98172747Y-62166549D01*
X98379030Y-62111276D01*
X98572581Y-62021021D01*
X98747519Y-61898529D01*
X98898529Y-61747519D01*
X99021021Y-61572581D01*
X99111276Y-61379030D01*
X99166549Y-61172747D01*
X99185162Y-60960000D01*
X99166549Y-60747253D01*
X99111276Y-60540970D01*
X99021021Y-60347419D01*
X98898529Y-60172481D01*
X98898527Y-60172478D01*
X98747521Y-60021472D01*
X98572578Y-59898977D01*
X98572579Y-59898977D01*
X98443547Y-59838809D01*
X98379030Y-59808724D01*
X98379026Y-59808723D01*
X98379022Y-59808721D01*
X98172752Y-59753452D01*
X98172748Y-59753451D01*
X98172747Y-59753451D01*
X98172746Y-59753450D01*
X98172741Y-59753450D01*
X97960002Y-59734838D01*
X97959998Y-59734838D01*
X97747258Y-59753450D01*
X97747247Y-59753452D01*
X97540977Y-59808721D01*
X97540968Y-59808725D01*
X97347421Y-59898977D01*
X97172478Y-60021472D01*
X97021472Y-60172478D01*
X96898977Y-60347421D01*
X96808725Y-60540968D01*
X96808721Y-60540977D01*
X96753452Y-60747247D01*
X96753450Y-60747258D01*
X96734838Y-60959998D01*
X70800500Y-60959998D01*
X70800500Y-60003480D01*
X70800695Y-59996527D01*
X70810214Y-59827028D01*
X70817084Y-59704691D01*
X70818638Y-59690898D01*
X70867015Y-59406167D01*
X70870109Y-59392615D01*
X70941563Y-59144596D01*
X70950061Y-59115096D01*
X70954653Y-59101975D01*
X71065175Y-58835151D01*
X71071195Y-58822651D01*
X71210902Y-58569868D01*
X71218297Y-58558100D01*
X71259842Y-58499548D01*
X71385422Y-58322559D01*
X71394077Y-58311705D01*
X71586534Y-58096346D01*
X71596346Y-58086534D01*
X71811705Y-57894077D01*
X71822559Y-57885422D01*
X72058105Y-57718293D01*
X72069868Y-57710902D01*
X72322651Y-57571195D01*
X72335151Y-57565175D01*
X72601979Y-57454651D01*
X72615096Y-57450061D01*
X72892621Y-57370107D01*
X72906167Y-57367015D01*
X73190898Y-57318638D01*
X73204691Y-57317084D01*
X73496528Y-57300695D01*
X73503481Y-57300500D01*
X73547595Y-57300500D01*
X100452405Y-57300500D01*
X100496519Y-57300500D01*
X100503472Y-57300695D01*
G37*
%TD.AperFunction*%
%TD*%
M02*
