%TF.GenerationSoftware,KiCad,Pcbnew,8.0.7*%
%TF.CreationDate,2025-01-18T18:37:27+05:30*%
%TF.ProjectId,AOS16 Timer,414f5331-3620-4546-996d-65722e6b6963,rev?*%
%TF.SameCoordinates,Original*%
%TF.FileFunction,Legend,Top*%
%TF.FilePolarity,Positive*%
%FSLAX46Y46*%
G04 Gerber Fmt 4.6, Leading zero omitted, Abs format (unit mm)*
G04 Created by KiCad (PCBNEW 8.0.7) date 2025-01-18 18:37:27*
%MOMM*%
%LPD*%
G01*
G04 APERTURE LIST*
%ADD10C,0.250000*%
%ADD11C,0.100000*%
%ADD12C,0.200000*%
%ADD13C,0.150000*%
%ADD14C,0.120000*%
G04 APERTURE END LIST*
D10*
X89167857Y-89459941D02*
X89882143Y-89459941D01*
X89025000Y-89888512D02*
X89525000Y-88388512D01*
X89525000Y-88388512D02*
X90025000Y-89888512D01*
X90810714Y-88388512D02*
X91096428Y-88388512D01*
X91096428Y-88388512D02*
X91239285Y-88459941D01*
X91239285Y-88459941D02*
X91382142Y-88602798D01*
X91382142Y-88602798D02*
X91453571Y-88888512D01*
X91453571Y-88888512D02*
X91453571Y-89388512D01*
X91453571Y-89388512D02*
X91382142Y-89674226D01*
X91382142Y-89674226D02*
X91239285Y-89817084D01*
X91239285Y-89817084D02*
X91096428Y-89888512D01*
X91096428Y-89888512D02*
X90810714Y-89888512D01*
X90810714Y-89888512D02*
X90667857Y-89817084D01*
X90667857Y-89817084D02*
X90524999Y-89674226D01*
X90524999Y-89674226D02*
X90453571Y-89388512D01*
X90453571Y-89388512D02*
X90453571Y-88888512D01*
X90453571Y-88888512D02*
X90524999Y-88602798D01*
X90524999Y-88602798D02*
X90667857Y-88459941D01*
X90667857Y-88459941D02*
X90810714Y-88388512D01*
X92025000Y-89817084D02*
X92239286Y-89888512D01*
X92239286Y-89888512D02*
X92596428Y-89888512D01*
X92596428Y-89888512D02*
X92739286Y-89817084D01*
X92739286Y-89817084D02*
X92810714Y-89745655D01*
X92810714Y-89745655D02*
X92882143Y-89602798D01*
X92882143Y-89602798D02*
X92882143Y-89459941D01*
X92882143Y-89459941D02*
X92810714Y-89317084D01*
X92810714Y-89317084D02*
X92739286Y-89245655D01*
X92739286Y-89245655D02*
X92596428Y-89174226D01*
X92596428Y-89174226D02*
X92310714Y-89102798D01*
X92310714Y-89102798D02*
X92167857Y-89031369D01*
X92167857Y-89031369D02*
X92096428Y-88959941D01*
X92096428Y-88959941D02*
X92025000Y-88817084D01*
X92025000Y-88817084D02*
X92025000Y-88674226D01*
X92025000Y-88674226D02*
X92096428Y-88531369D01*
X92096428Y-88531369D02*
X92167857Y-88459941D01*
X92167857Y-88459941D02*
X92310714Y-88388512D01*
X92310714Y-88388512D02*
X92667857Y-88388512D01*
X92667857Y-88388512D02*
X92882143Y-88459941D01*
X88132143Y-90803428D02*
X88989286Y-90803428D01*
X88560714Y-92303428D02*
X88560714Y-90803428D01*
X89489285Y-92303428D02*
X89489285Y-91303428D01*
X89489285Y-90803428D02*
X89417857Y-90874857D01*
X89417857Y-90874857D02*
X89489285Y-90946285D01*
X89489285Y-90946285D02*
X89560714Y-90874857D01*
X89560714Y-90874857D02*
X89489285Y-90803428D01*
X89489285Y-90803428D02*
X89489285Y-90946285D01*
X90203571Y-92303428D02*
X90203571Y-91303428D01*
X90203571Y-91446285D02*
X90275000Y-91374857D01*
X90275000Y-91374857D02*
X90417857Y-91303428D01*
X90417857Y-91303428D02*
X90632143Y-91303428D01*
X90632143Y-91303428D02*
X90775000Y-91374857D01*
X90775000Y-91374857D02*
X90846429Y-91517714D01*
X90846429Y-91517714D02*
X90846429Y-92303428D01*
X90846429Y-91517714D02*
X90917857Y-91374857D01*
X90917857Y-91374857D02*
X91060714Y-91303428D01*
X91060714Y-91303428D02*
X91275000Y-91303428D01*
X91275000Y-91303428D02*
X91417857Y-91374857D01*
X91417857Y-91374857D02*
X91489286Y-91517714D01*
X91489286Y-91517714D02*
X91489286Y-92303428D01*
X92775000Y-92232000D02*
X92632143Y-92303428D01*
X92632143Y-92303428D02*
X92346429Y-92303428D01*
X92346429Y-92303428D02*
X92203571Y-92232000D01*
X92203571Y-92232000D02*
X92132143Y-92089142D01*
X92132143Y-92089142D02*
X92132143Y-91517714D01*
X92132143Y-91517714D02*
X92203571Y-91374857D01*
X92203571Y-91374857D02*
X92346429Y-91303428D01*
X92346429Y-91303428D02*
X92632143Y-91303428D01*
X92632143Y-91303428D02*
X92775000Y-91374857D01*
X92775000Y-91374857D02*
X92846429Y-91517714D01*
X92846429Y-91517714D02*
X92846429Y-91660571D01*
X92846429Y-91660571D02*
X92132143Y-91803428D01*
X93489285Y-92303428D02*
X93489285Y-91303428D01*
X93489285Y-91589142D02*
X93560714Y-91446285D01*
X93560714Y-91446285D02*
X93632143Y-91374857D01*
X93632143Y-91374857D02*
X93775000Y-91303428D01*
X93775000Y-91303428D02*
X93917857Y-91303428D01*
D11*
X71685990Y-87929449D02*
X71709800Y-87953258D01*
X71709800Y-87953258D02*
X71733609Y-88024687D01*
X71733609Y-88024687D02*
X71733609Y-88072306D01*
X71733609Y-88072306D02*
X71709800Y-88143734D01*
X71709800Y-88143734D02*
X71662180Y-88191353D01*
X71662180Y-88191353D02*
X71614561Y-88215163D01*
X71614561Y-88215163D02*
X71519323Y-88238972D01*
X71519323Y-88238972D02*
X71447895Y-88238972D01*
X71447895Y-88238972D02*
X71352657Y-88215163D01*
X71352657Y-88215163D02*
X71305038Y-88191353D01*
X71305038Y-88191353D02*
X71257419Y-88143734D01*
X71257419Y-88143734D02*
X71233609Y-88072306D01*
X71233609Y-88072306D02*
X71233609Y-88024687D01*
X71233609Y-88024687D02*
X71257419Y-87953258D01*
X71257419Y-87953258D02*
X71281228Y-87929449D01*
X71733609Y-87477068D02*
X71733609Y-87715163D01*
X71733609Y-87715163D02*
X71233609Y-87715163D01*
X71733609Y-87310401D02*
X71233609Y-87310401D01*
X71733609Y-87024687D02*
X71447895Y-87238972D01*
X71233609Y-87024687D02*
X71519323Y-87310401D01*
X71685990Y-90429449D02*
X71709800Y-90453258D01*
X71709800Y-90453258D02*
X71733609Y-90524687D01*
X71733609Y-90524687D02*
X71733609Y-90572306D01*
X71733609Y-90572306D02*
X71709800Y-90643734D01*
X71709800Y-90643734D02*
X71662180Y-90691353D01*
X71662180Y-90691353D02*
X71614561Y-90715163D01*
X71614561Y-90715163D02*
X71519323Y-90738972D01*
X71519323Y-90738972D02*
X71447895Y-90738972D01*
X71447895Y-90738972D02*
X71352657Y-90715163D01*
X71352657Y-90715163D02*
X71305038Y-90691353D01*
X71305038Y-90691353D02*
X71257419Y-90643734D01*
X71257419Y-90643734D02*
X71233609Y-90572306D01*
X71233609Y-90572306D02*
X71233609Y-90524687D01*
X71233609Y-90524687D02*
X71257419Y-90453258D01*
X71257419Y-90453258D02*
X71281228Y-90429449D01*
X71733609Y-89977068D02*
X71733609Y-90215163D01*
X71733609Y-90215163D02*
X71233609Y-90215163D01*
X71733609Y-89810401D02*
X71233609Y-89810401D01*
X71733609Y-89524687D02*
X71447895Y-89738972D01*
X71233609Y-89524687D02*
X71519323Y-89810401D01*
X71094800Y-90784211D02*
X71094800Y-89479449D01*
X71257419Y-85753258D02*
X71233609Y-85800877D01*
X71233609Y-85800877D02*
X71233609Y-85872306D01*
X71233609Y-85872306D02*
X71257419Y-85943734D01*
X71257419Y-85943734D02*
X71305038Y-85991353D01*
X71305038Y-85991353D02*
X71352657Y-86015163D01*
X71352657Y-86015163D02*
X71447895Y-86038972D01*
X71447895Y-86038972D02*
X71519323Y-86038972D01*
X71519323Y-86038972D02*
X71614561Y-86015163D01*
X71614561Y-86015163D02*
X71662180Y-85991353D01*
X71662180Y-85991353D02*
X71709800Y-85943734D01*
X71709800Y-85943734D02*
X71733609Y-85872306D01*
X71733609Y-85872306D02*
X71733609Y-85824687D01*
X71733609Y-85824687D02*
X71709800Y-85753258D01*
X71709800Y-85753258D02*
X71685990Y-85729449D01*
X71685990Y-85729449D02*
X71519323Y-85729449D01*
X71519323Y-85729449D02*
X71519323Y-85824687D01*
X71733609Y-85515163D02*
X71233609Y-85515163D01*
X71233609Y-85515163D02*
X71733609Y-85229449D01*
X71733609Y-85229449D02*
X71233609Y-85229449D01*
X71733609Y-84991353D02*
X71233609Y-84991353D01*
X71233609Y-84991353D02*
X71233609Y-84872305D01*
X71233609Y-84872305D02*
X71257419Y-84800877D01*
X71257419Y-84800877D02*
X71305038Y-84753258D01*
X71305038Y-84753258D02*
X71352657Y-84729448D01*
X71352657Y-84729448D02*
X71447895Y-84705639D01*
X71447895Y-84705639D02*
X71519323Y-84705639D01*
X71519323Y-84705639D02*
X71614561Y-84729448D01*
X71614561Y-84729448D02*
X71662180Y-84753258D01*
X71662180Y-84753258D02*
X71709800Y-84800877D01*
X71709800Y-84800877D02*
X71733609Y-84872305D01*
X71733609Y-84872305D02*
X71733609Y-84991353D01*
X71233609Y-82677068D02*
X71233609Y-82915163D01*
X71233609Y-82915163D02*
X71471704Y-82938972D01*
X71471704Y-82938972D02*
X71447895Y-82915163D01*
X71447895Y-82915163D02*
X71424085Y-82867544D01*
X71424085Y-82867544D02*
X71424085Y-82748496D01*
X71424085Y-82748496D02*
X71447895Y-82700877D01*
X71447895Y-82700877D02*
X71471704Y-82677068D01*
X71471704Y-82677068D02*
X71519323Y-82653258D01*
X71519323Y-82653258D02*
X71638371Y-82653258D01*
X71638371Y-82653258D02*
X71685990Y-82677068D01*
X71685990Y-82677068D02*
X71709800Y-82700877D01*
X71709800Y-82700877D02*
X71733609Y-82748496D01*
X71733609Y-82748496D02*
X71733609Y-82867544D01*
X71733609Y-82867544D02*
X71709800Y-82915163D01*
X71709800Y-82915163D02*
X71685990Y-82938972D01*
X71233609Y-82510401D02*
X71733609Y-82343735D01*
X71733609Y-82343735D02*
X71233609Y-82177068D01*
D12*
X96869673Y-80367219D02*
X96869673Y-79367219D01*
X96869673Y-79367219D02*
X97250625Y-79367219D01*
X97250625Y-79367219D02*
X97345863Y-79414838D01*
X97345863Y-79414838D02*
X97393482Y-79462457D01*
X97393482Y-79462457D02*
X97441101Y-79557695D01*
X97441101Y-79557695D02*
X97441101Y-79700552D01*
X97441101Y-79700552D02*
X97393482Y-79795790D01*
X97393482Y-79795790D02*
X97345863Y-79843409D01*
X97345863Y-79843409D02*
X97250625Y-79891028D01*
X97250625Y-79891028D02*
X96869673Y-79891028D01*
X98345863Y-80367219D02*
X97869673Y-80367219D01*
X97869673Y-80367219D02*
X97869673Y-79367219D01*
X98631578Y-80319600D02*
X98774435Y-80367219D01*
X98774435Y-80367219D02*
X99012530Y-80367219D01*
X99012530Y-80367219D02*
X99107768Y-80319600D01*
X99107768Y-80319600D02*
X99155387Y-80271980D01*
X99155387Y-80271980D02*
X99203006Y-80176742D01*
X99203006Y-80176742D02*
X99203006Y-80081504D01*
X99203006Y-80081504D02*
X99155387Y-79986266D01*
X99155387Y-79986266D02*
X99107768Y-79938647D01*
X99107768Y-79938647D02*
X99012530Y-79891028D01*
X99012530Y-79891028D02*
X98822054Y-79843409D01*
X98822054Y-79843409D02*
X98726816Y-79795790D01*
X98726816Y-79795790D02*
X98679197Y-79748171D01*
X98679197Y-79748171D02*
X98631578Y-79652933D01*
X98631578Y-79652933D02*
X98631578Y-79557695D01*
X98631578Y-79557695D02*
X98679197Y-79462457D01*
X98679197Y-79462457D02*
X98726816Y-79414838D01*
X98726816Y-79414838D02*
X98822054Y-79367219D01*
X98822054Y-79367219D02*
X99060149Y-79367219D01*
X99060149Y-79367219D02*
X99203006Y-79414838D01*
X97203006Y-69343409D02*
X96869673Y-69343409D01*
X96869673Y-69867219D02*
X96869673Y-68867219D01*
X96869673Y-68867219D02*
X97345863Y-68867219D01*
X98298244Y-69867219D02*
X97964911Y-69391028D01*
X97726816Y-69867219D02*
X97726816Y-68867219D01*
X97726816Y-68867219D02*
X98107768Y-68867219D01*
X98107768Y-68867219D02*
X98203006Y-68914838D01*
X98203006Y-68914838D02*
X98250625Y-68962457D01*
X98250625Y-68962457D02*
X98298244Y-69057695D01*
X98298244Y-69057695D02*
X98298244Y-69200552D01*
X98298244Y-69200552D02*
X98250625Y-69295790D01*
X98250625Y-69295790D02*
X98203006Y-69343409D01*
X98203006Y-69343409D02*
X98107768Y-69391028D01*
X98107768Y-69391028D02*
X97726816Y-69391028D01*
X99393482Y-69962457D02*
X99298244Y-69914838D01*
X99298244Y-69914838D02*
X99203006Y-69819600D01*
X99203006Y-69819600D02*
X99060149Y-69676742D01*
X99060149Y-69676742D02*
X98964911Y-69629123D01*
X98964911Y-69629123D02*
X98869673Y-69629123D01*
X98917292Y-69867219D02*
X98822054Y-69819600D01*
X98822054Y-69819600D02*
X98726816Y-69724361D01*
X98726816Y-69724361D02*
X98679197Y-69533885D01*
X98679197Y-69533885D02*
X98679197Y-69200552D01*
X98679197Y-69200552D02*
X98726816Y-69010076D01*
X98726816Y-69010076D02*
X98822054Y-68914838D01*
X98822054Y-68914838D02*
X98917292Y-68867219D01*
X98917292Y-68867219D02*
X99107768Y-68867219D01*
X99107768Y-68867219D02*
X99203006Y-68914838D01*
X99203006Y-68914838D02*
X99298244Y-69010076D01*
X99298244Y-69010076D02*
X99345863Y-69200552D01*
X99345863Y-69200552D02*
X99345863Y-69533885D01*
X99345863Y-69533885D02*
X99298244Y-69724361D01*
X99298244Y-69724361D02*
X99203006Y-69819600D01*
X99203006Y-69819600D02*
X99107768Y-69867219D01*
X99107768Y-69867219D02*
X98917292Y-69867219D01*
D13*
X79839164Y-87253571D02*
X79089164Y-87253571D01*
X79089164Y-87253571D02*
X79089164Y-87075000D01*
X79089164Y-87075000D02*
X79124878Y-86967857D01*
X79124878Y-86967857D02*
X79196307Y-86896428D01*
X79196307Y-86896428D02*
X79267735Y-86860714D01*
X79267735Y-86860714D02*
X79410592Y-86825000D01*
X79410592Y-86825000D02*
X79517735Y-86825000D01*
X79517735Y-86825000D02*
X79660592Y-86860714D01*
X79660592Y-86860714D02*
X79732021Y-86896428D01*
X79732021Y-86896428D02*
X79803450Y-86967857D01*
X79803450Y-86967857D02*
X79839164Y-87075000D01*
X79839164Y-87075000D02*
X79839164Y-87253571D01*
X79160592Y-86539285D02*
X79124878Y-86503571D01*
X79124878Y-86503571D02*
X79089164Y-86432143D01*
X79089164Y-86432143D02*
X79089164Y-86253571D01*
X79089164Y-86253571D02*
X79124878Y-86182143D01*
X79124878Y-86182143D02*
X79160592Y-86146428D01*
X79160592Y-86146428D02*
X79232021Y-86110714D01*
X79232021Y-86110714D02*
X79303450Y-86110714D01*
X79303450Y-86110714D02*
X79410592Y-86146428D01*
X79410592Y-86146428D02*
X79839164Y-86575000D01*
X79839164Y-86575000D02*
X79839164Y-86110714D01*
X84238095Y-64954819D02*
X84238095Y-65764342D01*
X84238095Y-65764342D02*
X84285714Y-65859580D01*
X84285714Y-65859580D02*
X84333333Y-65907200D01*
X84333333Y-65907200D02*
X84428571Y-65954819D01*
X84428571Y-65954819D02*
X84619047Y-65954819D01*
X84619047Y-65954819D02*
X84714285Y-65907200D01*
X84714285Y-65907200D02*
X84761904Y-65859580D01*
X84761904Y-65859580D02*
X84809523Y-65764342D01*
X84809523Y-65764342D02*
X84809523Y-64954819D01*
X85809523Y-65954819D02*
X85238095Y-65954819D01*
X85523809Y-65954819D02*
X85523809Y-64954819D01*
X85523809Y-64954819D02*
X85428571Y-65097676D01*
X85428571Y-65097676D02*
X85333333Y-65192914D01*
X85333333Y-65192914D02*
X85238095Y-65240533D01*
X82356035Y-70525000D02*
X82391750Y-70560714D01*
X82391750Y-70560714D02*
X82427464Y-70667857D01*
X82427464Y-70667857D02*
X82427464Y-70739285D01*
X82427464Y-70739285D02*
X82391750Y-70846428D01*
X82391750Y-70846428D02*
X82320321Y-70917857D01*
X82320321Y-70917857D02*
X82248892Y-70953571D01*
X82248892Y-70953571D02*
X82106035Y-70989285D01*
X82106035Y-70989285D02*
X81998892Y-70989285D01*
X81998892Y-70989285D02*
X81856035Y-70953571D01*
X81856035Y-70953571D02*
X81784607Y-70917857D01*
X81784607Y-70917857D02*
X81713178Y-70846428D01*
X81713178Y-70846428D02*
X81677464Y-70739285D01*
X81677464Y-70739285D02*
X81677464Y-70667857D01*
X81677464Y-70667857D02*
X81713178Y-70560714D01*
X81713178Y-70560714D02*
X81748892Y-70525000D01*
X81677464Y-69846428D02*
X81677464Y-70203571D01*
X81677464Y-70203571D02*
X82034607Y-70239285D01*
X82034607Y-70239285D02*
X81998892Y-70203571D01*
X81998892Y-70203571D02*
X81963178Y-70132143D01*
X81963178Y-70132143D02*
X81963178Y-69953571D01*
X81963178Y-69953571D02*
X81998892Y-69882143D01*
X81998892Y-69882143D02*
X82034607Y-69846428D01*
X82034607Y-69846428D02*
X82106035Y-69810714D01*
X82106035Y-69810714D02*
X82284607Y-69810714D01*
X82284607Y-69810714D02*
X82356035Y-69846428D01*
X82356035Y-69846428D02*
X82391750Y-69882143D01*
X82391750Y-69882143D02*
X82427464Y-69953571D01*
X82427464Y-69953571D02*
X82427464Y-70132143D01*
X82427464Y-70132143D02*
X82391750Y-70203571D01*
X82391750Y-70203571D02*
X82356035Y-70239285D01*
X87274999Y-61967735D02*
X87239285Y-62003450D01*
X87239285Y-62003450D02*
X87132142Y-62039164D01*
X87132142Y-62039164D02*
X87060714Y-62039164D01*
X87060714Y-62039164D02*
X86953571Y-62003450D01*
X86953571Y-62003450D02*
X86882142Y-61932021D01*
X86882142Y-61932021D02*
X86846428Y-61860592D01*
X86846428Y-61860592D02*
X86810714Y-61717735D01*
X86810714Y-61717735D02*
X86810714Y-61610592D01*
X86810714Y-61610592D02*
X86846428Y-61467735D01*
X86846428Y-61467735D02*
X86882142Y-61396307D01*
X86882142Y-61396307D02*
X86953571Y-61324878D01*
X86953571Y-61324878D02*
X87060714Y-61289164D01*
X87060714Y-61289164D02*
X87132142Y-61289164D01*
X87132142Y-61289164D02*
X87239285Y-61324878D01*
X87239285Y-61324878D02*
X87274999Y-61360592D01*
X87524999Y-61289164D02*
X87989285Y-61289164D01*
X87989285Y-61289164D02*
X87739285Y-61574878D01*
X87739285Y-61574878D02*
X87846428Y-61574878D01*
X87846428Y-61574878D02*
X87917857Y-61610592D01*
X87917857Y-61610592D02*
X87953571Y-61646307D01*
X87953571Y-61646307D02*
X87989285Y-61717735D01*
X87989285Y-61717735D02*
X87989285Y-61896307D01*
X87989285Y-61896307D02*
X87953571Y-61967735D01*
X87953571Y-61967735D02*
X87917857Y-62003450D01*
X87917857Y-62003450D02*
X87846428Y-62039164D01*
X87846428Y-62039164D02*
X87632142Y-62039164D01*
X87632142Y-62039164D02*
X87560714Y-62003450D01*
X87560714Y-62003450D02*
X87524999Y-61967735D01*
X90024999Y-70339164D02*
X89774999Y-69982021D01*
X89596428Y-70339164D02*
X89596428Y-69589164D01*
X89596428Y-69589164D02*
X89882142Y-69589164D01*
X89882142Y-69589164D02*
X89953571Y-69624878D01*
X89953571Y-69624878D02*
X89989285Y-69660592D01*
X89989285Y-69660592D02*
X90024999Y-69732021D01*
X90024999Y-69732021D02*
X90024999Y-69839164D01*
X90024999Y-69839164D02*
X89989285Y-69910592D01*
X89989285Y-69910592D02*
X89953571Y-69946307D01*
X89953571Y-69946307D02*
X89882142Y-69982021D01*
X89882142Y-69982021D02*
X89596428Y-69982021D01*
X90274999Y-69589164D02*
X90739285Y-69589164D01*
X90739285Y-69589164D02*
X90489285Y-69874878D01*
X90489285Y-69874878D02*
X90596428Y-69874878D01*
X90596428Y-69874878D02*
X90667857Y-69910592D01*
X90667857Y-69910592D02*
X90703571Y-69946307D01*
X90703571Y-69946307D02*
X90739285Y-70017735D01*
X90739285Y-70017735D02*
X90739285Y-70196307D01*
X90739285Y-70196307D02*
X90703571Y-70267735D01*
X90703571Y-70267735D02*
X90667857Y-70303450D01*
X90667857Y-70303450D02*
X90596428Y-70339164D01*
X90596428Y-70339164D02*
X90382142Y-70339164D01*
X90382142Y-70339164D02*
X90310714Y-70303450D01*
X90310714Y-70303450D02*
X90274999Y-70267735D01*
X80552735Y-61850000D02*
X80588450Y-61885714D01*
X80588450Y-61885714D02*
X80624164Y-61992857D01*
X80624164Y-61992857D02*
X80624164Y-62064285D01*
X80624164Y-62064285D02*
X80588450Y-62171428D01*
X80588450Y-62171428D02*
X80517021Y-62242857D01*
X80517021Y-62242857D02*
X80445592Y-62278571D01*
X80445592Y-62278571D02*
X80302735Y-62314285D01*
X80302735Y-62314285D02*
X80195592Y-62314285D01*
X80195592Y-62314285D02*
X80052735Y-62278571D01*
X80052735Y-62278571D02*
X79981307Y-62242857D01*
X79981307Y-62242857D02*
X79909878Y-62171428D01*
X79909878Y-62171428D02*
X79874164Y-62064285D01*
X79874164Y-62064285D02*
X79874164Y-61992857D01*
X79874164Y-61992857D02*
X79909878Y-61885714D01*
X79909878Y-61885714D02*
X79945592Y-61850000D01*
X80624164Y-61135714D02*
X80624164Y-61564285D01*
X80624164Y-61350000D02*
X79874164Y-61350000D01*
X79874164Y-61350000D02*
X79981307Y-61421428D01*
X79981307Y-61421428D02*
X80052735Y-61492857D01*
X80052735Y-61492857D02*
X80088450Y-61564285D01*
X80517735Y-79575000D02*
X80553450Y-79610714D01*
X80553450Y-79610714D02*
X80589164Y-79717857D01*
X80589164Y-79717857D02*
X80589164Y-79789285D01*
X80589164Y-79789285D02*
X80553450Y-79896428D01*
X80553450Y-79896428D02*
X80482021Y-79967857D01*
X80482021Y-79967857D02*
X80410592Y-80003571D01*
X80410592Y-80003571D02*
X80267735Y-80039285D01*
X80267735Y-80039285D02*
X80160592Y-80039285D01*
X80160592Y-80039285D02*
X80017735Y-80003571D01*
X80017735Y-80003571D02*
X79946307Y-79967857D01*
X79946307Y-79967857D02*
X79874878Y-79896428D01*
X79874878Y-79896428D02*
X79839164Y-79789285D01*
X79839164Y-79789285D02*
X79839164Y-79717857D01*
X79839164Y-79717857D02*
X79874878Y-79610714D01*
X79874878Y-79610714D02*
X79910592Y-79575000D01*
X79839164Y-78932143D02*
X79839164Y-79075000D01*
X79839164Y-79075000D02*
X79874878Y-79146428D01*
X79874878Y-79146428D02*
X79910592Y-79182143D01*
X79910592Y-79182143D02*
X80017735Y-79253571D01*
X80017735Y-79253571D02*
X80160592Y-79289285D01*
X80160592Y-79289285D02*
X80446307Y-79289285D01*
X80446307Y-79289285D02*
X80517735Y-79253571D01*
X80517735Y-79253571D02*
X80553450Y-79217857D01*
X80553450Y-79217857D02*
X80589164Y-79146428D01*
X80589164Y-79146428D02*
X80589164Y-79003571D01*
X80589164Y-79003571D02*
X80553450Y-78932143D01*
X80553450Y-78932143D02*
X80517735Y-78896428D01*
X80517735Y-78896428D02*
X80446307Y-78860714D01*
X80446307Y-78860714D02*
X80267735Y-78860714D01*
X80267735Y-78860714D02*
X80196307Y-78896428D01*
X80196307Y-78896428D02*
X80160592Y-78932143D01*
X80160592Y-78932143D02*
X80124878Y-79003571D01*
X80124878Y-79003571D02*
X80124878Y-79146428D01*
X80124878Y-79146428D02*
X80160592Y-79217857D01*
X80160592Y-79217857D02*
X80196307Y-79253571D01*
X80196307Y-79253571D02*
X80267735Y-79289285D01*
X84326395Y-85159819D02*
X84326395Y-85969342D01*
X84326395Y-85969342D02*
X84374014Y-86064580D01*
X84374014Y-86064580D02*
X84421633Y-86112200D01*
X84421633Y-86112200D02*
X84516871Y-86159819D01*
X84516871Y-86159819D02*
X84707347Y-86159819D01*
X84707347Y-86159819D02*
X84802585Y-86112200D01*
X84802585Y-86112200D02*
X84850204Y-86064580D01*
X84850204Y-86064580D02*
X84897823Y-85969342D01*
X84897823Y-85969342D02*
X84897823Y-85159819D01*
X85278776Y-85159819D02*
X85897823Y-85159819D01*
X85897823Y-85159819D02*
X85564490Y-85540771D01*
X85564490Y-85540771D02*
X85707347Y-85540771D01*
X85707347Y-85540771D02*
X85802585Y-85588390D01*
X85802585Y-85588390D02*
X85850204Y-85636009D01*
X85850204Y-85636009D02*
X85897823Y-85731247D01*
X85897823Y-85731247D02*
X85897823Y-85969342D01*
X85897823Y-85969342D02*
X85850204Y-86064580D01*
X85850204Y-86064580D02*
X85802585Y-86112200D01*
X85802585Y-86112200D02*
X85707347Y-86159819D01*
X85707347Y-86159819D02*
X85421633Y-86159819D01*
X85421633Y-86159819D02*
X85326395Y-86112200D01*
X85326395Y-86112200D02*
X85278776Y-86064580D01*
X84874999Y-70967735D02*
X84839285Y-71003450D01*
X84839285Y-71003450D02*
X84732142Y-71039164D01*
X84732142Y-71039164D02*
X84660714Y-71039164D01*
X84660714Y-71039164D02*
X84553571Y-71003450D01*
X84553571Y-71003450D02*
X84482142Y-70932021D01*
X84482142Y-70932021D02*
X84446428Y-70860592D01*
X84446428Y-70860592D02*
X84410714Y-70717735D01*
X84410714Y-70717735D02*
X84410714Y-70610592D01*
X84410714Y-70610592D02*
X84446428Y-70467735D01*
X84446428Y-70467735D02*
X84482142Y-70396307D01*
X84482142Y-70396307D02*
X84553571Y-70324878D01*
X84553571Y-70324878D02*
X84660714Y-70289164D01*
X84660714Y-70289164D02*
X84732142Y-70289164D01*
X84732142Y-70289164D02*
X84839285Y-70324878D01*
X84839285Y-70324878D02*
X84874999Y-70360592D01*
X85160714Y-70360592D02*
X85196428Y-70324878D01*
X85196428Y-70324878D02*
X85267857Y-70289164D01*
X85267857Y-70289164D02*
X85446428Y-70289164D01*
X85446428Y-70289164D02*
X85517857Y-70324878D01*
X85517857Y-70324878D02*
X85553571Y-70360592D01*
X85553571Y-70360592D02*
X85589285Y-70432021D01*
X85589285Y-70432021D02*
X85589285Y-70503450D01*
X85589285Y-70503450D02*
X85553571Y-70610592D01*
X85553571Y-70610592D02*
X85124999Y-71039164D01*
X85124999Y-71039164D02*
X85589285Y-71039164D01*
X90089164Y-61925000D02*
X89732021Y-62175000D01*
X90089164Y-62353571D02*
X89339164Y-62353571D01*
X89339164Y-62353571D02*
X89339164Y-62067857D01*
X89339164Y-62067857D02*
X89374878Y-61996428D01*
X89374878Y-61996428D02*
X89410592Y-61960714D01*
X89410592Y-61960714D02*
X89482021Y-61925000D01*
X89482021Y-61925000D02*
X89589164Y-61925000D01*
X89589164Y-61925000D02*
X89660592Y-61960714D01*
X89660592Y-61960714D02*
X89696307Y-61996428D01*
X89696307Y-61996428D02*
X89732021Y-62067857D01*
X89732021Y-62067857D02*
X89732021Y-62353571D01*
X90089164Y-61210714D02*
X90089164Y-61639285D01*
X90089164Y-61425000D02*
X89339164Y-61425000D01*
X89339164Y-61425000D02*
X89446307Y-61496428D01*
X89446307Y-61496428D02*
X89517735Y-61567857D01*
X89517735Y-61567857D02*
X89553450Y-61639285D01*
X79839164Y-90778571D02*
X79089164Y-90778571D01*
X79089164Y-90778571D02*
X79089164Y-90600000D01*
X79089164Y-90600000D02*
X79124878Y-90492857D01*
X79124878Y-90492857D02*
X79196307Y-90421428D01*
X79196307Y-90421428D02*
X79267735Y-90385714D01*
X79267735Y-90385714D02*
X79410592Y-90350000D01*
X79410592Y-90350000D02*
X79517735Y-90350000D01*
X79517735Y-90350000D02*
X79660592Y-90385714D01*
X79660592Y-90385714D02*
X79732021Y-90421428D01*
X79732021Y-90421428D02*
X79803450Y-90492857D01*
X79803450Y-90492857D02*
X79839164Y-90600000D01*
X79839164Y-90600000D02*
X79839164Y-90778571D01*
X79839164Y-89635714D02*
X79839164Y-90064285D01*
X79839164Y-89850000D02*
X79089164Y-89850000D01*
X79089164Y-89850000D02*
X79196307Y-89921428D01*
X79196307Y-89921428D02*
X79267735Y-89992857D01*
X79267735Y-89992857D02*
X79303450Y-90064285D01*
X82489164Y-79575000D02*
X82132021Y-79825000D01*
X82489164Y-80003571D02*
X81739164Y-80003571D01*
X81739164Y-80003571D02*
X81739164Y-79717857D01*
X81739164Y-79717857D02*
X81774878Y-79646428D01*
X81774878Y-79646428D02*
X81810592Y-79610714D01*
X81810592Y-79610714D02*
X81882021Y-79575000D01*
X81882021Y-79575000D02*
X81989164Y-79575000D01*
X81989164Y-79575000D02*
X82060592Y-79610714D01*
X82060592Y-79610714D02*
X82096307Y-79646428D01*
X82096307Y-79646428D02*
X82132021Y-79717857D01*
X82132021Y-79717857D02*
X82132021Y-80003571D01*
X81989164Y-78932143D02*
X82489164Y-78932143D01*
X81703450Y-79110714D02*
X82239164Y-79289285D01*
X82239164Y-79289285D02*
X82239164Y-78825000D01*
X84163299Y-79267735D02*
X84127585Y-79303450D01*
X84127585Y-79303450D02*
X84020442Y-79339164D01*
X84020442Y-79339164D02*
X83949014Y-79339164D01*
X83949014Y-79339164D02*
X83841871Y-79303450D01*
X83841871Y-79303450D02*
X83770442Y-79232021D01*
X83770442Y-79232021D02*
X83734728Y-79160592D01*
X83734728Y-79160592D02*
X83699014Y-79017735D01*
X83699014Y-79017735D02*
X83699014Y-78910592D01*
X83699014Y-78910592D02*
X83734728Y-78767735D01*
X83734728Y-78767735D02*
X83770442Y-78696307D01*
X83770442Y-78696307D02*
X83841871Y-78624878D01*
X83841871Y-78624878D02*
X83949014Y-78589164D01*
X83949014Y-78589164D02*
X84020442Y-78589164D01*
X84020442Y-78589164D02*
X84127585Y-78624878D01*
X84127585Y-78624878D02*
X84163299Y-78660592D01*
X84591871Y-78910592D02*
X84520442Y-78874878D01*
X84520442Y-78874878D02*
X84484728Y-78839164D01*
X84484728Y-78839164D02*
X84449014Y-78767735D01*
X84449014Y-78767735D02*
X84449014Y-78732021D01*
X84449014Y-78732021D02*
X84484728Y-78660592D01*
X84484728Y-78660592D02*
X84520442Y-78624878D01*
X84520442Y-78624878D02*
X84591871Y-78589164D01*
X84591871Y-78589164D02*
X84734728Y-78589164D01*
X84734728Y-78589164D02*
X84806157Y-78624878D01*
X84806157Y-78624878D02*
X84841871Y-78660592D01*
X84841871Y-78660592D02*
X84877585Y-78732021D01*
X84877585Y-78732021D02*
X84877585Y-78767735D01*
X84877585Y-78767735D02*
X84841871Y-78839164D01*
X84841871Y-78839164D02*
X84806157Y-78874878D01*
X84806157Y-78874878D02*
X84734728Y-78910592D01*
X84734728Y-78910592D02*
X84591871Y-78910592D01*
X84591871Y-78910592D02*
X84520442Y-78946307D01*
X84520442Y-78946307D02*
X84484728Y-78982021D01*
X84484728Y-78982021D02*
X84449014Y-79053450D01*
X84449014Y-79053450D02*
X84449014Y-79196307D01*
X84449014Y-79196307D02*
X84484728Y-79267735D01*
X84484728Y-79267735D02*
X84520442Y-79303450D01*
X84520442Y-79303450D02*
X84591871Y-79339164D01*
X84591871Y-79339164D02*
X84734728Y-79339164D01*
X84734728Y-79339164D02*
X84806157Y-79303450D01*
X84806157Y-79303450D02*
X84841871Y-79267735D01*
X84841871Y-79267735D02*
X84877585Y-79196307D01*
X84877585Y-79196307D02*
X84877585Y-79053450D01*
X84877585Y-79053450D02*
X84841871Y-78982021D01*
X84841871Y-78982021D02*
X84806157Y-78946307D01*
X84806157Y-78946307D02*
X84734728Y-78910592D01*
X90839164Y-87325000D02*
X90482021Y-87575000D01*
X90839164Y-87753571D02*
X90089164Y-87753571D01*
X90089164Y-87753571D02*
X90089164Y-87467857D01*
X90089164Y-87467857D02*
X90124878Y-87396428D01*
X90124878Y-87396428D02*
X90160592Y-87360714D01*
X90160592Y-87360714D02*
X90232021Y-87325000D01*
X90232021Y-87325000D02*
X90339164Y-87325000D01*
X90339164Y-87325000D02*
X90410592Y-87360714D01*
X90410592Y-87360714D02*
X90446307Y-87396428D01*
X90446307Y-87396428D02*
X90482021Y-87467857D01*
X90482021Y-87467857D02*
X90482021Y-87753571D01*
X90089164Y-86682143D02*
X90089164Y-86825000D01*
X90089164Y-86825000D02*
X90124878Y-86896428D01*
X90124878Y-86896428D02*
X90160592Y-86932143D01*
X90160592Y-86932143D02*
X90267735Y-87003571D01*
X90267735Y-87003571D02*
X90410592Y-87039285D01*
X90410592Y-87039285D02*
X90696307Y-87039285D01*
X90696307Y-87039285D02*
X90767735Y-87003571D01*
X90767735Y-87003571D02*
X90803450Y-86967857D01*
X90803450Y-86967857D02*
X90839164Y-86896428D01*
X90839164Y-86896428D02*
X90839164Y-86753571D01*
X90839164Y-86753571D02*
X90803450Y-86682143D01*
X90803450Y-86682143D02*
X90767735Y-86646428D01*
X90767735Y-86646428D02*
X90696307Y-86610714D01*
X90696307Y-86610714D02*
X90517735Y-86610714D01*
X90517735Y-86610714D02*
X90446307Y-86646428D01*
X90446307Y-86646428D02*
X90410592Y-86682143D01*
X90410592Y-86682143D02*
X90374878Y-86753571D01*
X90374878Y-86753571D02*
X90374878Y-86896428D01*
X90374878Y-86896428D02*
X90410592Y-86967857D01*
X90410592Y-86967857D02*
X90446307Y-87003571D01*
X90446307Y-87003571D02*
X90517735Y-87039285D01*
X74238095Y-74144819D02*
X74238095Y-74954342D01*
X74238095Y-74954342D02*
X74285714Y-75049580D01*
X74285714Y-75049580D02*
X74333333Y-75097200D01*
X74333333Y-75097200D02*
X74428571Y-75144819D01*
X74428571Y-75144819D02*
X74619047Y-75144819D01*
X74619047Y-75144819D02*
X74714285Y-75097200D01*
X74714285Y-75097200D02*
X74761904Y-75049580D01*
X74761904Y-75049580D02*
X74809523Y-74954342D01*
X74809523Y-74954342D02*
X74809523Y-74144819D01*
X75761904Y-74144819D02*
X75285714Y-74144819D01*
X75285714Y-74144819D02*
X75238095Y-74621009D01*
X75238095Y-74621009D02*
X75285714Y-74573390D01*
X75285714Y-74573390D02*
X75380952Y-74525771D01*
X75380952Y-74525771D02*
X75619047Y-74525771D01*
X75619047Y-74525771D02*
X75714285Y-74573390D01*
X75714285Y-74573390D02*
X75761904Y-74621009D01*
X75761904Y-74621009D02*
X75809523Y-74716247D01*
X75809523Y-74716247D02*
X75809523Y-74954342D01*
X75809523Y-74954342D02*
X75761904Y-75049580D01*
X75761904Y-75049580D02*
X75714285Y-75097200D01*
X75714285Y-75097200D02*
X75619047Y-75144819D01*
X75619047Y-75144819D02*
X75380952Y-75144819D01*
X75380952Y-75144819D02*
X75285714Y-75097200D01*
X75285714Y-75097200D02*
X75238095Y-75049580D01*
X91839164Y-61950000D02*
X91482021Y-62200000D01*
X91839164Y-62378571D02*
X91089164Y-62378571D01*
X91089164Y-62378571D02*
X91089164Y-62092857D01*
X91089164Y-62092857D02*
X91124878Y-62021428D01*
X91124878Y-62021428D02*
X91160592Y-61985714D01*
X91160592Y-61985714D02*
X91232021Y-61950000D01*
X91232021Y-61950000D02*
X91339164Y-61950000D01*
X91339164Y-61950000D02*
X91410592Y-61985714D01*
X91410592Y-61985714D02*
X91446307Y-62021428D01*
X91446307Y-62021428D02*
X91482021Y-62092857D01*
X91482021Y-62092857D02*
X91482021Y-62378571D01*
X91160592Y-61664285D02*
X91124878Y-61628571D01*
X91124878Y-61628571D02*
X91089164Y-61557143D01*
X91089164Y-61557143D02*
X91089164Y-61378571D01*
X91089164Y-61378571D02*
X91124878Y-61307143D01*
X91124878Y-61307143D02*
X91160592Y-61271428D01*
X91160592Y-61271428D02*
X91232021Y-61235714D01*
X91232021Y-61235714D02*
X91303450Y-61235714D01*
X91303450Y-61235714D02*
X91410592Y-61271428D01*
X91410592Y-61271428D02*
X91839164Y-61700000D01*
X91839164Y-61700000D02*
X91839164Y-61235714D01*
X92564164Y-85725000D02*
X92207021Y-85975000D01*
X92564164Y-86153571D02*
X91814164Y-86153571D01*
X91814164Y-86153571D02*
X91814164Y-85867857D01*
X91814164Y-85867857D02*
X91849878Y-85796428D01*
X91849878Y-85796428D02*
X91885592Y-85760714D01*
X91885592Y-85760714D02*
X91957021Y-85725000D01*
X91957021Y-85725000D02*
X92064164Y-85725000D01*
X92064164Y-85725000D02*
X92135592Y-85760714D01*
X92135592Y-85760714D02*
X92171307Y-85796428D01*
X92171307Y-85796428D02*
X92207021Y-85867857D01*
X92207021Y-85867857D02*
X92207021Y-86153571D01*
X91814164Y-85046428D02*
X91814164Y-85403571D01*
X91814164Y-85403571D02*
X92171307Y-85439285D01*
X92171307Y-85439285D02*
X92135592Y-85403571D01*
X92135592Y-85403571D02*
X92099878Y-85332143D01*
X92099878Y-85332143D02*
X92099878Y-85153571D01*
X92099878Y-85153571D02*
X92135592Y-85082143D01*
X92135592Y-85082143D02*
X92171307Y-85046428D01*
X92171307Y-85046428D02*
X92242735Y-85010714D01*
X92242735Y-85010714D02*
X92421307Y-85010714D01*
X92421307Y-85010714D02*
X92492735Y-85046428D01*
X92492735Y-85046428D02*
X92528450Y-85082143D01*
X92528450Y-85082143D02*
X92564164Y-85153571D01*
X92564164Y-85153571D02*
X92564164Y-85332143D01*
X92564164Y-85332143D02*
X92528450Y-85403571D01*
X92528450Y-85403571D02*
X92492735Y-85439285D01*
X87274999Y-60167735D02*
X87239285Y-60203450D01*
X87239285Y-60203450D02*
X87132142Y-60239164D01*
X87132142Y-60239164D02*
X87060714Y-60239164D01*
X87060714Y-60239164D02*
X86953571Y-60203450D01*
X86953571Y-60203450D02*
X86882142Y-60132021D01*
X86882142Y-60132021D02*
X86846428Y-60060592D01*
X86846428Y-60060592D02*
X86810714Y-59917735D01*
X86810714Y-59917735D02*
X86810714Y-59810592D01*
X86810714Y-59810592D02*
X86846428Y-59667735D01*
X86846428Y-59667735D02*
X86882142Y-59596307D01*
X86882142Y-59596307D02*
X86953571Y-59524878D01*
X86953571Y-59524878D02*
X87060714Y-59489164D01*
X87060714Y-59489164D02*
X87132142Y-59489164D01*
X87132142Y-59489164D02*
X87239285Y-59524878D01*
X87239285Y-59524878D02*
X87274999Y-59560592D01*
X87917857Y-59739164D02*
X87917857Y-60239164D01*
X87739285Y-59453450D02*
X87560714Y-59989164D01*
X87560714Y-59989164D02*
X88024999Y-59989164D01*
X80556035Y-81780000D02*
X80591750Y-81815714D01*
X80591750Y-81815714D02*
X80627464Y-81922857D01*
X80627464Y-81922857D02*
X80627464Y-81994285D01*
X80627464Y-81994285D02*
X80591750Y-82101428D01*
X80591750Y-82101428D02*
X80520321Y-82172857D01*
X80520321Y-82172857D02*
X80448892Y-82208571D01*
X80448892Y-82208571D02*
X80306035Y-82244285D01*
X80306035Y-82244285D02*
X80198892Y-82244285D01*
X80198892Y-82244285D02*
X80056035Y-82208571D01*
X80056035Y-82208571D02*
X79984607Y-82172857D01*
X79984607Y-82172857D02*
X79913178Y-82101428D01*
X79913178Y-82101428D02*
X79877464Y-81994285D01*
X79877464Y-81994285D02*
X79877464Y-81922857D01*
X79877464Y-81922857D02*
X79913178Y-81815714D01*
X79913178Y-81815714D02*
X79948892Y-81780000D01*
X80627464Y-81422857D02*
X80627464Y-81280000D01*
X80627464Y-81280000D02*
X80591750Y-81208571D01*
X80591750Y-81208571D02*
X80556035Y-81172857D01*
X80556035Y-81172857D02*
X80448892Y-81101428D01*
X80448892Y-81101428D02*
X80306035Y-81065714D01*
X80306035Y-81065714D02*
X80020321Y-81065714D01*
X80020321Y-81065714D02*
X79948892Y-81101428D01*
X79948892Y-81101428D02*
X79913178Y-81137143D01*
X79913178Y-81137143D02*
X79877464Y-81208571D01*
X79877464Y-81208571D02*
X79877464Y-81351428D01*
X79877464Y-81351428D02*
X79913178Y-81422857D01*
X79913178Y-81422857D02*
X79948892Y-81458571D01*
X79948892Y-81458571D02*
X80020321Y-81494285D01*
X80020321Y-81494285D02*
X80198892Y-81494285D01*
X80198892Y-81494285D02*
X80270321Y-81458571D01*
X80270321Y-81458571D02*
X80306035Y-81422857D01*
X80306035Y-81422857D02*
X80341750Y-81351428D01*
X80341750Y-81351428D02*
X80341750Y-81208571D01*
X80341750Y-81208571D02*
X80306035Y-81137143D01*
X80306035Y-81137143D02*
X80270321Y-81101428D01*
X80270321Y-81101428D02*
X80198892Y-81065714D01*
X86126395Y-74759819D02*
X86126395Y-75569342D01*
X86126395Y-75569342D02*
X86174014Y-75664580D01*
X86174014Y-75664580D02*
X86221633Y-75712200D01*
X86221633Y-75712200D02*
X86316871Y-75759819D01*
X86316871Y-75759819D02*
X86507347Y-75759819D01*
X86507347Y-75759819D02*
X86602585Y-75712200D01*
X86602585Y-75712200D02*
X86650204Y-75664580D01*
X86650204Y-75664580D02*
X86697823Y-75569342D01*
X86697823Y-75569342D02*
X86697823Y-74759819D01*
X87126395Y-74855057D02*
X87174014Y-74807438D01*
X87174014Y-74807438D02*
X87269252Y-74759819D01*
X87269252Y-74759819D02*
X87507347Y-74759819D01*
X87507347Y-74759819D02*
X87602585Y-74807438D01*
X87602585Y-74807438D02*
X87650204Y-74855057D01*
X87650204Y-74855057D02*
X87697823Y-74950295D01*
X87697823Y-74950295D02*
X87697823Y-75045533D01*
X87697823Y-75045533D02*
X87650204Y-75188390D01*
X87650204Y-75188390D02*
X87078776Y-75759819D01*
X87078776Y-75759819D02*
X87697823Y-75759819D01*
X81717856Y-89967735D02*
X81682142Y-90003450D01*
X81682142Y-90003450D02*
X81574999Y-90039164D01*
X81574999Y-90039164D02*
X81503571Y-90039164D01*
X81503571Y-90039164D02*
X81396428Y-90003450D01*
X81396428Y-90003450D02*
X81324999Y-89932021D01*
X81324999Y-89932021D02*
X81289285Y-89860592D01*
X81289285Y-89860592D02*
X81253571Y-89717735D01*
X81253571Y-89717735D02*
X81253571Y-89610592D01*
X81253571Y-89610592D02*
X81289285Y-89467735D01*
X81289285Y-89467735D02*
X81324999Y-89396307D01*
X81324999Y-89396307D02*
X81396428Y-89324878D01*
X81396428Y-89324878D02*
X81503571Y-89289164D01*
X81503571Y-89289164D02*
X81574999Y-89289164D01*
X81574999Y-89289164D02*
X81682142Y-89324878D01*
X81682142Y-89324878D02*
X81717856Y-89360592D01*
X82432142Y-90039164D02*
X82003571Y-90039164D01*
X82217856Y-90039164D02*
X82217856Y-89289164D01*
X82217856Y-89289164D02*
X82146428Y-89396307D01*
X82146428Y-89396307D02*
X82074999Y-89467735D01*
X82074999Y-89467735D02*
X82003571Y-89503450D01*
X82896428Y-89289164D02*
X82967857Y-89289164D01*
X82967857Y-89289164D02*
X83039285Y-89324878D01*
X83039285Y-89324878D02*
X83075000Y-89360592D01*
X83075000Y-89360592D02*
X83110714Y-89432021D01*
X83110714Y-89432021D02*
X83146428Y-89574878D01*
X83146428Y-89574878D02*
X83146428Y-89753450D01*
X83146428Y-89753450D02*
X83110714Y-89896307D01*
X83110714Y-89896307D02*
X83075000Y-89967735D01*
X83075000Y-89967735D02*
X83039285Y-90003450D01*
X83039285Y-90003450D02*
X82967857Y-90039164D01*
X82967857Y-90039164D02*
X82896428Y-90039164D01*
X82896428Y-90039164D02*
X82825000Y-90003450D01*
X82825000Y-90003450D02*
X82789285Y-89967735D01*
X82789285Y-89967735D02*
X82753571Y-89896307D01*
X82753571Y-89896307D02*
X82717857Y-89753450D01*
X82717857Y-89753450D02*
X82717857Y-89574878D01*
X82717857Y-89574878D02*
X82753571Y-89432021D01*
X82753571Y-89432021D02*
X82789285Y-89360592D01*
X82789285Y-89360592D02*
X82825000Y-89324878D01*
X82825000Y-89324878D02*
X82896428Y-89289164D01*
X84174999Y-81067735D02*
X84139285Y-81103450D01*
X84139285Y-81103450D02*
X84032142Y-81139164D01*
X84032142Y-81139164D02*
X83960714Y-81139164D01*
X83960714Y-81139164D02*
X83853571Y-81103450D01*
X83853571Y-81103450D02*
X83782142Y-81032021D01*
X83782142Y-81032021D02*
X83746428Y-80960592D01*
X83746428Y-80960592D02*
X83710714Y-80817735D01*
X83710714Y-80817735D02*
X83710714Y-80710592D01*
X83710714Y-80710592D02*
X83746428Y-80567735D01*
X83746428Y-80567735D02*
X83782142Y-80496307D01*
X83782142Y-80496307D02*
X83853571Y-80424878D01*
X83853571Y-80424878D02*
X83960714Y-80389164D01*
X83960714Y-80389164D02*
X84032142Y-80389164D01*
X84032142Y-80389164D02*
X84139285Y-80424878D01*
X84139285Y-80424878D02*
X84174999Y-80460592D01*
X84424999Y-80389164D02*
X84924999Y-80389164D01*
X84924999Y-80389164D02*
X84603571Y-81139164D01*
X81717856Y-91767735D02*
X81682142Y-91803450D01*
X81682142Y-91803450D02*
X81574999Y-91839164D01*
X81574999Y-91839164D02*
X81503571Y-91839164D01*
X81503571Y-91839164D02*
X81396428Y-91803450D01*
X81396428Y-91803450D02*
X81324999Y-91732021D01*
X81324999Y-91732021D02*
X81289285Y-91660592D01*
X81289285Y-91660592D02*
X81253571Y-91517735D01*
X81253571Y-91517735D02*
X81253571Y-91410592D01*
X81253571Y-91410592D02*
X81289285Y-91267735D01*
X81289285Y-91267735D02*
X81324999Y-91196307D01*
X81324999Y-91196307D02*
X81396428Y-91124878D01*
X81396428Y-91124878D02*
X81503571Y-91089164D01*
X81503571Y-91089164D02*
X81574999Y-91089164D01*
X81574999Y-91089164D02*
X81682142Y-91124878D01*
X81682142Y-91124878D02*
X81717856Y-91160592D01*
X82432142Y-91839164D02*
X82003571Y-91839164D01*
X82217856Y-91839164D02*
X82217856Y-91089164D01*
X82217856Y-91089164D02*
X82146428Y-91196307D01*
X82146428Y-91196307D02*
X82074999Y-91267735D01*
X82074999Y-91267735D02*
X82003571Y-91303450D01*
X83146428Y-91839164D02*
X82717857Y-91839164D01*
X82932142Y-91839164D02*
X82932142Y-91089164D01*
X82932142Y-91089164D02*
X82860714Y-91196307D01*
X82860714Y-91196307D02*
X82789285Y-91267735D01*
X82789285Y-91267735D02*
X82717857Y-91303450D01*
X74213095Y-63304819D02*
X74213095Y-64114342D01*
X74213095Y-64114342D02*
X74260714Y-64209580D01*
X74260714Y-64209580D02*
X74308333Y-64257200D01*
X74308333Y-64257200D02*
X74403571Y-64304819D01*
X74403571Y-64304819D02*
X74594047Y-64304819D01*
X74594047Y-64304819D02*
X74689285Y-64257200D01*
X74689285Y-64257200D02*
X74736904Y-64209580D01*
X74736904Y-64209580D02*
X74784523Y-64114342D01*
X74784523Y-64114342D02*
X74784523Y-63304819D01*
X75689285Y-63638152D02*
X75689285Y-64304819D01*
X75451190Y-63257200D02*
X75213095Y-63971485D01*
X75213095Y-63971485D02*
X75832142Y-63971485D01*
D14*
%TO.C,D2*%
X77265000Y-85900000D02*
X77265000Y-88185000D01*
X77265000Y-88185000D02*
X78735000Y-88185000D01*
X78735000Y-88185000D02*
X78735000Y-85900000D01*
%TO.C,U1*%
X85000000Y-62940000D02*
X83050000Y-62940000D01*
X85000000Y-62940000D02*
X86950000Y-62940000D01*
X85000000Y-68060000D02*
X83050000Y-68060000D01*
X85000000Y-68060000D02*
X86950000Y-68060000D01*
X82300000Y-63035000D02*
X82060000Y-62705000D01*
X82540000Y-62705000D01*
X82300000Y-63035000D01*
G36*
X82300000Y-63035000D02*
G01*
X82060000Y-62705000D01*
X82540000Y-62705000D01*
X82300000Y-63035000D01*
G37*
%TO.C,C5*%
X81578300Y-73165580D02*
X81578300Y-72884420D01*
X82598300Y-73165580D02*
X82598300Y-72884420D01*
%TO.C,C3*%
X84965580Y-61190000D02*
X84684420Y-61190000D01*
X84965580Y-62210000D02*
X84684420Y-62210000D01*
%TO.C,R3*%
X90412258Y-71872500D02*
X89937742Y-71872500D01*
X90412258Y-70827500D02*
X89937742Y-70827500D01*
%TO.C,C1*%
X79775000Y-64440580D02*
X79775000Y-64159420D01*
X80795000Y-64440580D02*
X80795000Y-64159420D01*
%TO.C,C6*%
X79740000Y-76534420D02*
X79740000Y-76815580D01*
X80760000Y-76534420D02*
X80760000Y-76815580D01*
%TO.C,U3*%
X85088300Y-83240000D02*
X83138300Y-83240000D01*
X85088300Y-83240000D02*
X87038300Y-83240000D01*
X85088300Y-88360000D02*
X83138300Y-88360000D01*
X85088300Y-88360000D02*
X87038300Y-88360000D01*
X88028300Y-88595000D02*
X87548300Y-88595000D01*
X87788300Y-88265000D01*
X88028300Y-88595000D01*
G36*
X88028300Y-88595000D02*
G01*
X87548300Y-88595000D01*
X87788300Y-88265000D01*
X88028300Y-88595000D01*
G37*
D12*
%TO.C,S1*%
X97575000Y-83700000D02*
X97575000Y-83700000D01*
X97575000Y-83900000D02*
X97575000Y-83900000D01*
D11*
X98275000Y-82050000D02*
X101875000Y-82050000D01*
X98275000Y-82800000D02*
X98275000Y-82050000D01*
X98275000Y-84800000D02*
X98275000Y-87800000D01*
X98275000Y-90550000D02*
X98275000Y-89800000D01*
X101875000Y-82050000D02*
X101875000Y-85300000D01*
X101875000Y-87300000D02*
X101875000Y-90550000D01*
X101875000Y-90550000D02*
X98275000Y-90550000D01*
D12*
X97575000Y-83700000D02*
G75*
G02*
X97575000Y-83900000I0J-100000D01*
G01*
X97575000Y-83900000D02*
G75*
G02*
X97575000Y-83700000I0J100000D01*
G01*
D14*
%TO.C,C2*%
X85165580Y-68790000D02*
X84884420Y-68790000D01*
X85165580Y-69810000D02*
X84884420Y-69810000D01*
%TO.C,R1*%
X89227500Y-64062742D02*
X89227500Y-64537258D01*
X90272500Y-64062742D02*
X90272500Y-64537258D01*
%TO.C,D1*%
X77265000Y-89412500D02*
X77265000Y-91697500D01*
X77265000Y-91697500D02*
X78735000Y-91697500D01*
X78735000Y-91697500D02*
X78735000Y-89412500D01*
%TO.C,R4*%
X81627500Y-76912258D02*
X81627500Y-76437742D01*
X82672500Y-76912258D02*
X82672500Y-76437742D01*
%TO.C,C8*%
X86772720Y-78490000D02*
X87053880Y-78490000D01*
X86772720Y-79510000D02*
X87053880Y-79510000D01*
%TO.C,R6*%
X89977500Y-84337742D02*
X89977500Y-84812258D01*
X91022500Y-84337742D02*
X91022500Y-84812258D01*
%TO.C,U5*%
X75000000Y-70315000D02*
X73050000Y-70315000D01*
X75000000Y-70315000D02*
X76950000Y-70315000D01*
X75000000Y-79185000D02*
X73050000Y-79185000D01*
X75000000Y-79185000D02*
X76950000Y-79185000D01*
X77940000Y-79450000D02*
X77460000Y-79450000D01*
X77700000Y-79120000D01*
X77940000Y-79450000D01*
G36*
X77940000Y-79450000D02*
G01*
X77460000Y-79450000D01*
X77700000Y-79120000D01*
X77940000Y-79450000D01*
G37*
%TO.C,R2*%
X90977500Y-64562258D02*
X90977500Y-64087742D01*
X92022500Y-64562258D02*
X92022500Y-64087742D01*
%TO.C,R5*%
X91702500Y-83137258D02*
X91702500Y-82662742D01*
X92747500Y-83137258D02*
X92747500Y-82662742D01*
%TO.C,C4*%
X84965580Y-59390000D02*
X84684420Y-59390000D01*
X84965580Y-60410000D02*
X84684420Y-60410000D01*
%TO.C,RV1*%
X93060000Y-58615000D02*
X93060000Y-68385000D01*
X93060000Y-58615000D02*
X102830000Y-58615000D01*
X93060000Y-68385000D02*
X102830000Y-68385000D01*
X102830000Y-58615000D02*
X102830000Y-68385000D01*
%TO.C,C9*%
X79778300Y-84139420D02*
X79778300Y-84420580D01*
X80798300Y-84139420D02*
X80798300Y-84420580D01*
%TO.C,J1*%
X72170000Y-81170000D02*
X73500000Y-81170000D01*
X72170000Y-82500000D02*
X72170000Y-81170000D01*
X72170000Y-83770000D02*
X72170000Y-91450000D01*
X72170000Y-83770000D02*
X74830000Y-83770000D01*
X72170000Y-91450000D02*
X74830000Y-91450000D01*
X74830000Y-83770000D02*
X74830000Y-91450000D01*
%TO.C,U2*%
X86888300Y-72640000D02*
X84938300Y-72640000D01*
X86888300Y-72640000D02*
X88838300Y-72640000D01*
X86888300Y-77760000D02*
X84938300Y-77760000D01*
X86888300Y-77760000D02*
X88838300Y-77760000D01*
X89828300Y-77995000D02*
X89348300Y-77995000D01*
X89588300Y-77665000D01*
X89828300Y-77995000D01*
G36*
X89828300Y-77995000D02*
G01*
X89348300Y-77995000D01*
X89588300Y-77665000D01*
X89828300Y-77995000D01*
G37*
%TO.C,C10*%
X84922720Y-89195000D02*
X85203880Y-89195000D01*
X84922720Y-90215000D02*
X85203880Y-90215000D01*
%TO.C,SW1*%
X94250000Y-74750000D02*
X94250000Y-76250000D01*
X95500000Y-78750000D02*
X100000000Y-78750000D01*
X100000000Y-72250000D02*
X95500000Y-72250000D01*
X101250000Y-76250000D02*
X101250000Y-74750000D01*
%TO.C,C7*%
X86747720Y-80290000D02*
X87028880Y-80290000D01*
X86747720Y-81310000D02*
X87028880Y-81310000D01*
%TO.C,C11*%
X84922720Y-90995000D02*
X85203880Y-90995000D01*
X84922720Y-92015000D02*
X85203880Y-92015000D01*
%TO.C,U4*%
X75000000Y-59465000D02*
X73050000Y-59465000D01*
X75000000Y-59465000D02*
X76950000Y-59465000D01*
X75000000Y-68335000D02*
X73050000Y-68335000D01*
X75000000Y-68335000D02*
X76950000Y-68335000D01*
X77940000Y-68600000D02*
X77460000Y-68600000D01*
X77700000Y-68270000D01*
X77940000Y-68600000D01*
G36*
X77940000Y-68600000D02*
G01*
X77460000Y-68600000D01*
X77700000Y-68270000D01*
X77940000Y-68600000D01*
G37*
%TD*%
M02*
