M48
; DRILL file {KiCad 8.0.7} date 2025-01-18T18:37:36+0530
; FORMAT={-:-/ absolute / inch / decimal}
; #@! TF.CreationDate,2025-01-18T18:37:36+05:30
; #@! TF.GenerationSoftware,Kicad,Pcbnew,8.0.7
; #@! TF.FileFunction,Plated,1,2,PTH
FMAT,2
INCH
; #@! TA.AperFunction,Plated,PTH,ViaDrill
T1C0.0138
; #@! TA.AperFunction,Plated,PTH,ComponentDrill
T2C0.0315
; #@! TA.AperFunction,Plated,PTH,ComponentDrill
T3C0.0394
; #@! TA.AperFunction,Plated,PTH,ComponentDrill
T4C0.0433
%
G90
G05
T1
X2.811Y-2.9429
X2.8573Y-3.0207
X2.9242Y-2.44
X2.9537Y-2.9246
X2.9606Y-2.5433
X2.9794Y-2.9656
X2.9988Y-2.3674
X3.0276Y-2.748
X3.0394Y-3.4892
X3.0423Y-3.3519
X3.0502Y-2.4921
X3.0709Y-3.6209
X3.1106Y-3.4843
X3.1752Y-3.0896
X3.1978Y-3.3486
X3.2318Y-2.8056
X3.2804Y-2.4723
X3.3051Y-2.5537
X3.3169Y-2.6886
X3.3799Y-2.6024
X3.3858Y-3.3553
X3.4193Y-3.4931
X3.4525Y-2.9203
X3.4845Y-3.078
X3.9932Y-3.3561
T2
X3.8567Y-2.4
X3.8567Y-2.6
X3.9567Y-2.5
T3
X2.8937Y-3.248
X2.8937Y-3.348
X2.8937Y-3.448
X2.8937Y-3.548
T4
X3.7205Y-2.8839
X3.7205Y-3.061
X3.9764Y-2.8839
X3.9764Y-3.061
M30
