%TF.GenerationSoftware,KiCad,Pcbnew,8.0.7*%
%TF.CreationDate,2025-01-18T18:37:27+05:30*%
%TF.ProjectId,AOS16 Timer,414f5331-3620-4546-996d-65722e6b6963,rev?*%
%TF.SameCoordinates,Original*%
%TF.FileFunction,Legend,Bot*%
%TF.FilePolarity,Positive*%
%FSLAX46Y46*%
G04 Gerber Fmt 4.6, Leading zero omitted, Abs format (unit mm)*
G04 Created by KiCad (PCBNEW 8.0.7) date 2025-01-18 18:37:27*
%MOMM*%
%LPD*%
G01*
G04 APERTURE LIST*
%ADD10C,0.150000*%
%ADD11C,0.100000*%
%ADD12C,0.120000*%
G04 APERTURE END LIST*
D10*
X78314164Y-90049999D02*
X77957021Y-89799999D01*
X78314164Y-89621428D02*
X77564164Y-89621428D01*
X77564164Y-89621428D02*
X77564164Y-89907142D01*
X77564164Y-89907142D02*
X77599878Y-89978571D01*
X77599878Y-89978571D02*
X77635592Y-90014285D01*
X77635592Y-90014285D02*
X77707021Y-90049999D01*
X77707021Y-90049999D02*
X77814164Y-90049999D01*
X77814164Y-90049999D02*
X77885592Y-90014285D01*
X77885592Y-90014285D02*
X77921307Y-89978571D01*
X77921307Y-89978571D02*
X77957021Y-89907142D01*
X77957021Y-89907142D02*
X77957021Y-89621428D01*
X77564164Y-90299999D02*
X77564164Y-90799999D01*
X77564164Y-90799999D02*
X78314164Y-90478571D01*
D11*
X78191764Y-86599999D02*
X77834621Y-86349999D01*
X78191764Y-86171428D02*
X77441764Y-86171428D01*
X77441764Y-86171428D02*
X77441764Y-86457142D01*
X77441764Y-86457142D02*
X77477478Y-86528571D01*
X77477478Y-86528571D02*
X77513192Y-86564285D01*
X77513192Y-86564285D02*
X77584621Y-86599999D01*
X77584621Y-86599999D02*
X77691764Y-86599999D01*
X77691764Y-86599999D02*
X77763192Y-86564285D01*
X77763192Y-86564285D02*
X77798907Y-86528571D01*
X77798907Y-86528571D02*
X77834621Y-86457142D01*
X77834621Y-86457142D02*
X77834621Y-86171428D01*
X77763192Y-87028571D02*
X77727478Y-86957142D01*
X77727478Y-86957142D02*
X77691764Y-86921428D01*
X77691764Y-86921428D02*
X77620335Y-86885714D01*
X77620335Y-86885714D02*
X77584621Y-86885714D01*
X77584621Y-86885714D02*
X77513192Y-86921428D01*
X77513192Y-86921428D02*
X77477478Y-86957142D01*
X77477478Y-86957142D02*
X77441764Y-87028571D01*
X77441764Y-87028571D02*
X77441764Y-87171428D01*
X77441764Y-87171428D02*
X77477478Y-87242857D01*
X77477478Y-87242857D02*
X77513192Y-87278571D01*
X77513192Y-87278571D02*
X77584621Y-87314285D01*
X77584621Y-87314285D02*
X77620335Y-87314285D01*
X77620335Y-87314285D02*
X77691764Y-87278571D01*
X77691764Y-87278571D02*
X77727478Y-87242857D01*
X77727478Y-87242857D02*
X77763192Y-87171428D01*
X77763192Y-87171428D02*
X77763192Y-87028571D01*
X77763192Y-87028571D02*
X77798907Y-86957142D01*
X77798907Y-86957142D02*
X77834621Y-86921428D01*
X77834621Y-86921428D02*
X77906050Y-86885714D01*
X77906050Y-86885714D02*
X78048907Y-86885714D01*
X78048907Y-86885714D02*
X78120335Y-86921428D01*
X78120335Y-86921428D02*
X78156050Y-86957142D01*
X78156050Y-86957142D02*
X78191764Y-87028571D01*
X78191764Y-87028571D02*
X78191764Y-87171428D01*
X78191764Y-87171428D02*
X78156050Y-87242857D01*
X78156050Y-87242857D02*
X78120335Y-87278571D01*
X78120335Y-87278571D02*
X78048907Y-87314285D01*
X78048907Y-87314285D02*
X77906050Y-87314285D01*
X77906050Y-87314285D02*
X77834621Y-87278571D01*
X77834621Y-87278571D02*
X77798907Y-87242857D01*
X77798907Y-87242857D02*
X77763192Y-87171428D01*
D12*
%TO.C,R7*%
X75977500Y-90412258D02*
X75977500Y-89937742D01*
X77022500Y-90412258D02*
X77022500Y-89937742D01*
%TO.C,R8*%
X75977500Y-86974758D02*
X75977500Y-86500242D01*
X77022500Y-86974758D02*
X77022500Y-86500242D01*
%TD*%
M02*
