<?xml version="1.0" ?>
<svg xmlns="http://www.w3.org/2000/svg" xmlns:ev="http://www.w3.org/2001/xml-events" xmlns:xlink="http://www.w3.org/1999/xlink" baseProfile="full" height="139.87372mm" id="svg5" version="1.1" viewBox="0 0 303.52448 139.87372" width="303.52448mm" xml:space="preserve">
	<defs/>
	<path d="M 1.658,138.854 C 7.584,135.984 19.286,132.461 29.288,130.536 C 33.463,129.733 44.262,127.944 47.755,127.477 L 50.195,127.151 L 48.331,125.426 C 47.306,124.477 45.995,123.004 45.417,122.153 C 44.19,120.346 42.537,116.996 42.537,116.318 C 42.537,115.727 42.387,115.726 36.217,116.274 C 28.612,116.948 28.778,117.144 28.778,107.501 L 28.778,100.99 L 29.529,100.239 C 30.035,99.734 30.676,99.429 31.494,99.307 L 32.709,99.124 L 32.789,92.074 L 32.879,85.024 L 33.84,83.011 C 34.856,80.884 37.558,77.722 39.257,76.672 C 40.302,76.026 40.316,75.907 39.84,71.63 C 39.325,67.001 40.074,64.883 43.326,61.776 C 45.563,59.639 48.197,57.824 51.636,56.052 L 53.945,54.861 L 53.79,53.841 C 53.529,52.136 52.983,51.382 51.634,50.867 C 50.229,50.33 49.416,49.577 49.416,48.811 C 49.416,48.522 49.029,47.962 48.556,47.568 L 47.696,46.85 L 47.606,41.51 C 47.506,35.757 47.626,35.027 48.782,34.354 C 49.389,34.0 49.465,33.778 49.516,32.222 C 49.624,28.903 51.222,27.251 55.409,26.131 L 57.559,25.555 L 57.988,23.804 C 59.754,16.593 66.942,8.9 75.946,4.585 C 83.259,1.08 90.512,-0.269 100.348,0.044 C 106.963,0.254 111.389,0.889 147.047,6.736 C 152.795,7.679 160.951,8.984 165.171,9.636 C 169.391,10.289 174.57,11.112 176.68,11.465 C 178.79,11.819 184.327,12.705 188.983,13.435 C 197.746,14.808 230.748,20.236 249.988,23.468 C 257.844,24.788 261.723,25.56 263.564,26.17 C 271.619,28.841 276.994,35.284 278.927,44.582 C 279.878,49.159 280.061,59.0 279.626,82.245 C 279.446,91.849 279.402,92.515 278.858,93.887 C 278.54,94.688 278.28,95.372 278.28,95.408 C 278.28,95.444 278.562,95.475 278.906,95.475 C 279.842,95.475 280.873,96.662 281.069,97.965 C 281.159,98.581 281.197,101.127 281.149,103.623 C 281.028,109.765 281.469,109.365 274.811,109.365 C 269.83,109.365 269.762,109.355 269.262,108.74 C 268.958,108.365 268.756,107.706 268.756,107.087 C 268.756,106.428 268.637,106.066 268.426,106.08 C 268.244,106.092 266.619,106.241 264.814,106.411 L 261.534,106.719 L 261.044,108.796 C 260.39,111.568 258.754,114.631 256.762,116.812 C 255.864,117.795 255.26,118.52 255.42,118.423 C 255.711,118.247 266.357,118.775 272.99,119.295 C 281.316,119.947 291.62,121.118 301.961,122.589 C 305.228,123.053 303.914,123.055 292.833,122.599 C 266.085,121.499 237.112,121.027 208.696,121.227 C 196.108,121.316 182.595,121.51 178.666,121.659 C 158.569,122.42 149.207,122.915 120.722,124.719 C 107.976,125.527 82.286,127.783 66.482,129.483 C 54.33,130.79 37.326,133.125 24.943,135.185 C 19.75,136.049 4.471,138.941 1.924,139.542 C -0.562,140.128 -0.626,139.961 1.659,138.854 L 1.658,138.854 M 90.294,122.462 C 93.932,122.172 97.665,121.934 98.591,121.934 L 100.273,121.934 L 98.805,120.349 C 97.998,119.477 96.945,118.107 96.464,117.303 L 95.591,115.842 L 91.222,116.0 C 88.82,116.086 86.718,116.198 86.551,116.248 C 86.384,116.298 86.044,116.953 85.795,117.703 C 85.546,118.453 84.809,119.861 84.157,120.831 C 83.505,121.801 82.915,122.685 82.847,122.794 C 82.676,123.065 82.797,123.06 90.294,122.463 L 90.294,122.462 M 139.374,118.364 C 143.085,118.153 150.467,117.856 155.778,117.703 C 161.09,117.55 167.003,117.355 168.919,117.271 L 172.403,117.118 L 171.083,115.49 C 169.517,113.558 167.789,110.13 167.367,108.116 L 167.064,106.672 L 152.4,106.497 C 144.334,106.401 137.644,106.379 137.533,106.447 C 137.422,106.516 137.258,107.108 137.168,107.763 C 136.786,110.549 134.267,115.5 132.011,117.898 L 131.202,118.758 L 131.914,118.748 C 132.306,118.748 135.663,118.57 139.374,118.359 L 139.374,118.364 M 230.919,115.781 C 230.066,114.655 229.034,112.335 228.386,110.092 C 228.316,109.839 226.695,109.762 221.449,109.762 L 214.608,109.762 L 213.987,110.423 C 213.377,111.072 213.291,111.085 209.346,111.085 L 205.327,111.085 L 204.861,112.305 C 204.605,112.977 203.82,114.285 203.118,115.213 L 201.84,116.901 L 216.049,116.972 C 223.864,117.011 230.644,117.072 231.114,117.107 L 231.97,117.171 L 230.919,115.781 M 122.897,115.544 C 126.959,114.041 130.149,110.588 131.745,105.969 C 132.541,103.664 132.715,99.137 132.112,96.425 C 130.945,91.181 126.953,86.554 122.336,85.095 C 121.08,84.698 120.155,84.605 118.178,84.679 C 115.868,84.765 115.449,84.866 113.614,85.773 C 104.256,90.398 102.329,104.449 109.995,112.164 C 112.051,114.232 113.755,115.28 116.091,115.913 C 118.207,116.486 120.72,116.35 122.897,115.544 L 122.897,115.544 M 116.91,111.231 C 113.973,110.275 111.328,107.518 110.255,104.293 C 109.777,102.856 109.699,102.114 109.781,99.743 C 109.871,97.183 109.961,96.739 110.74,95.157 C 111.32,93.978 112.122,92.924 113.195,91.931 C 117.47,87.973 123.362,88.892 126.903,94.068 C 128.859,96.928 129.177,102.303 127.588,105.662 C 125.526,110.02 120.785,112.493 116.91,111.231 M 122.071,108.955 C 122.687,108.657 123.688,107.874 124.295,107.215 C 128.31,102.859 127.649,95.973 122.903,92.716 C 121.655,91.859 121.102,91.651 119.821,91.559 C 116.654,91.33 113.913,93.056 112.434,96.21 C 111.813,97.535 111.725,98.052 111.725,100.369 C 111.725,102.675 111.815,103.206 112.422,104.502 C 113.308,106.392 114.794,108.038 116.338,108.843 C 117.945,109.681 120.47,109.73 122.071,108.955 L 122.071,108.955 M 118.07,105.16 C 116.946,104.67 115.62,103.067 115.409,101.942 C 114.767,98.52 117.016,95.438 119.875,95.822 C 121.271,96.009 122.173,96.695 122.904,98.125 C 123.632,99.551 123.669,101.297 123.004,102.75 C 122.426,104.009 121.836,104.573 120.524,105.121 C 119.359,105.608 119.112,105.612 118.073,105.159 L 118.07,105.16 M 252.219,113.593 C 255.521,112.006 257.897,107.526 257.904,102.872 C 257.914,96.459 253.9,91.335 248.912,91.394 C 244.026,91.452 240.438,96.207 240.449,102.607 C 240.459,108.408 242.936,112.689 247.058,114.026 C 248.17,114.387 251.074,114.143 252.219,113.593 L 252.219,113.593 M 248.062,110.512 C 246.651,110.126 244.862,108.437 244.122,106.795 C 243.594,105.623 243.491,104.967 243.489,102.75 C 243.489,100.545 243.589,99.884 244.097,98.782 C 247.19,92.068 255.201,94.836 255.251,102.636 C 255.281,107.748 251.819,111.543 248.062,110.512 L 248.062,110.512 M 251.416,108.408 C 254.416,106.352 255.068,101.535 252.755,98.503 C 251.949,97.446 250.323,96.532 249.253,96.534 C 247.825,96.534 245.928,98.209 245.206,100.106 C 244.702,101.431 244.848,104.548 245.484,106.027 C 246.743,108.954 249.187,109.935 251.416,108.408 L 251.416,108.408 M 248.009,104.979 C 247.472,104.341 247.324,103.879 247.324,102.842 C 247.324,101.732 247.449,101.394 248.097,100.746 C 249.995,98.848 252.274,100.786 251.706,103.814 C 251.319,105.875 249.299,106.512 248.009,104.979 L 248.009,104.979 M 40.023,113.204 C 43.079,112.914 50.044,112.316 55.501,111.873 C 60.958,111.43 68.876,110.778 73.096,110.424 C 84.451,109.471 94.361,108.706 98.099,108.494 C 101.305,108.312 101.406,108.288 101.387,107.711 C 101.377,107.384 101.347,104.419 101.317,101.124 L 101.267,95.132 L 98.952,95.306 C 97.679,95.402 94.196,95.718 91.213,96.009 C 88.23,96.3 82.157,96.888 77.719,97.315 C 71.161,97.947 58.727,99.194 33.798,101.722 C 32.852,101.818 31.93,102.014 31.748,102.158 C 31.503,102.35 31.418,103.769 31.421,107.611 C 31.421,110.468 31.501,113.079 31.588,113.414 C 31.738,113.977 31.856,114.013 33.105,113.877 C 33.85,113.796 36.96,113.493 40.016,113.204 L 40.023,113.204 M 278.545,102.486 L 278.545,97.855 L 274.973,97.855 L 271.401,97.855 L 271.401,102.486 L 271.401,107.116 L 274.973,107.116 L 278.545,107.116 L 278.545,102.486 M 268.528,103.147 C 268.978,103.147 269.02,102.898 269.02,100.224 C 269.02,97.152 269.333,95.992 270.267,95.609 C 270.527,95.502 271.832,95.353 273.168,95.277 L 275.596,95.14 L 276.157,93.639 C 277.023,91.324 277.211,89.272 277.217,82.073 L 277.217,75.418 L 275.696,75.269 C 274.859,75.187 273.103,75.048 271.793,74.96 C 268.51,74.741 247.726,73.023 246.261,72.851 C 245.606,72.774 239.712,72.296 233.164,71.788 C 221.043,70.85 208.847,69.802 196.254,68.617 C 192.398,68.254 184.838,67.598 179.453,67.159 C 174.069,66.72 162.937,65.774 154.715,65.057 C 146.493,64.339 136.492,63.501 132.49,63.194 C 128.488,62.887 124.44,62.554 123.494,62.453 L 121.774,62.269 L 121.694,61.13 L 121.614,59.99 L 123.151,60.147 C 123.997,60.233 131.713,60.892 140.299,61.61 C 148.885,62.328 156.386,62.977 156.968,63.053 C 157.55,63.128 161.777,63.489 166.361,63.854 C 170.944,64.219 177.255,64.758 180.383,65.05 C 183.512,65.343 190.477,65.994 195.862,66.498 C 201.246,67.002 209.283,67.718 213.721,68.09 C 218.159,68.462 224.351,68.996 227.479,69.278 C 230.608,69.56 235.43,69.976 238.195,70.202 C 240.96,70.428 245.841,70.848 249.043,71.135 C 254.263,71.604 258.885,71.972 272.539,73.009 C 276.799,73.332 277.478,73.241 277.152,72.392 C 277.048,72.122 275.838,71.946 272.42,71.704 C 265.924,71.243 252.934,70.176 244.545,69.413 C 240.616,69.056 234.603,68.526 231.183,68.235 C 227.764,67.944 219.132,67.166 212.001,66.506 C 204.871,65.846 195.881,65.014 192.025,64.657 C 188.169,64.3 181.561,63.705 177.341,63.335 C 173.121,62.965 167.227,62.423 164.244,62.13 C 158.615,61.578 150.233,60.86 133.288,59.481 C 120.631,58.45 121.646,58.623 121.646,57.495 C 121.646,56.393 121.045,56.428 128.312,57.107 C 131.412,57.397 138.712,58.055 144.532,58.569 C 150.353,59.084 160.176,59.976 166.361,60.551 C 172.545,61.127 181.556,61.957 186.385,62.395 C 191.214,62.833 197.048,63.372 199.35,63.593 C 201.651,63.813 211.393,64.71 220.997,65.585 C 230.601,66.46 240.186,67.351 242.296,67.566 C 244.406,67.78 249.823,68.257 254.334,68.624 C 258.846,68.992 265.738,69.584 269.651,69.941 C 273.564,70.297 276.868,70.526 276.993,70.448 C 277.346,70.231 277.262,69.281 276.89,69.279 C 276.708,69.278 274.535,69.097 272.062,68.875 C 269.588,68.653 262.265,68.002 255.79,67.427 C 243.459,66.332 229.669,65.064 222.717,64.385 C 218.141,63.938 194.736,61.738 174.959,59.895 C 167.829,59.231 159.495,58.453 156.439,58.167 C 153.383,57.881 144.81,57.106 137.389,56.445 C 119.8,54.877 121.646,55.162 121.646,54.013 L 121.646,53.066 L 123.3,53.243 C 124.209,53.341 130.073,53.891 136.33,54.465 C 142.588,55.04 149.612,55.69 151.941,55.91 C 154.269,56.13 160.639,56.725 166.096,57.233 C 182.093,58.72 189.886,59.46 196.788,60.149 C 200.353,60.505 207.675,61.217 213.059,61.73 C 218.444,62.243 225.111,62.898 227.876,63.185 C 230.641,63.471 235.582,63.943 238.856,64.233 C 249.467,65.173 267.733,66.886 271.5,67.295 C 273.52,67.514 275.642,67.693 276.215,67.693 C 277.145,67.693 277.249,67.629 277.173,67.098 C 277.093,66.553 276.898,66.485 274.84,66.299 C 273.603,66.188 268.245,65.676 262.933,65.163 C 252.885,64.191 244.681,63.417 239.253,62.929 C 237.507,62.772 229.768,62.0 222.055,61.212 C 214.343,60.424 203.627,59.349 198.243,58.823 C 192.859,58.296 185.536,57.575 181.971,57.221 C 174.755,56.503 161.06,55.204 145.855,53.795 C 140.326,53.283 132.739,52.569 128.996,52.209 C 125.253,51.848 122.068,51.553 121.918,51.553 C 121.769,51.553 121.646,51.077 121.646,50.495 C 121.646,49.228 121.144,49.276 127.358,49.954 C 129.964,50.239 135.371,50.775 139.373,51.146 C 147.359,51.885 168.875,53.94 175.356,54.582 C 186.053,55.643 196.115,56.661 204.328,57.514 C 209.276,58.028 216.955,58.802 221.394,59.235 C 225.832,59.668 231.726,60.261 234.491,60.553 C 237.256,60.844 245.59,61.674 253.012,62.396 C 260.433,63.119 268.354,63.892 270.613,64.114 C 272.872,64.336 275.296,64.518 276.0,64.518 L 277.281,64.518 L 277.144,56.25 C 276.99,47.01 276.719,44.981 275.041,40.512 C 273.78,37.156 272.65,35.358 270.318,33.0 C 268.683,31.346 267.848,30.745 265.82,29.76 C 264.451,29.096 262.318,28.315 261.081,28.025 C 256.689,26.995 193.156,16.573 166.625,12.529 C 163.351,12.03 156.922,11.018 152.338,10.279 C 134.536,7.41 120.355,5.169 111.386,3.807 C 108.871,3.425 106.609,3.048 106.359,2.969 C 106.108,2.89 106.938,3.351 108.202,3.994 C 110.861,5.345 113.118,7.011 114.366,8.543 C 115.585,10.039 117.054,12.814 117.433,14.334 L 117.75,15.611 L 119.949,15.428 C 121.918,15.264 122.243,15.304 123.061,15.81 C 124.032,16.41 124.292,16.832 124.292,17.808 C 124.292,18.142 124.47,18.564 124.689,18.745 C 125.031,19.029 125.086,18.923 125.086,17.984 C 125.086,17.0 125.146,16.893 125.738,16.893 C 126.406,16.893 138.759,18.637 139.836,18.884 L 140.431,19.02 L 140.431,31.142 L 140.431,43.264 L 138.91,43.056 C 137.01,42.797 124.528,41.499 123.935,41.499 C 123.548,41.499 123.498,41.036 123.498,37.428 L 123.498,33.357 L 122.311,33.179 C 120.368,32.888 120.323,32.728 120.323,26.095 C 120.323,20.685 120.353,20.3 120.852,19.803 C 121.143,19.512 121.545,19.274 121.746,19.274 C 122.48,19.274 122.797,18.549 122.44,17.687 C 122.259,17.25 121.977,16.881 121.812,16.866 C 121.225,16.813 119.649,16.915 118.958,17.051 L 118.254,17.189 L 118.13,27.426 C 117.994,38.627 117.826,40.157 116.398,43.208 C 115.98,44.101 115.291,45.243 114.865,45.745 C 113.265,47.636 113.301,47.485 114.206,48.515 C 115.959,50.512 116.628,52.593 118.067,60.527 C 118.58,63.352 119.029,65.677 119.066,65.695 C 119.968,66.119 120.648,66.531 121.271,67.031 L 122.043,67.65 L 120.588,67.164 C 118.419,66.439 115.445,66.105 111.144,66.105 C 100.919,66.105 91.903,68.982 84.025,74.757 C 79.505,78.072 77.919,80.577 77.468,85.117 C 77.184,87.975 76.64,89.595 75.6,90.679 C 74.443,91.884 73.098,92.225 67.671,92.693 C 64.833,92.937 59.839,93.425 56.573,93.776 C 47.392,94.765 46.43,94.68 44.719,92.732 C 43.682,91.55 43.483,90.888 42.684,85.949 C 41.506,78.67 41.432,78.276 41.234,78.276 C 40.902,78.276 36.979,82.43 36.979,82.782 C 36.979,83.029 37.371,83.073 38.504,82.955 C 41.231,82.67 41.768,83.393 42.139,87.845 C 42.289,89.652 42.25,90.135 41.934,90.398 C 41.719,90.576 40.546,90.849 39.327,91.005 C 38.109,91.161 36.725,91.342 36.252,91.409 L 35.392,91.529 L 35.392,95.77 L 35.392,100.01 L 36.781,99.856 C 37.545,99.771 40.313,99.519 42.932,99.295 C 45.552,99.072 49.183,98.72 51.002,98.513 C 52.821,98.307 60.382,97.537 67.803,96.802 C 75.225,96.068 84.095,95.173 87.515,94.813 C 90.934,94.453 95.469,94.019 97.592,93.848 L 101.452,93.537 L 101.77,90.802 C 102.235,86.8 102.941,84.31 104.497,81.187 C 105.688,78.793 106.211,78.078 108.273,76.02 C 110.96,73.338 112.977,72.166 116.014,71.522 C 118.338,71.03 122.651,71.034 124.76,71.532 C 132.434,73.342 138.921,81.663 140.846,92.168 C 141.086,93.477 141.358,96.097 141.452,97.989 L 141.622,101.428 L 146.384,101.483 C 170.881,101.766 197.57,102.267 229.205,103.036 L 236.355,103.21 L 236.671,99.938 C 237.082,95.683 237.78,92.995 239.253,90.003 C 240.584,87.3 243.083,84.457 245.213,83.223 C 247.985,81.618 251.914,81.321 254.996,82.484 C 258.854,83.94 262.649,88.565 264.244,93.755 C 264.916,95.939 265.575,100.047 265.578,102.059 L 265.578,103.484 L 266.806,103.316 C 267.481,103.223 268.255,103.148 268.526,103.148 L 268.528,103.147 M 81.483,86.595 C 79.246,85.655 79.286,79.598 81.543,77.877 C 82.623,77.053 85.771,76.497 90.692,76.26 C 93.866,76.107 94.036,76.126 94.925,76.728 C 96.376,77.71 97.094,79.366 96.986,81.48 C 96.873,83.677 96.084,84.979 94.528,85.534 C 93.946,85.742 91.267,86.103 88.575,86.336 C 85.883,86.57 83.356,86.795 82.961,86.837 C 82.565,86.879 81.901,86.77 81.484,86.595 L 81.483,86.595 M 85.121,83.786 C 85.928,82.919 86.07,81.653 85.492,80.471 C 85.065,79.597 84.884,79.467 84.087,79.467 C 83.341,79.467 83.059,79.634 82.565,80.366 C 81.774,81.54 81.799,82.543 82.645,83.548 C 83.459,84.514 84.362,84.601 85.122,83.786 L 85.121,83.786 M 92.741,83.161 C 93.481,82.643 93.962,80.944 93.621,80.049 C 93.006,78.431 91.233,78.072 90.423,79.401 C 89.006,81.725 90.751,84.556 92.741,83.161 M 269.527,57.799 C 269.467,57.741 266.649,57.423 263.265,57.09 L 257.114,56.487 L 257.114,46.215 C 257.114,36.536 257.144,35.943 257.585,35.943 C 257.845,35.943 260.732,36.299 264.002,36.734 C 267.271,37.17 270.095,37.527 270.277,37.528 C 270.535,37.528 270.607,39.745 270.607,47.717 C 270.607,57.418 270.587,57.903 270.122,57.903 C 269.855,57.903 269.588,57.856 269.527,57.799 L 269.527,57.799 M 243.637,54.841 C 240.664,54.499 238.074,54.158 237.882,54.085 C 237.603,53.978 237.534,51.893 237.534,43.489 L 237.534,33.026 L 238.527,33.167 C 242.233,33.694 250.206,34.909 250.697,35.022 L 251.293,35.159 L 251.293,45.341 L 251.293,55.522 L 250.168,55.493 C 249.55,55.477 246.611,55.184 243.637,54.841 L 243.637,54.841 M 223.512,52.462 C 219.801,51.976 216.735,51.572 216.698,51.566 C 216.658,51.556 216.628,46.672 216.628,40.705 L 216.628,29.858 L 217.31,29.858 C 217.685,29.858 220.692,30.283 223.991,30.803 C 227.29,31.323 230.436,31.815 230.982,31.896 L 231.974,32.044 L 231.974,42.725 L 231.974,53.405 L 231.114,53.375 C 230.641,53.358 227.218,52.948 223.508,52.462 L 223.512,52.462 M 202.477,50.085 C 198.403,49.605 195.039,49.203 195.003,49.192 C 194.874,49.153 194.933,26.683 195.063,26.683 C 195.456,26.683 209.956,28.844 210.344,28.961 C 210.776,29.09 210.808,29.851 210.808,40.062 C 210.808,50.338 210.778,51.022 210.344,50.991 C 210.09,50.973 206.548,50.566 202.473,50.085 L 202.477,50.085 M 180.384,47.305 C 176.092,46.749 172.49,46.287 172.381,46.278 C 172.272,46.268 172.182,41.138 172.182,34.876 L 172.182,23.489 L 173.571,23.667 C 177.61,24.182 188.882,25.838 188.929,25.923 C 188.959,25.977 188.949,31.052 188.909,37.2 C 188.849,45.845 188.763,48.371 188.512,48.347 C 188.333,48.33 184.674,47.86 180.381,47.305 L 180.384,47.305 M 163.583,45.588 C 163.309,45.481 148.222,43.616 147.63,43.616 C 147.364,43.616 147.311,41.2 147.37,31.864 C 147.41,25.4 147.515,20.041 147.601,19.954 C 147.747,19.809 163.968,22.045 164.708,22.313 C 164.966,22.406 165.039,25.003 165.039,34.083 L 165.039,45.733 L 164.443,45.712 C 164.116,45.701 163.729,45.645 163.583,45.588 L 163.583,45.588 M 54.31,92.309 C 57.075,92.017 62.016,91.539 65.291,91.247 C 72.874,90.57 73.085,90.533 74.067,89.707 C 75.339,88.637 75.591,87.657 76.007,82.173 C 76.219,79.375 76.573,75.3 76.794,73.117 C 77.543,65.714 77.327,64.85 74.569,64.228 C 73.698,64.031 65.241,64.583 63.571,64.945 C 62.803,65.112 60.828,66.296 59.47,67.406 C 58.674,68.055 58.695,68.058 60.978,67.577 C 63.38,67.072 72.265,65.841 73.509,65.841 C 74.353,65.841 74.519,65.941 74.669,66.541 C 74.769,66.925 74.739,67.342 74.619,67.467 C 74.363,67.724 61.564,69.545 60.015,69.545 C 59.441,69.545 58.864,69.374 58.677,69.148 C 58.194,68.567 57.641,68.649 57.806,69.277 C 57.886,69.584 57.796,69.86 57.583,69.941 C 57.384,70.017 54.307,70.545 50.744,71.116 C 45.897,71.893 44.216,72.076 44.067,71.842 C 43.7,71.264 43.856,70.618 44.456,70.238 C 45.058,69.857 54.994,68.222 56.709,68.222 C 57.549,68.222 57.611,68.173 57.36,67.704 C 57.207,67.419 56.658,66.862 56.14,66.466 L 55.198,65.748 L 50.918,66.604 C 44.744,67.84 44.053,68.066 43.099,69.152 C 42.649,69.665 42.206,70.379 42.116,70.74 C 41.952,71.394 44.173,88.036 44.693,90.05 C 45.169,91.896 46.865,93.193 48.491,92.955 C 48.927,92.891 51.547,92.6 54.311,92.309 L 54.31,92.309 M 46.953,90.857 C 46.707,90.611 46.505,90.007 46.505,89.514 C 46.505,88.462 46.022,88.591 52.896,87.806 C 59.155,87.091 58.676,87.039 58.676,88.43 C 58.676,89.067 58.527,89.712 58.345,89.864 C 58.162,90.015 56.287,90.335 54.177,90.575 C 47.306,91.356 47.446,91.351 46.953,90.857 L 46.953,90.857 M 60.846,89.336 C 60.425,88.915 60.435,87.024 60.856,86.874 C 61.586,86.615 72.199,85.408 72.438,85.557 C 72.833,85.8 72.745,87.085 72.289,87.735 C 71.769,88.478 70.75,88.733 66.293,89.241 C 61.934,89.737 61.255,89.749 60.843,89.336 L 60.846,89.336 M 46.339,87.333 C 45.785,86.778 45.901,85.964 46.571,85.713 C 46.899,85.59 49.488,85.228 52.326,84.908 C 55.164,84.589 57.664,84.306 57.882,84.279 C 58.161,84.244 58.304,84.524 58.361,85.222 C 58.411,85.767 58.411,86.219 58.361,86.226 C 58.311,86.236 55.674,86.566 52.491,86.967 C 47.584,87.585 46.647,87.641 46.339,87.333 M 60.443,85.776 C 60.198,85.531 60.215,83.894 60.463,83.74 C 60.573,83.672 63.044,83.372 65.953,83.074 C 73.974,82.253 73.094,82.229 73.094,83.275 C 73.094,83.805 72.932,84.255 72.697,84.376 C 72.479,84.489 69.859,84.84 66.876,85.157 C 63.893,85.473 61.265,85.782 61.036,85.844 C 60.807,85.905 60.54,85.875 60.441,85.776 L 60.443,85.776 M 45.712,83.612 L 45.712,82.598 L 48.688,82.152 C 53.668,81.405 57.93,80.92 58.177,81.073 C 58.306,81.153 58.412,81.618 58.412,82.107 C 58.412,83.176 58.781,83.07 51.955,83.968 C 45.358,84.836 45.712,84.857 45.712,83.612 L 45.712,83.612 M 60.161,81.931 C 60.071,81.467 60.091,80.992 60.201,80.875 C 60.399,80.677 64.101,80.093 70.536,79.243 C 73.566,78.843 73.594,78.855 73.442,80.434 L 73.362,81.319 L 67.145,82.027 C 63.725,82.416 60.793,82.744 60.629,82.755 C 60.466,82.766 60.256,82.395 60.163,81.931 L 60.161,81.931 M 45.343,81.033 C 45.253,80.803 45.182,80.343 45.182,80.011 C 45.182,79.465 45.366,79.379 47.101,79.113 C 52.265,78.322 57.625,77.693 57.997,77.836 C 58.439,78.006 58.583,79.462 58.183,79.709 C 57.895,79.888 47.148,81.449 46.203,81.45 C 45.809,81.451 45.433,81.269 45.343,81.033 M 59.856,78.99 C 59.455,77.392 59.419,77.408 65.293,76.659 C 68.275,76.279 71.399,75.879 72.236,75.769 L 73.757,75.57 L 73.757,76.667 C 73.757,77.316 73.622,77.804 73.427,77.861 C 73.245,77.915 70.596,78.276 67.54,78.663 C 64.484,79.049 61.543,79.433 61.004,79.514 C 60.121,79.648 60.008,79.596 59.856,78.99 L 59.856,78.99 M 44.798,77.323 C 44.698,76.799 44.657,76.335 44.698,76.291 C 44.878,76.121 56.972,74.308 57.928,74.308 C 58.046,74.308 58.143,74.771 58.143,75.337 C 58.143,76.578 58.642,76.415 51.581,77.475 C 44.74,78.501 45.016,78.507 44.794,77.323 L 44.798,77.323 M 59.596,75.34 C 59.496,74.889 59.516,74.42 59.646,74.298 C 59.897,74.05 70.424,72.52 72.703,72.4 C 74.148,72.324 74.159,72.329 74.227,73.117 C 74.267,73.554 74.197,74.067 74.069,74.258 C 73.919,74.487 71.737,74.868 67.65,75.379 C 59.68,76.374 59.828,76.375 59.6,75.34 L 59.596,75.34 M 44.382,74.423 C 44.063,73.583 44.058,73.321 44.362,73.135 C 44.491,73.055 46.307,72.744 48.396,72.445 C 50.486,72.145 53.267,71.728 54.577,71.517 C 57.981,70.97 57.884,70.951 57.884,72.191 C 57.884,72.773 57.844,73.249 57.794,73.249 C 57.655,73.249 52.491,73.991 48.62,74.567 C 46.655,74.86 44.956,75.099 44.843,75.1 C 44.73,75.101 44.522,74.796 44.38,74.423 L 44.382,74.423 M 59.47,71.972 C 59.47,70.726 59.052,70.873 64.894,70.071 C 67.076,69.771 69.934,69.352 71.244,69.14 C 74.676,68.583 74.551,68.554 74.551,69.917 L 74.551,71.083 L 73.162,71.258 C 72.398,71.354 69.63,71.715 67.01,72.06 C 64.391,72.406 61.623,72.766 60.859,72.861 L 59.47,73.034 L 59.47,71.972 M 39.342,88.692 C 40.445,87.289 39.818,85.155 38.303,85.155 C 37.266,85.155 36.588,86.038 36.622,87.345 C 36.672,89.219 38.295,90.023 39.342,88.692 L 39.342,88.692 M 79.456,77.203 C 81.586,73.998 84.497,71.701 89.5,69.277 C 95.694,66.276 102.939,64.651 111.521,64.338 C 115.97,64.175 116.077,64.158 115.962,63.617 C 115.892,63.312 115.482,61.027 115.039,58.538 C 113.971,52.538 113.61,51.392 112.413,50.195 C 110.714,48.496 109.333,48.242 101.935,48.269 C 95.536,48.292 91.779,48.597 83.968,49.724 C 69.998,51.74 55.507,56.228 48.606,60.678 C 45.073,62.955 42.007,66.501 42.007,68.31 C 42.007,68.766 42.067,68.749 42.532,68.156 C 43.293,67.189 44.729,66.703 50.165,65.574 C 55.662,64.433 56.065,64.457 57.662,66.016 C 58.634,66.965 58.678,66.98 59.187,66.519 C 59.476,66.258 60.077,65.086 60.525,63.915 C 60.972,62.744 61.632,61.513 61.991,61.18 C 62.351,60.847 62.645,60.495 62.645,60.399 C 62.645,60.087 59.362,60.432 58.568,60.827 C 57.411,61.404 57.2,61.906 57.581,63.178 C 57.904,64.256 58.412,64.426 58.412,63.456 C 58.412,62.744 58.975,61.598 59.244,61.764 C 59.857,62.143 59.204,64.783 58.496,64.783 C 58.247,64.783 58.179,65.005 58.276,65.51 C 58.356,65.91 58.336,66.059 58.246,65.841 C 58.156,65.623 57.796,64.815 57.451,64.047 C 55.792,60.356 57.401,58.438 62.163,58.434 C 63.688,58.434 63.954,58.504 64.096,58.952 C 64.296,59.584 63.908,60.366 62.749,61.662 C 61.887,62.627 60.544,64.944 60.97,64.731 C 63.218,63.611 64.639,63.39 71.811,63.039 C 75.33,62.867 75.625,62.891 76.756,63.439 C 77.652,63.872 78.097,64.307 78.503,65.147 C 79.189,66.564 79.186,66.799 78.386,74.257 C 78.023,77.649 77.736,80.506 77.749,80.607 C 77.759,80.708 77.892,80.373 78.038,79.864 C 78.184,79.354 78.821,78.157 79.455,77.203 L 79.456,77.203 M 90.864,60.595 C 89.938,59.572 90.611,58.105 92.22,57.639 C 93.641,57.227 103.79,55.522 104.82,55.522 C 105.798,55.522 106.566,56.192 106.566,57.045 C 106.566,57.991 105.427,58.61 103.064,58.948 C 101.861,59.12 98.96,59.669 96.617,60.169 C 91.681,61.222 91.448,61.24 90.864,60.595 L 90.864,60.595 M 59.177,60.06 C 60.515,59.659 62.455,59.672 62.868,60.084 C 63.129,60.345 63.247,60.332 63.446,60.018 C 63.829,59.411 63.759,59.234 63.024,58.955 C 60.977,58.177 57.089,59.48 57.089,60.944 C 57.089,61.3 57.169,61.288 57.625,60.863 C 57.92,60.588 58.619,60.227 59.177,60.059 L 59.177,60.06 M 57.236,53.559 C 57.728,53.2 57.754,52.711 57.843,42.294 C 57.944,30.519 57.853,28.904 57.135,29.211 C 56.891,29.315 55.739,29.631 54.575,29.912 C 53.411,30.194 52.264,30.625 52.026,30.869 C 51.788,31.113 51.536,31.866 51.466,32.541 L 51.339,33.77 L 52.317,33.926 C 54.201,34.228 54.3,34.539 54.392,40.44 C 54.482,46.506 54.292,47.402 52.826,47.783 C 51.674,48.081 51.581,48.534 52.629,48.743 C 53.908,48.999 55.624,50.925 56.049,52.583 C 56.428,54.063 56.484,54.109 57.236,53.559 L 57.236,53.559 M 63.905,40.146 L 63.975,28.667 L 69.594,27.514 C 72.685,26.88 78.428,25.725 82.357,24.946 C 86.286,24.167 93.89,22.632 99.253,21.535 C 104.617,20.437 109.235,19.539 109.516,19.539 C 110.014,19.539 110.024,19.839 109.95,31.776 C 109.87,43.925 109.87,44.02 109.279,45.02 C 108.951,45.574 108.683,46.08 108.683,46.145 C 108.683,46.209 109.036,46.262 109.467,46.262 C 109.898,46.262 110.844,46.495 111.569,46.781 L 112.886,47.3 L 113.605,46.45 C 114.562,45.319 115.497,43.238 115.825,41.51 C 116.176,39.659 116.171,20.556 115.825,17.748 C 115.049,11.555 112.634,8.21 106.97,5.478 C 105.759,4.894 103.55,4.151 101.81,3.744 C 99.191,3.13 98.196,3.031 94.666,3.033 C 85.117,3.043 76.827,5.833 69.645,11.469 C 66.232,14.147 62.265,19.185 61.062,22.369 C 60.226,24.579 60.118,26.938 60.224,40.584 L 60.314,52.766 L 62.076,52.195 L 63.837,51.624 L 63.905,40.146 M 66.469,24.459 C 64.791,23.728 64.136,21.252 65.118,19.353 C 66.535,16.612 69.402,16.472 70.75,19.078 C 71.611,20.743 70.617,23.583 68.885,24.405 C 67.816,24.912 67.526,24.919 66.469,24.458 L 66.469,24.459 M 68.466,21.626 C 68.805,21.382 68.798,21.362 68.416,21.483 C 68.024,21.608 68.033,21.52 68.496,20.741 L 69.017,19.858 L 68.329,19.316 C 67.523,18.682 67.067,18.786 66.651,19.698 C 66.249,20.581 66.272,20.865 66.789,21.436 C 67.282,21.981 67.88,22.049 68.468,21.626 L 68.466,21.626 M 74.755,22.96 C 74.503,22.813 73.967,22.132 73.565,21.447 C 72.926,20.357 72.835,19.933 72.847,18.084 C 72.867,14.532 74.407,12.145 77.0,11.625 C 82.551,10.513 84.496,10.086 88.682,9.059 C 94.194,7.707 94.974,7.655 96.293,8.551 C 97.679,9.493 98.18,10.975 98.061,13.785 C 97.981,15.704 97.858,16.185 97.173,17.287 C 96.717,18.02 95.981,18.771 95.446,19.047 C 94.932,19.313 91.062,20.249 86.847,21.128 C 82.631,22.007 78.765,22.841 78.255,22.983 C 77.066,23.313 75.341,23.302 74.755,22.96 L 74.755,22.96 M 102.385,16.764 C 100.813,15.442 100.743,12.585 102.234,10.614 C 103.458,8.997 105.951,9.033 107.624,10.692 C 108.468,11.529 108.55,11.745 108.55,13.127 C 108.55,14.293 108.407,14.845 107.932,15.51 C 106.606,17.369 103.846,17.994 102.385,16.765 L 102.385,16.764 M 105.553,14.074 C 106.11,13.569 106.188,12.424 105.706,11.811 C 104.76,10.608 102.862,11.417 102.862,13.023 C 102.862,13.492 103.004,14.02 103.179,14.194 C 103.638,14.653 104.989,14.584 105.553,14.074 L 105.553,14.074 M 81.586,8.465 C 81.506,8.34 81.74,8.294 82.1,8.363 C 82.459,8.432 82.753,8.534 82.753,8.589 C 82.753,8.794 81.722,8.683 81.586,8.465 L 81.586,8.465 M 86.873,7.481 C 86.644,7.253 86.457,6.942 86.457,6.791 C 86.457,6.639 86.688,6.801 86.969,7.14 C 87.435,7.709 87.536,7.731 88.094,7.392 C 88.655,7.049 88.676,7.055 88.343,7.458 C 87.888,8.009 87.408,8.016 86.873,7.482 L 86.873,7.481 M 55.519,28.115 C 57.148,27.64 58.129,26.947 57.173,26.947 C 56.227,26.947 53.095,28.016 53.26,28.283 C 53.474,28.629 53.855,28.601 55.519,28.115 L 55.519,28.115" id="path24" style="fill:#000000"/>
</svg>
